<svg width="257" height="206" viewBox="0 0 257 206" fill="none" xmlns="http://www.w3.org/2000/svg">
<circle cx="17" cy="51" r="15" fill="#FF8854"/>
<path d="M13.54 46.58V43.4H19.08V58H15.52V46.58H13.54Z" fill="#363434"/>
<circle cx="17" cy="91" r="15" fill="#FF8854"/>
<path d="M12.78 95.26C13.2333 94.9 13.44 94.7333 13.4 94.76C14.7067 93.68 15.7333 92.7933 16.48 92.1C17.24 91.4067 17.88 90.68 18.4 89.92C18.92 89.16 19.18 88.42 19.18 87.7C19.18 87.1533 19.0533 86.7267 18.8 86.42C18.5467 86.1133 18.1667 85.96 17.66 85.96C17.1533 85.96 16.7533 86.1533 16.46 86.54C16.18 86.9133 16.04 87.4467 16.04 88.14H12.74C12.7667 87.0067 13.0067 86.06 13.46 85.3C13.9267 84.54 14.5333 83.98 15.28 83.62C16.04 83.26 16.88 83.08 17.8 83.08C19.3867 83.08 20.58 83.4867 21.38 84.3C22.1933 85.1133 22.6 86.1733 22.6 87.48C22.6 88.9067 22.1133 90.2333 21.14 91.46C20.1667 92.6733 18.9267 93.86 17.42 95.02H22.82V97.8H12.78V95.26Z" fill="#363434"/>
<path d="M45.3358 55.091C44.7378 55.091 44.2005 54.987 43.7238 54.779C43.2558 54.5623 42.8875 54.2677 42.6188 53.895C42.3501 53.5137 42.2115 53.076 42.2028 52.582H43.4638C43.5071 53.0067 43.6805 53.3663 43.9838 53.661C44.2958 53.947 44.7465 54.09 45.3358 54.09C45.8991 54.09 46.3411 53.9513 46.6618 53.674C46.9911 53.388 47.1558 53.024 47.1558 52.582C47.1558 52.2353 47.0605 51.9537 46.8698 51.737C46.6791 51.5203 46.4408 51.3557 46.1548 51.243C45.8688 51.1303 45.4831 51.009 44.9978 50.879C44.3998 50.723 43.9188 50.567 43.5548 50.411C43.1995 50.255 42.8918 50.0123 42.6318 49.683C42.3805 49.345 42.2548 48.8943 42.2548 48.331C42.2548 47.837 42.3805 47.3993 42.6318 47.018C42.8831 46.6367 43.2341 46.342 43.6848 46.134C44.1441 45.926 44.6685 45.822 45.2578 45.822C46.1071 45.822 46.8005 46.0343 47.3378 46.459C47.8838 46.8837 48.1915 47.447 48.2608 48.149H46.9608C46.9175 47.8023 46.7355 47.499 46.4148 47.239C46.0941 46.9703 45.6695 46.836 45.1408 46.836C44.6468 46.836 44.2438 46.966 43.9318 47.226C43.6198 47.4773 43.4638 47.8327 43.4638 48.292C43.4638 48.6213 43.5548 48.89 43.7368 49.098C43.9275 49.306 44.1571 49.4663 44.4258 49.579C44.7031 49.683 45.0888 49.8043 45.5828 49.943C46.1808 50.1077 46.6618 50.2723 47.0258 50.437C47.3898 50.593 47.7018 50.84 47.9618 51.178C48.2218 51.5073 48.3518 51.958 48.3518 52.53C48.3518 52.972 48.2348 53.388 48.0008 53.778C47.7668 54.168 47.4201 54.4843 46.9608 54.727C46.5015 54.9697 45.9598 55.091 45.3358 55.091ZM50.9507 51.425C50.9507 50.6883 51.098 50.047 51.3927 49.501C51.6874 48.9463 52.0947 48.5173 52.6147 48.214C53.1434 47.9107 53.7457 47.759 54.4217 47.759C55.297 47.759 56.0164 47.9713 56.5797 48.396C57.1517 48.8207 57.5287 49.41 57.7107 50.164H56.4367C56.3154 49.7307 56.077 49.3883 55.7217 49.137C55.375 48.8857 54.9417 48.76 54.4217 48.76C53.7457 48.76 53.1997 48.994 52.7837 49.462C52.3677 49.9213 52.1597 50.5757 52.1597 51.425C52.1597 52.283 52.3677 52.946 52.7837 53.414C53.1997 53.882 53.7457 54.116 54.4217 54.116C54.9417 54.116 55.375 53.9947 55.7217 53.752C56.0684 53.5093 56.3067 53.1627 56.4367 52.712H57.7107C57.52 53.44 57.1387 54.025 56.5667 54.467C55.9947 54.9003 55.2797 55.117 54.4217 55.117C53.7457 55.117 53.1434 54.9653 52.6147 54.662C52.0947 54.3587 51.6874 53.9297 51.3927 53.375C51.098 52.8203 50.9507 52.1703 50.9507 51.425ZM61.7722 49.033C61.9802 48.6257 62.2748 48.3093 62.6562 48.084C63.0462 47.8587 63.5185 47.746 64.0732 47.746V48.968H63.7612C62.4352 48.968 61.7722 49.6873 61.7722 51.126V55H60.5892V47.876H61.7722V49.033ZM73.2388 51.165C73.2388 51.3903 73.2258 51.6287 73.1998 51.88H67.5058C67.5491 52.582 67.7875 53.1323 68.2208 53.531C68.6628 53.921 69.1958 54.116 69.8198 54.116C70.3311 54.116 70.7558 53.999 71.0938 53.765C71.4405 53.5223 71.6831 53.2017 71.8218 52.803H73.0958C72.9051 53.4877 72.5238 54.0467 71.9518 54.48C71.3798 54.9047 70.6691 55.117 69.8198 55.117C69.1438 55.117 68.5371 54.9653 67.9998 54.662C67.4711 54.3587 67.0551 53.9297 66.7518 53.375C66.4485 52.8117 66.2968 52.1617 66.2968 51.425C66.2968 50.6883 66.4441 50.0427 66.7388 49.488C67.0335 48.9333 67.4451 48.5087 67.9738 48.214C68.5111 47.9107 69.1265 47.759 69.8198 47.759C70.4958 47.759 71.0938 47.9063 71.6138 48.201C72.1338 48.4957 72.5325 48.903 72.8098 49.423C73.0958 49.9343 73.2388 50.515 73.2388 51.165ZM72.0168 50.918C72.0168 50.4673 71.9171 50.0817 71.7178 49.761C71.5185 49.4317 71.2455 49.1847 70.8988 49.02C70.5608 48.8467 70.1838 48.76 69.7678 48.76C69.1698 48.76 68.6585 48.9507 68.2338 49.332C67.8178 49.7133 67.5795 50.242 67.5188 50.918H72.0168ZM82.6003 51.165C82.6003 51.3903 82.5873 51.6287 82.5613 51.88H76.8673C76.9106 52.582 77.149 53.1323 77.5823 53.531C78.0243 53.921 78.5573 54.116 79.1813 54.116C79.6926 54.116 80.1173 53.999 80.4553 53.765C80.802 53.5223 81.0446 53.2017 81.1833 52.803H82.4573C82.2666 53.4877 81.8853 54.0467 81.3133 54.48C80.7413 54.9047 80.0306 55.117 79.1813 55.117C78.5053 55.117 77.8986 54.9653 77.3613 54.662C76.8326 54.3587 76.4166 53.9297 76.1133 53.375C75.81 52.8117 75.6583 52.1617 75.6583 51.425C75.6583 50.6883 75.8056 50.0427 76.1003 49.488C76.395 48.9333 76.8066 48.5087 77.3353 48.214C77.8726 47.9107 78.488 47.759 79.1813 47.759C79.8573 47.759 80.4553 47.9063 80.9753 48.201C81.4953 48.4957 81.894 48.903 82.1713 49.423C82.4573 49.9343 82.6003 50.515 82.6003 51.165ZM81.3783 50.918C81.3783 50.4673 81.2786 50.0817 81.0793 49.761C80.88 49.4317 80.607 49.1847 80.2603 49.02C79.9223 48.8467 79.5453 48.76 79.1293 48.76C78.5313 48.76 78.02 48.9507 77.5953 49.332C77.1793 49.7133 76.941 50.242 76.8803 50.918H81.3783ZM88.9328 47.746C89.7995 47.746 90.5015 48.0103 91.0388 48.539C91.5762 49.059 91.8448 49.813 91.8448 50.801V55H90.6748V50.97C90.6748 50.2593 90.4972 49.7177 90.1418 49.345C89.7865 48.9637 89.3012 48.773 88.6858 48.773C88.0618 48.773 87.5635 48.968 87.1908 49.358C86.8268 49.748 86.6448 50.3157 86.6448 51.061V55H85.4618V47.876H86.6448V48.89C86.8788 48.526 87.1952 48.2443 87.5938 48.045C88.0012 47.8457 88.4475 47.746 88.9328 47.746ZM95.6883 46.719C95.4629 46.719 95.2723 46.641 95.1163 46.485C94.9603 46.329 94.8823 46.1383 94.8823 45.913C94.8823 45.6877 94.9603 45.497 95.1163 45.341C95.2723 45.185 95.4629 45.107 95.6883 45.107C95.9049 45.107 96.0869 45.185 96.2343 45.341C96.3903 45.497 96.4683 45.6877 96.4683 45.913C96.4683 46.1383 96.3903 46.329 96.2343 46.485C96.0869 46.641 95.9049 46.719 95.6883 46.719ZM96.2603 47.876V55H95.0773V47.876H96.2603ZM103.047 47.746C103.914 47.746 104.616 48.0103 105.153 48.539C105.691 49.059 105.959 49.813 105.959 50.801V55H104.789V50.97C104.789 50.2593 104.612 49.7177 104.256 49.345C103.901 48.9637 103.416 48.773 102.8 48.773C102.176 48.773 101.678 48.968 101.305 49.358C100.941 49.748 100.759 50.3157 100.759 51.061V55H99.5765V47.876H100.759V48.89C100.993 48.526 101.31 48.2443 101.708 48.045C102.116 47.8457 102.562 47.746 103.047 47.746ZM112.13 47.759C112.745 47.759 113.283 47.8933 113.742 48.162C114.21 48.4307 114.557 48.7687 114.782 49.176V47.876H115.978V55.156C115.978 55.806 115.839 56.3823 115.562 56.885C115.285 57.3963 114.886 57.795 114.366 58.081C113.855 58.367 113.257 58.51 112.572 58.51C111.636 58.51 110.856 58.289 110.232 57.847C109.608 57.405 109.24 56.8027 109.127 56.04H110.297C110.427 56.4733 110.696 56.82 111.103 57.08C111.51 57.3487 112 57.483 112.572 57.483C113.222 57.483 113.751 57.2793 114.158 56.872C114.574 56.4647 114.782 55.8927 114.782 55.156V53.661C114.548 54.077 114.201 54.4237 113.742 54.701C113.283 54.9783 112.745 55.117 112.13 55.117C111.497 55.117 110.921 54.961 110.401 54.649C109.89 54.337 109.487 53.8993 109.192 53.336C108.897 52.7727 108.75 52.1313 108.75 51.412C108.75 50.684 108.897 50.047 109.192 49.501C109.487 48.9463 109.89 48.5173 110.401 48.214C110.921 47.9107 111.497 47.759 112.13 47.759ZM114.782 51.425C114.782 50.8877 114.674 50.4197 114.457 50.021C114.24 49.6223 113.946 49.319 113.573 49.111C113.209 48.8943 112.806 48.786 112.364 48.786C111.922 48.786 111.519 48.89 111.155 49.098C110.791 49.306 110.501 49.6093 110.284 50.008C110.067 50.4067 109.959 50.8747 109.959 51.412C109.959 51.958 110.067 52.4347 110.284 52.842C110.501 53.2407 110.791 53.5483 111.155 53.765C111.519 53.973 111.922 54.077 112.364 54.077C112.806 54.077 113.209 53.973 113.573 53.765C113.946 53.5483 114.24 53.2407 114.457 52.842C114.674 52.4347 114.782 51.9623 114.782 51.425ZM123.601 50.463C123.601 49.579 123.8 48.786 124.199 48.084C124.598 47.3733 125.139 46.8187 125.824 46.42C126.517 46.0213 127.284 45.822 128.125 45.822C129.113 45.822 129.975 46.0603 130.712 46.537C131.449 47.0137 131.986 47.6897 132.324 48.565H130.907C130.656 48.019 130.292 47.5987 129.815 47.304C129.347 47.0093 128.784 46.862 128.125 46.862C127.492 46.862 126.925 47.0093 126.422 47.304C125.919 47.5987 125.525 48.019 125.239 48.565C124.953 49.1023 124.81 49.735 124.81 50.463C124.81 51.1823 124.953 51.815 125.239 52.361C125.525 52.8983 125.919 53.3143 126.422 53.609C126.925 53.9037 127.492 54.051 128.125 54.051C128.784 54.051 129.347 53.908 129.815 53.622C130.292 53.3273 130.656 52.907 130.907 52.361H132.324C131.986 53.2277 131.449 53.8993 130.712 54.376C129.975 54.844 129.113 55.078 128.125 55.078C127.284 55.078 126.517 54.883 125.824 54.493C125.139 54.0943 124.598 53.544 124.199 52.842C123.8 52.14 123.601 51.347 123.601 50.463ZM142.873 45.939L139.454 55H138.089L134.67 45.939H135.931L138.778 53.752L141.625 45.939H142.873ZM149.794 51.412C149.794 50.684 149.941 50.047 150.236 49.501C150.531 48.9463 150.934 48.5173 151.445 48.214C151.965 47.9107 152.546 47.759 153.187 47.759C153.742 47.759 154.257 47.889 154.734 48.149C155.211 48.4003 155.575 48.734 155.826 49.15V45.38H157.022V55H155.826V53.661C155.592 54.0857 155.245 54.4367 154.786 54.714C154.327 54.9827 153.789 55.117 153.174 55.117C152.541 55.117 151.965 54.961 151.445 54.649C150.934 54.337 150.531 53.8993 150.236 53.336C149.941 52.7727 149.794 52.1313 149.794 51.412ZM155.826 51.425C155.826 50.8877 155.718 50.4197 155.501 50.021C155.284 49.6223 154.99 49.319 154.617 49.111C154.253 48.8943 153.85 48.786 153.408 48.786C152.966 48.786 152.563 48.89 152.199 49.098C151.835 49.306 151.545 49.6093 151.328 50.008C151.111 50.4067 151.003 50.8747 151.003 51.412C151.003 51.958 151.111 52.4347 151.328 52.842C151.545 53.2407 151.835 53.5483 152.199 53.765C152.563 53.973 152.966 54.077 153.408 54.077C153.85 54.077 154.253 53.973 154.617 53.765C154.99 53.5483 155.284 53.2407 155.501 52.842C155.718 52.4347 155.826 51.9623 155.826 51.425ZM159.879 51.412C159.879 50.684 160.026 50.047 160.321 49.501C160.616 48.9463 161.019 48.5173 161.53 48.214C162.05 47.9107 162.626 47.759 163.259 47.759C163.883 47.759 164.425 47.8933 164.884 48.162C165.343 48.4307 165.686 48.7687 165.911 49.176V47.876H167.107V55H165.911V53.674C165.677 54.09 165.326 54.4367 164.858 54.714C164.399 54.9827 163.861 55.117 163.246 55.117C162.613 55.117 162.041 54.961 161.53 54.649C161.019 54.337 160.616 53.8993 160.321 53.336C160.026 52.7727 159.879 52.1313 159.879 51.412ZM165.911 51.425C165.911 50.8877 165.803 50.4197 165.586 50.021C165.369 49.6223 165.075 49.319 164.702 49.111C164.338 48.8943 163.935 48.786 163.493 48.786C163.051 48.786 162.648 48.89 162.284 49.098C161.92 49.306 161.63 49.6093 161.413 50.008C161.196 50.4067 161.088 50.8747 161.088 51.412C161.088 51.958 161.196 52.4347 161.413 52.842C161.63 53.2407 161.92 53.5483 162.284 53.765C162.648 53.973 163.051 54.077 163.493 54.077C163.935 54.077 164.338 53.973 164.702 53.765C165.075 53.5483 165.369 53.2407 165.586 52.842C165.803 52.4347 165.911 51.9623 165.911 51.425ZM173.877 47.746C174.744 47.746 175.446 48.0103 175.983 48.539C176.521 49.059 176.789 49.813 176.789 50.801V55H175.619V50.97C175.619 50.2593 175.442 49.7177 175.086 49.345C174.731 48.9637 174.246 48.773 173.63 48.773C173.006 48.773 172.508 48.968 172.135 49.358C171.771 49.748 171.589 50.3157 171.589 51.061V55H170.406V47.876H171.589V48.89C171.823 48.526 172.14 48.2443 172.538 48.045C172.946 47.8457 173.392 47.746 173.877 47.746ZM190.845 48.591C190.845 49.345 190.585 49.9733 190.065 50.476C189.554 50.97 188.77 51.217 187.712 51.217H185.97V55H184.787V45.939H187.712C188.735 45.939 189.511 46.186 190.039 46.68C190.577 47.174 190.845 47.811 190.845 48.591ZM187.712 50.242C188.371 50.242 188.856 50.099 189.168 49.813C189.48 49.527 189.636 49.1197 189.636 48.591C189.636 47.473 188.995 46.914 187.712 46.914H185.97V50.242H187.712ZM196.723 55.117C196.055 55.117 195.449 54.9653 194.903 54.662C194.365 54.3587 193.941 53.9297 193.629 53.375C193.325 52.8117 193.174 52.1617 193.174 51.425C193.174 50.697 193.33 50.0557 193.642 49.501C193.962 48.9377 194.396 48.5087 194.942 48.214C195.488 47.9107 196.099 47.759 196.775 47.759C197.451 47.759 198.062 47.9107 198.608 48.214C199.154 48.5087 199.583 48.9333 199.895 49.488C200.215 50.0427 200.376 50.6883 200.376 51.425C200.376 52.1617 200.211 52.8117 199.882 53.375C199.561 53.9297 199.123 54.3587 198.569 54.662C198.014 54.9653 197.399 55.117 196.723 55.117ZM196.723 54.077C197.147 54.077 197.546 53.9773 197.919 53.778C198.291 53.5787 198.59 53.2797 198.816 52.881C199.05 52.4823 199.167 51.997 199.167 51.425C199.167 50.853 199.054 50.3677 198.829 49.969C198.603 49.5703 198.309 49.2757 197.945 49.085C197.581 48.8857 197.186 48.786 196.762 48.786C196.328 48.786 195.93 48.8857 195.566 49.085C195.21 49.2757 194.924 49.5703 194.708 49.969C194.491 50.3677 194.383 50.853 194.383 51.425C194.383 52.0057 194.487 52.4953 194.695 52.894C194.911 53.2927 195.197 53.5917 195.553 53.791C195.908 53.9817 196.298 54.077 196.723 54.077ZM204.414 49.033C204.622 48.6257 204.917 48.3093 205.298 48.084C205.688 47.8587 206.16 47.746 206.715 47.746V48.968H206.403C205.077 48.968 204.414 49.6873 204.414 51.126V55H203.231V47.876H204.414V49.033ZM210.824 48.851V53.05C210.824 53.3967 210.897 53.6437 211.045 53.791C211.192 53.9297 211.448 53.999 211.812 53.999H212.683V55H211.617C210.958 55 210.464 54.8483 210.135 54.545C209.805 54.2417 209.641 53.7433 209.641 53.05V48.851H208.718V47.876H209.641V46.082H210.824V47.876H212.683V48.851H210.824ZM218.523 55.117C217.856 55.117 217.249 54.9653 216.703 54.662C216.166 54.3587 215.741 53.9297 215.429 53.375C215.126 52.8117 214.974 52.1617 214.974 51.425C214.974 50.697 215.13 50.0557 215.442 49.501C215.763 48.9377 216.196 48.5087 216.742 48.214C217.288 47.9107 217.899 47.759 218.575 47.759C219.251 47.759 219.862 47.9107 220.408 48.214C220.954 48.5087 221.383 48.9333 221.695 49.488C222.016 50.0427 222.176 50.6883 222.176 51.425C222.176 52.1617 222.011 52.8117 221.682 53.375C221.361 53.9297 220.924 54.3587 220.369 54.662C219.814 54.9653 219.199 55.117 218.523 55.117ZM218.523 54.077C218.948 54.077 219.346 53.9773 219.719 53.778C220.092 53.5787 220.391 53.2797 220.616 52.881C220.85 52.4823 220.967 51.997 220.967 51.425C220.967 50.853 220.854 50.3677 220.629 49.969C220.404 49.5703 220.109 49.2757 219.745 49.085C219.381 48.8857 218.987 48.786 218.562 48.786C218.129 48.786 217.73 48.8857 217.366 49.085C217.011 49.2757 216.725 49.5703 216.508 49.969C216.291 50.3677 216.183 50.853 216.183 51.425C216.183 52.0057 216.287 52.4953 216.495 52.894C216.712 53.2927 216.998 53.5917 217.353 53.791C217.708 53.9817 218.098 54.077 218.523 54.077ZM227.931 48.851H226.436V55H225.253V48.851H224.33V47.876H225.253V47.369C225.253 46.5717 225.456 45.991 225.864 45.627C226.28 45.2543 226.943 45.068 227.853 45.068V46.056C227.333 46.056 226.964 46.16 226.748 46.368C226.54 46.5673 226.436 46.901 226.436 47.369V47.876H227.931V48.851ZM233.717 55.117C233.05 55.117 232.443 54.9653 231.897 54.662C231.36 54.3587 230.935 53.9297 230.623 53.375C230.32 52.8117 230.168 52.1617 230.168 51.425C230.168 50.697 230.324 50.0557 230.636 49.501C230.957 48.9377 231.39 48.5087 231.936 48.214C232.482 47.9107 233.093 47.759 233.769 47.759C234.445 47.759 235.056 47.9107 235.602 48.214C236.148 48.5087 236.577 48.9333 236.889 49.488C237.21 50.0427 237.37 50.6883 237.37 51.425C237.37 52.1617 237.205 52.8117 236.876 53.375C236.555 53.9297 236.118 54.3587 235.563 54.662C235.008 54.9653 234.393 55.117 233.717 55.117ZM233.717 54.077C234.142 54.077 234.54 53.9773 234.913 53.778C235.286 53.5787 235.585 53.2797 235.81 52.881C236.044 52.4823 236.161 51.997 236.161 51.425C236.161 50.853 236.048 50.3677 235.823 49.969C235.598 49.5703 235.303 49.2757 234.939 49.085C234.575 48.8857 234.181 48.786 233.756 48.786C233.323 48.786 232.924 48.8857 232.56 49.085C232.205 49.2757 231.919 49.5703 231.702 49.969C231.485 50.3677 231.377 50.853 231.377 51.425C231.377 52.0057 231.481 52.4953 231.689 52.894C231.906 53.2927 232.192 53.5917 232.547 53.791C232.902 53.9817 233.292 54.077 233.717 54.077ZM241.408 45.38V55H240.225V45.38H241.408ZM245.336 46.719C245.11 46.719 244.92 46.641 244.764 46.485C244.608 46.329 244.53 46.1383 244.53 45.913C244.53 45.6877 244.608 45.497 244.764 45.341C244.92 45.185 245.11 45.107 245.336 45.107C245.552 45.107 245.734 45.185 245.882 45.341C246.038 45.497 246.116 45.6877 246.116 45.913C246.116 46.1383 246.038 46.329 245.882 46.485C245.734 46.641 245.552 46.719 245.336 46.719ZM245.908 47.876V55H244.725V47.876H245.908ZM252.331 55.117C251.663 55.117 251.057 54.9653 250.511 54.662C249.973 54.3587 249.549 53.9297 249.237 53.375C248.933 52.8117 248.782 52.1617 248.782 51.425C248.782 50.697 248.938 50.0557 249.25 49.501C249.57 48.9377 250.004 48.5087 250.55 48.214C251.096 47.9107 251.707 47.759 252.383 47.759C253.059 47.759 253.67 47.9107 254.216 48.214C254.762 48.5087 255.191 48.9333 255.503 49.488C255.823 50.0427 255.984 50.6883 255.984 51.425C255.984 52.1617 255.819 52.8117 255.49 53.375C255.169 53.9297 254.731 54.3587 254.177 54.662C253.622 54.9653 253.007 55.117 252.331 55.117ZM252.331 54.077C252.755 54.077 253.154 53.9773 253.527 53.778C253.899 53.5787 254.198 53.2797 254.424 52.881C254.658 52.4823 254.775 51.997 254.775 51.425C254.775 50.853 254.662 50.3677 254.437 49.969C254.211 49.5703 253.917 49.2757 253.553 49.085C253.189 48.8857 252.794 48.786 252.37 48.786C251.936 48.786 251.538 48.8857 251.174 49.085C250.818 49.2757 250.532 49.5703 250.316 49.969C250.099 50.3677 249.991 50.853 249.991 51.425C249.991 52.0057 250.095 52.4953 250.303 52.894C250.519 53.2927 250.805 53.5917 251.161 53.791C251.516 53.9817 251.906 54.077 252.331 54.077Z" fill="black"/>
<path d="M7.66065 5.874V7.655H5.24265V15H3.01965V7.655H0.60165V5.874H7.66065ZM9.63431 11.36C9.63431 10.6147 9.77298 9.96033 10.0503 9.397C10.3363 8.83367 10.722 8.40033 11.2073 8.097C11.6926 7.79367 12.2343 7.642 12.8323 7.642C13.3436 7.642 13.79 7.746 14.1713 7.954C14.5613 8.162 14.8603 8.435 15.0683 8.773V7.746H17.2913V15H15.0683V13.973C14.8516 14.311 14.5483 14.584 14.1583 14.792C13.777 15 13.3306 15.104 12.8193 15.104C12.23 15.104 11.6926 14.9523 11.2073 14.649C10.722 14.337 10.3363 13.8993 10.0503 13.336C9.77298 12.764 9.63431 12.1053 9.63431 11.36ZM15.0683 11.373C15.0683 10.8183 14.9123 10.3807 14.6003 10.06C14.297 9.73933 13.9243 9.579 13.4823 9.579C13.0403 9.579 12.6633 9.73933 12.3513 10.06C12.048 10.372 11.8963 10.8053 11.8963 11.36C11.8963 11.9147 12.048 12.3567 12.3513 12.686C12.6633 13.0067 13.0403 13.167 13.4823 13.167C13.9243 13.167 14.297 13.0067 14.6003 12.686C14.9123 12.3653 15.0683 11.9277 15.0683 11.373ZM24.6586 7.668C25.4906 7.668 26.1579 7.94533 26.6606 8.5C27.1632 9.046 27.4146 9.8 27.4146 10.762V15H25.2046V11.061C25.2046 10.5757 25.0789 10.1987 24.8276 9.93C24.5762 9.66133 24.2382 9.527 23.8136 9.527C23.3889 9.527 23.0509 9.66133 22.7996 9.93C22.5482 10.1987 22.4226 10.5757 22.4226 11.061V15H20.1996V5.38H22.4226V8.721C22.6479 8.40033 22.9556 8.14467 23.3456 7.954C23.7356 7.76333 24.1732 7.668 24.6586 7.668ZM29.8173 11.36C29.8173 10.6147 29.956 9.96033 30.2333 9.397C30.5193 8.83367 30.905 8.40033 31.3903 8.097C31.8757 7.79367 32.4173 7.642 33.0153 7.642C33.5267 7.642 33.973 7.746 34.3543 7.954C34.7443 8.162 35.0433 8.435 35.2513 8.773V7.746H37.4743V15H35.2513V13.973C35.0347 14.311 34.7313 14.584 34.3413 14.792C33.96 15 33.5137 15.104 33.0023 15.104C32.413 15.104 31.8757 14.9523 31.3903 14.649C30.905 14.337 30.5193 13.8993 30.2333 13.336C29.956 12.764 29.8173 12.1053 29.8173 11.36ZM35.2513 11.373C35.2513 10.8183 35.0953 10.3807 34.7833 10.06C34.48 9.73933 34.1073 9.579 33.6653 9.579C33.2233 9.579 32.8463 9.73933 32.5343 10.06C32.231 10.372 32.0793 10.8053 32.0793 11.36C32.0793 11.9147 32.231 12.3567 32.5343 12.686C32.8463 13.0067 33.2233 13.167 33.6653 13.167C34.1073 13.167 34.48 13.0067 34.7833 12.686C35.0953 12.3653 35.2513 11.9277 35.2513 11.373ZM42.6056 8.773C42.8222 8.435 43.1212 8.162 43.5026 7.954C43.8839 7.746 44.3302 7.642 44.8416 7.642C45.4396 7.642 45.9812 7.79367 46.4666 8.097C46.9519 8.40033 47.3332 8.83367 47.6106 9.397C47.8966 9.96033 48.0396 10.6147 48.0396 11.36C48.0396 12.1053 47.8966 12.764 47.6106 13.336C47.3332 13.8993 46.9519 14.337 46.4666 14.649C45.9812 14.9523 45.4396 15.104 44.8416 15.104C44.3389 15.104 43.8926 15 43.5026 14.792C43.1212 14.584 42.8222 14.3153 42.6056 13.986V18.458H40.3826V7.746H42.6056V8.773ZM45.7776 11.36C45.7776 10.8053 45.6216 10.372 45.3096 10.06C45.0062 9.73933 44.6292 9.579 44.1786 9.579C43.7366 9.579 43.3596 9.73933 43.0476 10.06C42.7442 10.3807 42.5926 10.8183 42.5926 11.373C42.5926 11.9277 42.7442 12.3653 43.0476 12.686C43.3596 13.0067 43.7366 13.167 44.1786 13.167C44.6206 13.167 44.9976 13.0067 45.3096 12.686C45.6216 12.3567 45.7776 11.9147 45.7776 11.36ZM50.0638 11.36C50.0638 10.6147 50.2025 9.96033 50.4798 9.397C50.7658 8.83367 51.1515 8.40033 51.6368 8.097C52.1221 7.79367 52.6638 7.642 53.2618 7.642C53.7731 7.642 54.2195 7.746 54.6008 7.954C54.9908 8.162 55.2898 8.435 55.4978 8.773V7.746H57.7208V15H55.4978V13.973C55.2811 14.311 54.9778 14.584 54.5878 14.792C54.2065 15 53.7601 15.104 53.2488 15.104C52.6595 15.104 52.1221 14.9523 51.6368 14.649C51.1515 14.337 50.7658 13.8993 50.4798 13.336C50.2025 12.764 50.0638 12.1053 50.0638 11.36ZM55.4978 11.373C55.4978 10.8183 55.3418 10.3807 55.0298 10.06C54.7265 9.73933 54.3538 9.579 53.9118 9.579C53.4698 9.579 53.0928 9.73933 52.7808 10.06C52.4775 10.372 52.3258 10.8053 52.3258 11.36C52.3258 11.9147 52.4775 12.3567 52.7808 12.686C53.0928 13.0067 53.4698 13.167 53.9118 13.167C54.3538 13.167 54.7265 13.0067 55.0298 12.686C55.3418 12.3653 55.4978 11.9277 55.4978 11.373ZM65.049 7.668C65.8984 7.668 66.5744 7.94533 67.077 8.5C67.5884 9.046 67.844 9.8 67.844 10.762V15H65.634V11.061C65.634 10.5757 65.5084 10.1987 65.257 9.93C65.0057 9.66133 64.6677 9.527 64.243 9.527C63.8184 9.527 63.4804 9.66133 63.229 9.93C62.9777 10.1987 62.852 10.5757 62.852 11.061V15H60.629V7.746H62.852V8.708C63.0774 8.38733 63.3807 8.136 63.762 7.954C64.1434 7.76333 64.5724 7.668 65.049 7.668ZM78.0457 15.091C77.3784 15.091 76.7804 14.9827 76.2517 14.766C75.723 14.5493 75.2984 14.2287 74.9777 13.804C74.6657 13.3793 74.501 12.868 74.4837 12.27H76.8497C76.8844 12.608 77.0014 12.868 77.2007 13.05C77.4 13.2233 77.66 13.31 77.9807 13.31C78.31 13.31 78.57 13.2363 78.7607 13.089C78.9514 12.933 79.0467 12.7207 79.0467 12.452C79.0467 12.2267 78.9687 12.0403 78.8127 11.893C78.6654 11.7457 78.479 11.6243 78.2537 11.529C78.037 11.4337 77.725 11.3253 77.3177 11.204C76.7284 11.022 76.2474 10.84 75.8747 10.658C75.502 10.476 75.1814 10.2073 74.9127 9.852C74.644 9.49667 74.5097 9.033 74.5097 8.461C74.5097 7.61167 74.8174 6.94867 75.4327 6.472C76.048 5.98667 76.8497 5.744 77.8377 5.744C78.843 5.744 79.6534 5.98667 80.2687 6.472C80.884 6.94867 81.2134 7.616 81.2567 8.474H78.8517C78.8344 8.17933 78.726 7.94967 78.5267 7.785C78.3274 7.61167 78.0717 7.525 77.7597 7.525C77.491 7.525 77.2744 7.59867 77.1097 7.746C76.945 7.88467 76.8627 8.08833 76.8627 8.357C76.8627 8.65167 77.0014 8.88133 77.2787 9.046C77.556 9.21067 77.9894 9.38833 78.5787 9.579C79.168 9.77833 79.6447 9.969 80.0087 10.151C80.3814 10.333 80.702 10.5973 80.9707 10.944C81.2394 11.2907 81.3737 11.737 81.3737 12.283C81.3737 12.803 81.2394 13.2753 80.9707 13.7C80.7107 14.1247 80.3294 14.4627 79.8267 14.714C79.324 14.9653 78.7304 15.091 78.0457 15.091ZM90.8797 11.256C90.8797 11.464 90.8667 11.6807 90.8407 11.906H85.8097C85.8444 12.3567 85.9874 12.7033 86.2387 12.946C86.4987 13.18 86.8151 13.297 87.1877 13.297C87.7424 13.297 88.1281 13.063 88.3447 12.595H90.7107C90.5894 13.0717 90.3684 13.5007 90.0477 13.882C89.7357 14.2633 89.3414 14.5623 88.8647 14.779C88.3881 14.9957 87.8551 15.104 87.2657 15.104C86.5551 15.104 85.9224 14.9523 85.3677 14.649C84.8131 14.3457 84.3797 13.9123 84.0677 13.349C83.7557 12.7857 83.5997 12.127 83.5997 11.373C83.5997 10.619 83.7514 9.96033 84.0547 9.397C84.3667 8.83367 84.8001 8.40033 85.3547 8.097C85.9094 7.79367 86.5464 7.642 87.2657 7.642C87.9677 7.642 88.5917 7.78933 89.1377 8.084C89.6837 8.37867 90.1084 8.799 90.4117 9.345C90.7237 9.891 90.8797 10.528 90.8797 11.256ZM88.6047 10.671C88.6047 10.2897 88.4747 9.98633 88.2147 9.761C87.9547 9.53567 87.6297 9.423 87.2397 9.423C86.8671 9.423 86.5507 9.53133 86.2907 9.748C86.0394 9.96467 85.8834 10.2723 85.8227 10.671H88.6047ZM95.5755 5.38V15H93.3525V5.38H95.5755ZM105.324 11.256C105.324 11.464 105.311 11.6807 105.285 11.906H100.254C100.289 12.3567 100.432 12.7033 100.683 12.946C100.943 13.18 101.26 13.297 101.632 13.297C102.187 13.297 102.573 13.063 102.789 12.595H105.155C105.034 13.0717 104.813 13.5007 104.492 13.882C104.18 14.2633 103.786 14.5623 103.309 14.779C102.833 14.9957 102.3 15.104 101.71 15.104C101 15.104 100.367 14.9523 99.8125 14.649C99.2578 14.3457 98.8245 13.9123 98.5125 13.349C98.2005 12.7857 98.0445 12.127 98.0445 11.373C98.0445 10.619 98.1961 9.96033 98.4995 9.397C98.8115 8.83367 99.2448 8.40033 99.7995 8.097C100.354 7.79367 100.991 7.642 101.71 7.642C102.412 7.642 103.036 7.78933 103.582 8.084C104.128 8.37867 104.553 8.799 104.856 9.345C105.168 9.891 105.324 10.528 105.324 11.256ZM103.049 10.671C103.049 10.2897 102.919 9.98633 102.659 9.761C102.399 9.53567 102.074 9.423 101.684 9.423C101.312 9.423 100.995 9.53133 100.735 9.748C100.484 9.96467 100.328 10.2723 100.267 10.671H103.049ZM112.23 15L110.02 11.958V15H107.797V5.38H110.02V10.697L112.217 7.746H114.96L111.944 11.386L114.986 15H112.23ZM120.084 15.104C119.452 15.104 118.888 14.9957 118.394 14.779C117.9 14.5623 117.51 14.2677 117.224 13.895C116.938 13.5137 116.778 13.089 116.743 12.621H118.94C118.966 12.8723 119.083 13.076 119.291 13.232C119.499 13.388 119.755 13.466 120.058 13.466C120.336 13.466 120.548 13.414 120.695 13.31C120.851 13.1973 120.929 13.0543 120.929 12.881C120.929 12.673 120.821 12.5213 120.604 12.426C120.388 12.322 120.037 12.2093 119.551 12.088C119.031 11.9667 118.598 11.841 118.251 11.711C117.905 11.5723 117.606 11.36 117.354 11.074C117.103 10.7793 116.977 10.385 116.977 9.891C116.977 9.475 117.09 9.098 117.315 8.76C117.549 8.41333 117.887 8.14033 118.329 7.941C118.78 7.74167 119.313 7.642 119.928 7.642C120.838 7.642 121.553 7.86733 122.073 8.318C122.602 8.76867 122.905 9.36667 122.983 10.112H120.929C120.895 9.86067 120.782 9.66133 120.591 9.514C120.409 9.36667 120.167 9.293 119.863 9.293C119.603 9.293 119.404 9.345 119.265 9.449C119.127 9.54433 119.057 9.67867 119.057 9.852C119.057 10.06 119.166 10.216 119.382 10.32C119.608 10.424 119.954 10.528 120.422 10.632C120.96 10.7707 121.397 10.9093 121.735 11.048C122.073 11.178 122.368 11.3947 122.619 11.698C122.879 11.9927 123.014 12.3913 123.022 12.894C123.022 13.3187 122.901 13.7 122.658 14.038C122.424 14.3673 122.082 14.6273 121.631 14.818C121.189 15.0087 120.674 15.104 120.084 15.104ZM126.8 6.992C126.41 6.992 126.09 6.87933 125.838 6.654C125.596 6.42 125.474 6.134 125.474 5.796C125.474 5.44933 125.596 5.16333 125.838 4.938C126.09 4.704 126.41 4.587 126.8 4.587C127.182 4.587 127.494 4.704 127.736 4.938C127.988 5.16333 128.113 5.44933 128.113 5.796C128.113 6.134 127.988 6.42 127.736 6.654C127.494 6.87933 127.182 6.992 126.8 6.992ZM127.905 7.746V15H125.682V7.746H127.905Z" fill="black"/>
<path d="M53.6939 84.939L51.0679 94H49.7419L47.6359 86.707L45.4519 94L44.1389 94.013L41.6039 84.939H42.8649L44.8409 92.622L47.0249 84.939H48.3509L50.4309 92.596L52.4199 84.939H53.6939ZM55.8465 90.412C55.8465 89.684 55.9938 89.047 56.2885 88.501C56.5832 87.9463 56.9862 87.5173 57.4975 87.214C58.0175 86.9107 58.5938 86.759 59.2265 86.759C59.8505 86.759 60.3922 86.8933 60.8515 87.162C61.3108 87.4307 61.6532 87.7687 61.8785 88.176V86.876H63.0745V94H61.8785V92.674C61.6445 93.09 61.2935 93.4367 60.8255 93.714C60.3662 93.9827 59.8288 94.117 59.2135 94.117C58.5808 94.117 58.0088 93.961 57.4975 93.649C56.9862 93.337 56.5832 92.8993 56.2885 92.336C55.9938 91.7727 55.8465 91.1313 55.8465 90.412ZM61.8785 90.425C61.8785 89.8877 61.7702 89.4197 61.5535 89.021C61.3368 88.6223 61.0422 88.319 60.6695 88.111C60.3055 87.8943 59.9025 87.786 59.4605 87.786C59.0185 87.786 58.6155 87.89 58.2515 88.098C57.8875 88.306 57.5972 88.6093 57.3805 89.008C57.1638 89.4067 57.0555 89.8747 57.0555 90.412C57.0555 90.958 57.1638 91.4347 57.3805 91.842C57.5972 92.2407 57.8875 92.5483 58.2515 92.765C58.6155 92.973 59.0185 93.077 59.4605 93.077C59.9025 93.077 60.3055 92.973 60.6695 92.765C61.0422 92.5483 61.3368 92.2407 61.5535 91.842C61.7702 91.4347 61.8785 90.9623 61.8785 90.425ZM75.8637 86.876L73.6407 94H72.4187L70.7027 88.345L68.9867 94H67.7647L65.5287 86.876H66.7377L68.3757 92.856L70.1437 86.876H71.3527L73.0817 92.869L74.6937 86.876H75.8637ZM77.8957 90.412C77.8957 89.684 78.0431 89.047 78.3377 88.501C78.6324 87.9463 79.0354 87.5173 79.5467 87.214C80.0667 86.9107 80.6431 86.759 81.2757 86.759C81.8997 86.759 82.4414 86.8933 82.9007 87.162C83.3601 87.4307 83.7024 87.7687 83.9277 88.176V86.876H85.1237V94H83.9277V92.674C83.6937 93.09 83.3427 93.4367 82.8747 93.714C82.4154 93.9827 81.8781 94.117 81.2627 94.117C80.6301 94.117 80.0581 93.961 79.5467 93.649C79.0354 93.337 78.6324 92.8993 78.3377 92.336C78.0431 91.7727 77.8957 91.1313 77.8957 90.412ZM83.9277 90.425C83.9277 89.8877 83.8194 89.4197 83.6027 89.021C83.3861 88.6223 83.0914 88.319 82.7187 88.111C82.3547 87.8943 81.9517 87.786 81.5097 87.786C81.0677 87.786 80.6647 87.89 80.3007 88.098C79.9367 88.306 79.6464 88.6093 79.4297 89.008C79.2131 89.4067 79.1047 89.8747 79.1047 90.412C79.1047 90.958 79.2131 91.4347 79.4297 91.842C79.6464 92.2407 79.9367 92.5483 80.3007 92.765C80.6647 92.973 81.0677 93.077 81.5097 93.077C81.9517 93.077 82.3547 92.973 82.7187 92.765C83.0914 92.5483 83.3861 92.2407 83.6027 91.842C83.8194 91.4347 83.9277 90.9623 83.9277 90.425ZM91.8939 86.746C92.7605 86.746 93.4625 87.0103 93.9999 87.539C94.5372 88.059 94.8059 88.813 94.8059 89.801V94H93.6359V89.97C93.6359 89.2593 93.4582 88.7177 93.1029 88.345C92.7475 87.9637 92.2622 87.773 91.6469 87.773C91.0229 87.773 90.5245 87.968 90.1519 88.358C89.7879 88.748 89.6059 89.3157 89.6059 90.061V94H88.4229V86.876H89.6059V87.89C89.8399 87.526 90.1562 87.2443 90.5549 87.045C90.9622 86.8457 91.4085 86.746 91.8939 86.746ZM97.5963 90.425C97.5963 89.6883 97.7436 89.047 98.0383 88.501C98.333 87.9463 98.7403 87.5173 99.2603 87.214C99.789 86.9107 100.391 86.759 101.067 86.759C101.943 86.759 102.662 86.9713 103.225 87.396C103.797 87.8207 104.174 88.41 104.356 89.164H103.082C102.961 88.7307 102.723 88.3883 102.367 88.137C102.021 87.8857 101.587 87.76 101.067 87.76C100.391 87.76 99.8453 87.994 99.4293 88.462C99.0133 88.9213 98.8053 89.5757 98.8053 90.425C98.8053 91.283 99.0133 91.946 99.4293 92.414C99.8453 92.882 100.391 93.116 101.067 93.116C101.587 93.116 102.021 92.9947 102.367 92.752C102.714 92.5093 102.952 92.1627 103.082 91.712H104.356C104.166 92.44 103.784 93.025 103.212 93.467C102.64 93.9003 101.925 94.117 101.067 94.117C100.391 94.117 99.789 93.9653 99.2603 93.662C98.7403 93.3587 98.333 92.9297 98.0383 92.375C97.7436 91.8203 97.5963 91.1703 97.5963 90.425ZM106.793 90.412C106.793 89.684 106.94 89.047 107.235 88.501C107.529 87.9463 107.932 87.5173 108.444 87.214C108.964 86.9107 109.54 86.759 110.173 86.759C110.797 86.759 111.338 86.8933 111.798 87.162C112.257 87.4307 112.599 87.7687 112.825 88.176V86.876H114.021V94H112.825V92.674C112.591 93.09 112.24 93.4367 111.772 93.714C111.312 93.9827 110.775 94.117 110.16 94.117C109.527 94.117 108.955 93.961 108.444 93.649C107.932 93.337 107.529 92.8993 107.235 92.336C106.94 91.7727 106.793 91.1313 106.793 90.412ZM112.825 90.425C112.825 89.8877 112.716 89.4197 112.5 89.021C112.283 88.6223 111.988 88.319 111.616 88.111C111.252 87.8943 110.849 87.786 110.407 87.786C109.965 87.786 109.562 87.89 109.198 88.098C108.834 88.306 108.543 88.6093 108.327 89.008C108.11 89.4067 108.002 89.8747 108.002 90.412C108.002 90.958 108.11 91.4347 108.327 91.842C108.543 92.2407 108.834 92.5483 109.198 92.765C109.562 92.973 109.965 93.077 110.407 93.077C110.849 93.077 111.252 92.973 111.616 92.765C111.988 92.5483 112.283 92.2407 112.5 91.842C112.716 91.4347 112.825 90.9623 112.825 90.425ZM118.503 88.033C118.711 87.6257 119.006 87.3093 119.387 87.084C119.777 86.8587 120.249 86.746 120.804 86.746V87.968H120.492C119.166 87.968 118.503 88.6873 118.503 90.126V94H117.32V86.876H118.503V88.033ZM123.028 90.412C123.028 89.684 123.175 89.047 123.47 88.501C123.764 87.9463 124.167 87.5173 124.679 87.214C125.199 86.9107 125.775 86.759 126.408 86.759C127.032 86.759 127.573 86.8933 128.033 87.162C128.492 87.4307 128.834 87.7687 129.06 88.176V86.876H130.256V94H129.06V92.674C128.826 93.09 128.475 93.4367 128.007 93.714C127.547 93.9827 127.01 94.117 126.395 94.117C125.762 94.117 125.19 93.961 124.679 93.649C124.167 93.337 123.764 92.8993 123.47 92.336C123.175 91.7727 123.028 91.1313 123.028 90.412ZM129.06 90.425C129.06 89.8877 128.951 89.4197 128.735 89.021C128.518 88.6223 128.223 88.319 127.851 88.111C127.487 87.8943 127.084 87.786 126.642 87.786C126.2 87.786 125.797 87.89 125.433 88.098C125.069 88.306 124.778 88.6093 124.562 89.008C124.345 89.4067 124.237 89.8747 124.237 90.412C124.237 90.958 124.345 91.4347 124.562 91.842C124.778 92.2407 125.069 92.5483 125.433 92.765C125.797 92.973 126.2 93.077 126.642 93.077C127.084 93.077 127.487 92.973 127.851 92.765C128.223 92.5483 128.518 92.2407 128.735 91.842C128.951 91.4347 129.06 90.9623 129.06 90.425ZM139.478 84.939V90.672C139.478 91.478 139.673 92.076 140.063 92.466C140.461 92.856 141.012 93.051 141.714 93.051C142.407 93.051 142.949 92.856 143.339 92.466C143.737 92.076 143.937 91.478 143.937 90.672V84.939H145.12V90.659C145.12 91.413 144.968 92.05 144.665 92.57C144.361 93.0813 143.95 93.4627 143.43 93.714C142.918 93.9653 142.342 94.091 141.701 94.091C141.059 94.091 140.479 93.9653 139.959 93.714C139.447 93.4627 139.04 93.0813 138.737 92.57C138.442 92.05 138.295 91.413 138.295 90.659V84.939H139.478ZM150.915 94.117C150.369 94.117 149.879 94.026 149.446 93.844C149.013 93.6533 148.67 93.3933 148.419 93.064C148.168 92.726 148.029 92.3403 148.003 91.907H149.225C149.26 92.2623 149.424 92.5527 149.719 92.778C150.022 93.0033 150.417 93.116 150.902 93.116C151.353 93.116 151.708 93.0163 151.968 92.817C152.228 92.6177 152.358 92.3663 152.358 92.063C152.358 91.751 152.219 91.5213 151.942 91.374C151.665 91.218 151.236 91.0663 150.655 90.919C150.126 90.7803 149.693 90.6417 149.355 90.503C149.026 90.3557 148.74 90.1433 148.497 89.866C148.263 89.58 148.146 89.2073 148.146 88.748C148.146 88.384 148.254 88.0503 148.471 87.747C148.688 87.4437 148.995 87.2053 149.394 87.032C149.793 86.85 150.248 86.759 150.759 86.759C151.548 86.759 152.185 86.9583 152.67 87.357C153.155 87.7557 153.415 88.3017 153.45 88.995H152.267C152.241 88.6223 152.089 88.3233 151.812 88.098C151.543 87.8727 151.179 87.76 150.72 87.76C150.295 87.76 149.957 87.851 149.706 88.033C149.455 88.215 149.329 88.4533 149.329 88.748C149.329 88.982 149.403 89.177 149.55 89.333C149.706 89.4803 149.897 89.6017 150.122 89.697C150.356 89.7837 150.677 89.8833 151.084 89.996C151.595 90.1347 152.011 90.2733 152.332 90.412C152.653 90.542 152.926 90.7413 153.151 91.01C153.385 91.2787 153.506 91.6297 153.515 92.063C153.515 92.453 153.407 92.804 153.19 93.116C152.973 93.428 152.666 93.675 152.267 93.857C151.877 94.0303 151.426 94.117 150.915 94.117ZM162.985 90.165C162.985 90.3903 162.972 90.6287 162.946 90.88H157.252C157.295 91.582 157.534 92.1323 157.967 92.531C158.409 92.921 158.942 93.116 159.566 93.116C160.077 93.116 160.502 92.999 160.84 92.765C161.187 92.5223 161.429 92.2017 161.568 91.803H162.842C162.651 92.4877 162.27 93.0467 161.698 93.48C161.126 93.9047 160.415 94.117 159.566 94.117C158.89 94.117 158.283 93.9653 157.746 93.662C157.217 93.3587 156.801 92.9297 156.498 92.375C156.195 91.8117 156.043 91.1617 156.043 90.425C156.043 89.6883 156.19 89.0427 156.485 88.488C156.78 87.9333 157.191 87.5087 157.72 87.214C158.257 86.9107 158.873 86.759 159.566 86.759C160.242 86.759 160.84 86.9063 161.36 87.201C161.88 87.4957 162.279 87.903 162.556 88.423C162.842 88.9343 162.985 89.515 162.985 90.165ZM161.763 89.918C161.763 89.4673 161.663 89.0817 161.464 88.761C161.265 88.4317 160.992 88.1847 160.645 88.02C160.307 87.8467 159.93 87.76 159.514 87.76C158.916 87.76 158.405 87.9507 157.98 88.332C157.564 88.7133 157.326 89.242 157.265 89.918H161.763ZM167.03 88.033C167.238 87.6257 167.532 87.3093 167.914 87.084C168.304 86.8587 168.776 86.746 169.331 86.746V87.968H169.019C167.693 87.968 167.03 88.6873 167.03 90.126V94H165.847V86.876H167.03V88.033Z" fill="black"/>
<circle cx="17" cy="131" r="15" fill="#FF8854"/>
<path d="M13.02 127.52C13.0733 126.093 13.54 124.993 14.42 124.22C15.3 123.447 16.4933 123.06 18 123.06C19 123.06 19.8533 123.233 20.56 123.58C21.28 123.927 21.82 124.4 22.18 125C22.5533 125.6 22.74 126.273 22.74 127.02C22.74 127.9 22.52 128.62 22.08 129.18C21.64 129.727 21.1267 130.1 20.54 130.3V130.38C21.3 130.633 21.9 131.053 22.34 131.64C22.78 132.227 23 132.98 23 133.9C23 134.727 22.8067 135.46 22.42 136.1C22.0467 136.727 21.4933 137.22 20.76 137.58C20.04 137.94 19.18 138.12 18.18 138.12C16.58 138.12 15.3 137.727 14.34 136.94C13.3933 136.153 12.8933 134.967 12.84 133.38H16.16C16.1733 133.967 16.34 134.433 16.66 134.78C16.98 135.113 17.4467 135.28 18.06 135.28C18.58 135.28 18.98 135.133 19.26 134.84C19.5533 134.533 19.7 134.133 19.7 133.64C19.7 133 19.4933 132.54 19.08 132.26C18.68 131.967 18.0333 131.82 17.14 131.82H16.5V129.04H17.14C17.82 129.04 18.3667 128.927 18.78 128.7C19.2067 128.46 19.42 128.04 19.42 127.44C19.42 126.96 19.2867 126.587 19.02 126.32C18.7533 126.053 18.3867 125.92 17.92 125.92C17.4133 125.92 17.0333 126.073 16.78 126.38C16.54 126.687 16.4 127.067 16.36 127.52H13.02Z" fill="#363434"/>
<path d="M47.578 124.939V125.901H45.108V134H43.925V125.901H41.442V124.939H47.578ZM49.8922 130.412C49.8922 129.684 50.0395 129.047 50.3342 128.501C50.6289 127.946 51.0319 127.517 51.5432 127.214C52.0632 126.911 52.6395 126.759 53.2722 126.759C53.8962 126.759 54.4379 126.893 54.8972 127.162C55.3565 127.431 55.6989 127.769 55.9242 128.176V126.876H57.1202V134H55.9242V132.674C55.6902 133.09 55.3392 133.437 54.8712 133.714C54.4119 133.983 53.8745 134.117 53.2592 134.117C52.6265 134.117 52.0545 133.961 51.5432 133.649C51.0319 133.337 50.6289 132.899 50.3342 132.336C50.0395 131.773 49.8922 131.131 49.8922 130.412ZM55.9242 130.425C55.9242 129.888 55.8159 129.42 55.5992 129.021C55.3825 128.622 55.0879 128.319 54.7152 128.111C54.3512 127.894 53.9482 127.786 53.5062 127.786C53.0642 127.786 52.6612 127.89 52.2972 128.098C51.9332 128.306 51.6429 128.609 51.4262 129.008C51.2095 129.407 51.1012 129.875 51.1012 130.412C51.1012 130.958 51.2095 131.435 51.4262 131.842C51.6429 132.241 51.9332 132.548 52.2972 132.765C52.6612 132.973 53.0642 133.077 53.5062 133.077C53.9482 133.077 54.3512 132.973 54.7152 132.765C55.0879 132.548 55.3825 132.241 55.5992 131.842C55.8159 131.435 55.9242 130.962 55.9242 130.425ZM63.8904 126.746C64.757 126.746 65.459 127.01 65.9964 127.539C66.5337 128.059 66.8024 128.813 66.8024 129.801V134H65.6324V129.97C65.6324 129.259 65.4547 128.718 65.0994 128.345C64.744 127.964 64.2587 127.773 63.6434 127.773C63.0194 127.773 62.521 127.968 62.1484 128.358C61.7844 128.748 61.6024 129.316 61.6024 130.061V134H60.4194V126.876H61.6024V127.89C61.8364 127.526 62.1527 127.244 62.5514 127.045C62.9587 126.846 63.405 126.746 63.8904 126.746ZM69.5928 130.412C69.5928 129.684 69.7401 129.047 70.0348 128.501C70.3295 127.946 70.7325 127.517 71.2438 127.214C71.7638 126.911 72.3445 126.759 72.9858 126.759C73.5405 126.759 74.0561 126.889 74.5328 127.149C75.0095 127.4 75.3735 127.734 75.6248 128.15V124.38H76.8208V134H75.6248V132.661C75.3908 133.086 75.0441 133.437 74.5848 133.714C74.1255 133.983 73.5881 134.117 72.9728 134.117C72.3401 134.117 71.7638 133.961 71.2438 133.649C70.7325 133.337 70.3295 132.899 70.0348 132.336C69.7401 131.773 69.5928 131.131 69.5928 130.412ZM75.6248 130.425C75.6248 129.888 75.5165 129.42 75.2998 129.021C75.0831 128.622 74.7885 128.319 74.4158 128.111C74.0518 127.894 73.6488 127.786 73.2068 127.786C72.7648 127.786 72.3618 127.89 71.9978 128.098C71.6338 128.306 71.3435 128.609 71.1268 129.008C70.9101 129.407 70.8018 129.875 70.8018 130.412C70.8018 130.958 70.9101 131.435 71.1268 131.842C71.3435 132.241 71.6338 132.548 71.9978 132.765C72.3618 132.973 72.7648 133.077 73.2068 133.077C73.6488 133.077 74.0518 132.973 74.4158 132.765C74.7885 132.548 75.0831 132.241 75.2998 131.842C75.5165 131.435 75.6248 130.962 75.6248 130.425ZM79.6779 130.412C79.6779 129.684 79.8253 129.047 80.1199 128.501C80.4146 127.946 80.8176 127.517 81.3289 127.214C81.8489 126.911 82.4253 126.759 83.0579 126.759C83.6819 126.759 84.2236 126.893 84.6829 127.162C85.1423 127.431 85.4846 127.769 85.7099 128.176V126.876H86.9059V134H85.7099V132.674C85.4759 133.09 85.1249 133.437 84.6569 133.714C84.1976 133.983 83.6603 134.117 83.0449 134.117C82.4123 134.117 81.8403 133.961 81.3289 133.649C80.8176 133.337 80.4146 132.899 80.1199 132.336C79.8253 131.773 79.6779 131.131 79.6779 130.412ZM85.7099 130.425C85.7099 129.888 85.6016 129.42 85.3849 129.021C85.1683 128.622 84.8736 128.319 84.5009 128.111C84.1369 127.894 83.7339 127.786 83.2919 127.786C82.8499 127.786 82.4469 127.89 82.0829 128.098C81.7189 128.306 81.4286 128.609 81.2119 129.008C80.9953 129.407 80.8869 129.875 80.8869 130.412C80.8869 130.958 80.9953 131.435 81.2119 131.842C81.4286 132.241 81.7189 132.548 82.0829 132.765C82.4469 132.973 82.8499 133.077 83.2919 133.077C83.7339 133.077 84.1369 132.973 84.5009 132.765C84.8736 132.548 85.1683 132.241 85.3849 131.842C85.6016 131.435 85.7099 130.962 85.7099 130.425ZM96.4139 127.851V132.05C96.4139 132.397 96.4876 132.644 96.6349 132.791C96.7823 132.93 97.0379 132.999 97.4019 132.999H98.2729V134H97.2069C96.5483 134 96.0543 133.848 95.7249 133.545C95.3956 133.242 95.2309 132.743 95.2309 132.05V127.851H94.3079V126.876H95.2309V125.082H96.4139V126.876H98.2729V127.851H96.4139ZM100.564 130.412C100.564 129.684 100.712 129.047 101.006 128.501C101.301 127.946 101.704 127.517 102.215 127.214C102.735 126.911 103.312 126.759 103.944 126.759C104.568 126.759 105.11 126.893 105.569 127.162C106.029 127.431 106.371 127.769 106.596 128.176V126.876H107.792V134H106.596V132.674C106.362 133.09 106.011 133.437 105.543 133.714C105.084 133.983 104.547 134.117 103.931 134.117C103.299 134.117 102.727 133.961 102.215 133.649C101.704 133.337 101.301 132.899 101.006 132.336C100.712 131.773 100.564 131.131 100.564 130.412ZM106.596 130.425C106.596 129.888 106.488 129.42 106.271 129.021C106.055 128.622 105.76 128.319 105.387 128.111C105.023 127.894 104.62 127.786 104.178 127.786C103.736 127.786 103.333 127.89 102.969 128.098C102.605 128.306 102.315 128.609 102.098 129.008C101.882 129.407 101.773 129.875 101.773 130.412C101.773 130.958 101.882 131.435 102.098 131.842C102.315 132.241 102.605 132.548 102.969 132.765C103.333 132.973 103.736 133.077 104.178 133.077C104.62 133.077 105.023 132.973 105.387 132.765C105.76 132.548 106.055 132.241 106.271 131.842C106.488 131.435 106.596 130.962 106.596 130.425ZM114.562 126.746C115.429 126.746 116.131 127.01 116.668 127.539C117.206 128.059 117.474 128.813 117.474 129.801V134H116.304V129.97C116.304 129.259 116.127 128.718 115.771 128.345C115.416 127.964 114.931 127.773 114.315 127.773C113.691 127.773 113.193 127.968 112.82 128.358C112.456 128.748 112.274 129.316 112.274 130.061V134H111.091V126.876H112.274V127.89C112.508 127.526 112.825 127.244 113.223 127.045C113.631 126.846 114.077 126.746 114.562 126.746ZM123.645 126.759C124.26 126.759 124.798 126.893 125.257 127.162C125.725 127.431 126.072 127.769 126.297 128.176V126.876H127.493V134.156C127.493 134.806 127.354 135.382 127.077 135.885C126.8 136.396 126.401 136.795 125.881 137.081C125.37 137.367 124.772 137.51 124.087 137.51C123.151 137.51 122.371 137.289 121.747 136.847C121.123 136.405 120.755 135.803 120.642 135.04H121.812C121.942 135.473 122.211 135.82 122.618 136.08C123.025 136.349 123.515 136.483 124.087 136.483C124.737 136.483 125.266 136.279 125.673 135.872C126.089 135.465 126.297 134.893 126.297 134.156V132.661C126.063 133.077 125.716 133.424 125.257 133.701C124.798 133.978 124.26 134.117 123.645 134.117C123.012 134.117 122.436 133.961 121.916 133.649C121.405 133.337 121.002 132.899 120.707 132.336C120.412 131.773 120.265 131.131 120.265 130.412C120.265 129.684 120.412 129.047 120.707 128.501C121.002 127.946 121.405 127.517 121.916 127.214C122.436 126.911 123.012 126.759 123.645 126.759ZM126.297 130.425C126.297 129.888 126.189 129.42 125.972 129.021C125.755 128.622 125.461 128.319 125.088 128.111C124.724 127.894 124.321 127.786 123.879 127.786C123.437 127.786 123.034 127.89 122.67 128.098C122.306 128.306 122.016 128.609 121.799 129.008C121.582 129.407 121.474 129.875 121.474 130.412C121.474 130.958 121.582 131.435 121.799 131.842C122.016 132.241 122.306 132.548 122.67 132.765C123.034 132.973 123.437 133.077 123.879 133.077C124.321 133.077 124.724 132.973 125.088 132.765C125.461 132.548 125.755 132.241 125.972 131.842C126.189 131.435 126.297 130.962 126.297 130.425ZM130.35 130.412C130.35 129.684 130.497 129.047 130.792 128.501C131.087 127.946 131.49 127.517 132.001 127.214C132.521 126.911 133.097 126.759 133.73 126.759C134.354 126.759 134.896 126.893 135.355 127.162C135.814 127.431 136.157 127.769 136.382 128.176V126.876H137.578V134H136.382V132.674C136.148 133.09 135.797 133.437 135.329 133.714C134.87 133.983 134.332 134.117 133.717 134.117C133.084 134.117 132.512 133.961 132.001 133.649C131.49 133.337 131.087 132.899 130.792 132.336C130.497 131.773 130.35 131.131 130.35 130.412ZM136.382 130.425C136.382 129.888 136.274 129.42 136.057 129.021C135.84 128.622 135.546 128.319 135.173 128.111C134.809 127.894 134.406 127.786 133.964 127.786C133.522 127.786 133.119 127.89 132.755 128.098C132.391 128.306 132.101 128.609 131.884 129.008C131.667 129.407 131.559 129.875 131.559 130.412C131.559 130.958 131.667 131.435 131.884 131.842C132.101 132.241 132.391 132.548 132.755 132.765C133.119 132.973 133.522 133.077 133.964 133.077C134.406 133.077 134.809 132.973 135.173 132.765C135.546 132.548 135.84 132.241 136.057 131.842C136.274 131.435 136.382 130.962 136.382 130.425ZM144.348 126.746C145.215 126.746 145.917 127.01 146.454 127.539C146.992 128.059 147.26 128.813 147.26 129.801V134H146.09V129.97C146.09 129.259 145.913 128.718 145.557 128.345C145.202 127.964 144.717 127.773 144.101 127.773C143.477 127.773 142.979 127.968 142.606 128.358C142.242 128.748 142.06 129.316 142.06 130.061V134H140.877V126.876H142.06V127.89C142.294 127.526 142.611 127.244 143.009 127.045C143.417 126.846 143.863 126.746 144.348 126.746ZM159.236 134L156.441 130.854V134H155.258V124.38H156.441V130.035L159.184 126.876H160.835L157.481 130.425L160.848 134H159.236ZM166.356 134.117C165.689 134.117 165.082 133.965 164.536 133.662C163.999 133.359 163.574 132.93 163.262 132.375C162.959 131.812 162.807 131.162 162.807 130.425C162.807 129.697 162.963 129.056 163.275 128.501C163.596 127.938 164.029 127.509 164.575 127.214C165.121 126.911 165.732 126.759 166.408 126.759C167.084 126.759 167.695 126.911 168.241 127.214C168.787 127.509 169.216 127.933 169.528 128.488C169.849 129.043 170.009 129.688 170.009 130.425C170.009 131.162 169.844 131.812 169.515 132.375C169.194 132.93 168.757 133.359 168.202 133.662C167.647 133.965 167.032 134.117 166.356 134.117ZM166.356 133.077C166.781 133.077 167.179 132.977 167.552 132.778C167.925 132.579 168.224 132.28 168.449 131.881C168.683 131.482 168.8 130.997 168.8 130.425C168.8 129.853 168.687 129.368 168.462 128.969C168.237 128.57 167.942 128.276 167.578 128.085C167.214 127.886 166.82 127.786 166.395 127.786C165.962 127.786 165.563 127.886 165.199 128.085C164.844 128.276 164.558 128.57 164.341 128.969C164.124 129.368 164.016 129.853 164.016 130.425C164.016 131.006 164.12 131.495 164.328 131.894C164.545 132.293 164.831 132.592 165.186 132.791C165.541 132.982 165.931 133.077 166.356 133.077ZM176.335 126.746C177.202 126.746 177.904 127.01 178.441 127.539C178.979 128.059 179.247 128.813 179.247 129.801V134H178.077V129.97C178.077 129.259 177.9 128.718 177.544 128.345C177.189 127.964 176.704 127.773 176.088 127.773C175.464 127.773 174.966 127.968 174.593 128.358C174.229 128.748 174.047 129.316 174.047 130.061V134H172.864V126.876H174.047V127.89C174.281 127.526 174.598 127.244 174.996 127.045C175.404 126.846 175.85 126.746 176.335 126.746ZM183.923 127.851V132.05C183.923 132.397 183.996 132.644 184.144 132.791C184.291 132.93 184.547 132.999 184.911 132.999H185.782V134H184.716C184.057 134 183.563 133.848 183.234 133.545C182.904 133.242 182.74 132.743 182.74 132.05V127.851H181.817V126.876H182.74V125.082H183.923V126.876H185.782V127.851H183.923ZM189.698 128.033C189.906 127.626 190.201 127.309 190.582 127.084C190.972 126.859 191.444 126.746 191.999 126.746V127.968H191.687C190.361 127.968 189.698 128.687 189.698 130.126V134H188.515V126.876H189.698V128.033ZM194.223 130.412C194.223 129.684 194.37 129.047 194.665 128.501C194.959 127.946 195.362 127.517 195.874 127.214C196.394 126.911 196.97 126.759 197.603 126.759C198.227 126.759 198.768 126.893 199.228 127.162C199.687 127.431 200.029 127.769 200.255 128.176V126.876H201.451V134H200.255V132.674C200.021 133.09 199.67 133.437 199.202 133.714C198.742 133.983 198.205 134.117 197.59 134.117C196.957 134.117 196.385 133.961 195.874 133.649C195.362 133.337 194.959 132.899 194.665 132.336C194.37 131.773 194.223 131.131 194.223 130.412ZM200.255 130.425C200.255 129.888 200.146 129.42 199.93 129.021C199.713 128.622 199.418 128.319 199.046 128.111C198.682 127.894 198.279 127.786 197.837 127.786C197.395 127.786 196.992 127.89 196.628 128.098C196.264 128.306 195.973 128.609 195.757 129.008C195.54 129.407 195.432 129.875 195.432 130.412C195.432 130.958 195.54 131.435 195.757 131.842C195.973 132.241 196.264 132.548 196.628 132.765C196.992 132.973 197.395 133.077 197.837 133.077C198.279 133.077 198.682 132.973 199.046 132.765C199.418 132.548 199.713 132.241 199.93 131.842C200.146 131.435 200.255 130.962 200.255 130.425ZM208.728 134L205.933 130.854V134H204.75V124.38H205.933V130.035L208.676 126.876H210.327L206.973 130.425L210.34 134H208.728ZM41.559 150.412C41.559 149.684 41.7063 149.047 42.001 148.501C42.2957 147.946 42.6987 147.517 43.21 147.214C43.73 146.911 44.3107 146.759 44.952 146.759C45.5067 146.759 46.0223 146.889 46.499 147.149C46.9757 147.4 47.3397 147.734 47.591 148.15V144.38H48.787V154H47.591V152.661C47.357 153.086 47.0103 153.437 46.551 153.714C46.0917 153.983 45.5543 154.117 44.939 154.117C44.3063 154.117 43.73 153.961 43.21 153.649C42.6987 153.337 42.2957 152.899 42.001 152.336C41.7063 151.773 41.559 151.131 41.559 150.412ZM47.591 150.425C47.591 149.888 47.4827 149.42 47.266 149.021C47.0493 148.622 46.7547 148.319 46.382 148.111C46.018 147.894 45.615 147.786 45.173 147.786C44.731 147.786 44.328 147.89 43.964 148.098C43.6 148.306 43.3097 148.609 43.093 149.008C42.8763 149.407 42.768 149.875 42.768 150.412C42.768 150.958 42.8763 151.435 43.093 151.842C43.3097 152.241 43.6 152.548 43.964 152.765C44.328 152.973 44.731 153.077 45.173 153.077C45.615 153.077 46.018 152.973 46.382 152.765C46.7547 152.548 47.0493 152.241 47.266 151.842C47.4827 151.435 47.591 150.962 47.591 150.425ZM51.6442 150.412C51.6442 149.684 51.7915 149.047 52.0862 148.501C52.3808 147.946 52.7838 147.517 53.2952 147.214C53.8152 146.911 54.3915 146.759 55.0242 146.759C55.6482 146.759 56.1898 146.893 56.6492 147.162C57.1085 147.431 57.4508 147.769 57.6762 148.176V146.876H58.8722V154H57.6762V152.674C57.4422 153.09 57.0912 153.437 56.6232 153.714C56.1638 153.983 55.6265 154.117 55.0112 154.117C54.3785 154.117 53.8065 153.961 53.2952 153.649C52.7838 153.337 52.3808 152.899 52.0862 152.336C51.7915 151.773 51.6442 151.131 51.6442 150.412ZM57.6762 150.425C57.6762 149.888 57.5678 149.42 57.3512 149.021C57.1345 148.622 56.8398 148.319 56.4672 148.111C56.1032 147.894 55.7002 147.786 55.2582 147.786C54.8162 147.786 54.4132 147.89 54.0492 148.098C53.6852 148.306 53.3948 148.609 53.1782 149.008C52.9615 149.407 52.8532 149.875 52.8532 150.412C52.8532 150.958 52.9615 151.435 53.1782 151.842C53.3948 152.241 53.6852 152.548 54.0492 152.765C54.4132 152.973 54.8162 153.077 55.2582 153.077C55.7002 153.077 56.1032 152.973 56.4672 152.765C56.8398 152.548 57.1345 152.241 57.3512 151.842C57.5678 151.435 57.6762 150.962 57.6762 150.425ZM65.6423 146.746C66.509 146.746 67.211 147.01 67.7483 147.539C68.2856 148.059 68.5543 148.813 68.5543 149.801V154H67.3843V149.97C67.3843 149.259 67.2066 148.718 66.8513 148.345C66.496 147.964 66.0106 147.773 65.3953 147.773C64.7713 147.773 64.273 147.968 63.9003 148.358C63.5363 148.748 63.3543 149.316 63.3543 150.061V154H62.1713V146.876H63.3543V147.89C63.5883 147.526 63.9046 147.244 64.3033 147.045C64.7106 146.846 65.157 146.746 65.6423 146.746ZM77.7356 148.189C77.9696 147.782 78.3162 147.444 78.7756 147.175C79.2436 146.898 79.7852 146.759 80.4006 146.759C81.0332 146.759 81.6052 146.911 82.1166 147.214C82.6366 147.517 83.0439 147.946 83.3386 148.501C83.6332 149.047 83.7806 149.684 83.7806 150.412C83.7806 151.131 83.6332 151.773 83.3386 152.336C83.0439 152.899 82.6366 153.337 82.1166 153.649C81.6052 153.961 81.0332 154.117 80.4006 154.117C79.7939 154.117 79.2566 153.983 78.7886 153.714C78.3292 153.437 77.9782 153.094 77.7356 152.687V157.38H76.5526V146.876H77.7356V148.189ZM82.5716 150.412C82.5716 149.875 82.4632 149.407 82.2466 149.008C82.0299 148.609 81.7352 148.306 81.3626 148.098C80.9986 147.89 80.5956 147.786 80.1536 147.786C79.7202 147.786 79.3172 147.894 78.9446 148.111C78.5806 148.319 78.2859 148.627 78.0606 149.034C77.8439 149.433 77.7356 149.896 77.7356 150.425C77.7356 150.962 77.8439 151.435 78.0606 151.842C78.2859 152.241 78.5806 152.548 78.9446 152.765C79.3172 152.973 79.7202 153.077 80.1536 153.077C80.5956 153.077 80.9986 152.973 81.3626 152.765C81.7352 152.548 82.0299 152.241 82.2466 151.842C82.4632 151.435 82.5716 150.958 82.5716 150.412ZM93.1377 150.165C93.1377 150.39 93.1247 150.629 93.0987 150.88H87.4047C87.4481 151.582 87.6864 152.132 88.1197 152.531C88.5617 152.921 89.0947 153.116 89.7187 153.116C90.2301 153.116 90.6547 152.999 90.9927 152.765C91.3394 152.522 91.5821 152.202 91.7207 151.803H92.9947C92.8041 152.488 92.4227 153.047 91.8507 153.48C91.2787 153.905 90.5681 154.117 89.7187 154.117C89.0427 154.117 88.4361 153.965 87.8987 153.662C87.3701 153.359 86.9541 152.93 86.6507 152.375C86.3474 151.812 86.1957 151.162 86.1957 150.425C86.1957 149.688 86.3431 149.043 86.6377 148.488C86.9324 147.933 87.3441 147.509 87.8727 147.214C88.4101 146.911 89.0254 146.759 89.7187 146.759C90.3947 146.759 90.9927 146.906 91.5127 147.201C92.0327 147.496 92.4314 147.903 92.7087 148.423C92.9947 148.934 93.1377 149.515 93.1377 150.165ZM91.9157 149.918C91.9157 149.467 91.8161 149.082 91.6167 148.761C91.4174 148.432 91.1444 148.185 90.7977 148.02C90.4597 147.847 90.0827 147.76 89.6667 147.76C89.0687 147.76 88.5574 147.951 88.1327 148.332C87.7167 148.713 87.4784 149.242 87.4177 149.918H91.9157ZM97.1822 148.033C97.3902 147.626 97.6849 147.309 98.0662 147.084C98.4562 146.859 98.9286 146.746 99.4832 146.746V147.968H99.1712C97.8452 147.968 97.1822 148.687 97.1822 150.126V154H95.9992V146.876H97.1822V148.033ZM102.786 145.719C102.561 145.719 102.37 145.641 102.214 145.485C102.067 145.329 101.993 145.138 101.993 144.913C101.993 144.688 102.067 144.497 102.214 144.341C102.37 144.185 102.561 144.107 102.786 144.107C103.011 144.107 103.198 144.185 103.345 144.341C103.501 144.497 103.579 144.688 103.579 144.913C103.579 145.138 103.501 145.329 103.345 145.485C103.198 145.641 103.011 145.719 102.786 145.719ZM103.371 155.547C103.371 156.18 103.211 156.643 102.89 156.938C102.569 157.233 102.101 157.38 101.486 157.38H100.797V156.379H101.291C101.62 156.379 101.85 156.314 101.98 156.184C102.119 156.054 102.188 155.833 102.188 155.521V146.876H103.371V155.547ZM106.231 150.412C106.231 149.684 106.379 149.047 106.673 148.501C106.968 147.946 107.371 147.517 107.882 147.214C108.402 146.911 108.979 146.759 109.611 146.759C110.235 146.759 110.777 146.893 111.236 147.162C111.696 147.431 112.038 147.769 112.263 148.176V146.876H113.459V154H112.263V152.674C112.029 153.09 111.678 153.437 111.21 153.714C110.751 153.983 110.214 154.117 109.598 154.117C108.966 154.117 108.394 153.961 107.882 153.649C107.371 153.337 106.968 152.899 106.673 152.336C106.379 151.773 106.231 151.131 106.231 150.412ZM112.263 150.425C112.263 149.888 112.155 149.42 111.938 149.021C111.722 148.622 111.427 148.319 111.054 148.111C110.69 147.894 110.287 147.786 109.845 147.786C109.403 147.786 109 147.89 108.636 148.098C108.272 148.306 107.982 148.609 107.765 149.008C107.549 149.407 107.44 149.875 107.44 150.412C107.44 150.958 107.549 151.435 107.765 151.842C107.982 152.241 108.272 152.548 108.636 152.765C109 152.973 109.403 153.077 109.845 153.077C110.287 153.077 110.69 152.973 111.054 152.765C111.427 152.548 111.722 152.241 111.938 151.842C112.155 151.435 112.263 150.962 112.263 150.425ZM120.23 146.746C121.096 146.746 121.798 147.01 122.336 147.539C122.873 148.059 123.142 148.813 123.142 149.801V154H121.972V149.97C121.972 149.259 121.794 148.718 121.439 148.345C121.083 147.964 120.598 147.773 119.983 147.773C119.359 147.773 118.86 147.968 118.488 148.358C118.124 148.748 117.942 149.316 117.942 150.061V154H116.759V146.876H117.942V147.89C118.176 147.526 118.492 147.244 118.891 147.045C119.298 146.846 119.744 146.746 120.23 146.746ZM127.011 145.719C126.786 145.719 126.595 145.641 126.439 145.485C126.292 145.329 126.218 145.138 126.218 144.913C126.218 144.688 126.292 144.497 126.439 144.341C126.595 144.185 126.786 144.107 127.011 144.107C127.236 144.107 127.423 144.185 127.57 144.341C127.726 144.497 127.804 144.688 127.804 144.913C127.804 145.138 127.726 145.329 127.57 145.485C127.423 145.641 127.236 145.719 127.011 145.719ZM127.596 155.547C127.596 156.18 127.436 156.643 127.115 156.938C126.794 157.233 126.326 157.38 125.711 157.38H125.022V156.379H125.516C125.845 156.379 126.075 156.314 126.205 156.184C126.344 156.054 126.413 155.833 126.413 155.521V146.876H127.596V155.547ZM131.51 145.719C131.284 145.719 131.094 145.641 130.938 145.485C130.782 145.329 130.704 145.138 130.704 144.913C130.704 144.688 130.782 144.497 130.938 144.341C131.094 144.185 131.284 144.107 131.51 144.107C131.726 144.107 131.908 144.185 132.056 144.341C132.212 144.497 132.29 144.688 132.29 144.913C132.29 145.138 132.212 145.329 132.056 145.485C131.908 145.641 131.726 145.719 131.51 145.719ZM132.082 146.876V154H130.899V146.876H132.082ZM134.956 150.412C134.956 149.684 135.103 149.047 135.398 148.501C135.693 147.946 136.096 147.517 136.607 147.214C137.127 146.911 137.703 146.759 138.336 146.759C138.96 146.759 139.502 146.893 139.961 147.162C140.42 147.431 140.763 147.769 140.988 148.176V146.876H142.184V154H140.988V152.674C140.754 153.09 140.403 153.437 139.935 153.714C139.476 153.983 138.938 154.117 138.323 154.117C137.69 154.117 137.118 153.961 136.607 153.649C136.096 153.337 135.693 152.899 135.398 152.336C135.103 151.773 134.956 151.131 134.956 150.412ZM140.988 150.425C140.988 149.888 140.88 149.42 140.663 149.021C140.446 148.622 140.152 148.319 139.779 148.111C139.415 147.894 139.012 147.786 138.57 147.786C138.128 147.786 137.725 147.89 137.361 148.098C136.997 148.306 136.707 148.609 136.49 149.008C136.273 149.407 136.165 149.875 136.165 150.412C136.165 150.958 136.273 151.435 136.49 151.842C136.707 152.241 136.997 152.548 137.361 152.765C137.725 152.973 138.128 153.077 138.57 153.077C139.012 153.077 139.415 152.973 139.779 152.765C140.152 152.548 140.446 152.241 140.663 151.842C140.88 151.435 140.988 150.962 140.988 150.425ZM148.954 146.746C149.821 146.746 150.523 147.01 151.06 147.539C151.597 148.059 151.866 148.813 151.866 149.801V154H150.696V149.97C150.696 149.259 150.518 148.718 150.163 148.345C149.808 147.964 149.322 147.773 148.707 147.773C148.083 147.773 147.585 147.968 147.212 148.358C146.848 148.748 146.666 149.316 146.666 150.061V154H145.483V146.876H146.666V147.89C146.9 147.526 147.216 147.244 147.615 147.045C148.022 146.846 148.469 146.746 148.954 146.746Z" fill="black"/>
<circle cx="17" cy="191" r="15" fill="#FF8854"/>
<path d="M13.02 187.52C13.0733 186.093 13.54 184.993 14.42 184.22C15.3 183.447 16.4933 183.06 18 183.06C19 183.06 19.8533 183.233 20.56 183.58C21.28 183.927 21.82 184.4 22.18 185C22.5533 185.6 22.74 186.273 22.74 187.02C22.74 187.9 22.52 188.62 22.08 189.18C21.64 189.727 21.1267 190.1 20.54 190.3V190.38C21.3 190.633 21.9 191.053 22.34 191.64C22.78 192.227 23 192.98 23 193.9C23 194.727 22.8067 195.46 22.42 196.1C22.0467 196.727 21.4933 197.22 20.76 197.58C20.04 197.94 19.18 198.12 18.18 198.12C16.58 198.12 15.3 197.727 14.34 196.94C13.3933 196.153 12.8933 194.967 12.84 193.38H16.16C16.1733 193.967 16.34 194.433 16.66 194.78C16.98 195.113 17.4467 195.28 18.06 195.28C18.58 195.28 18.98 195.133 19.26 194.84C19.5533 194.533 19.7 194.133 19.7 193.64C19.7 193 19.4933 192.54 19.08 192.26C18.68 191.967 18.0333 191.82 17.14 191.82H16.5V189.04H17.14C17.82 189.04 18.3667 188.927 18.78 188.7C19.2067 188.46 19.42 188.04 19.42 187.44C19.42 186.96 19.2867 186.587 19.02 186.32C18.7533 186.053 18.3867 185.92 17.92 185.92C17.4133 185.92 17.0333 186.073 16.78 186.38C16.54 186.687 16.4 187.067 16.36 187.52H13.02Z" fill="#363434"/>
<path d="M46.109 194.091C45.2683 194.091 44.5013 193.896 43.808 193.506C43.1147 193.107 42.5643 192.557 42.157 191.855C41.7583 191.144 41.559 190.347 41.559 189.463C41.559 188.579 41.7583 187.786 42.157 187.084C42.5643 186.373 43.1147 185.823 43.808 185.433C44.5013 185.034 45.2683 184.835 46.109 184.835C46.9583 184.835 47.7297 185.034 48.423 185.433C49.1163 185.823 49.6623 186.369 50.061 187.071C50.4597 187.773 50.659 188.57 50.659 189.463C50.659 190.356 50.4597 191.153 50.061 191.855C49.6623 192.557 49.1163 193.107 48.423 193.506C47.7297 193.896 46.9583 194.091 46.109 194.091ZM46.109 193.064C46.7417 193.064 47.3093 192.917 47.812 192.622C48.3233 192.327 48.722 191.907 49.008 191.361C49.3027 190.815 49.45 190.182 49.45 189.463C49.45 188.735 49.3027 188.102 49.008 187.565C48.722 187.019 48.3277 186.599 47.825 186.304C47.3223 186.009 46.7503 185.862 46.109 185.862C45.4677 185.862 44.8957 186.009 44.393 186.304C43.8903 186.599 43.4917 187.019 43.197 187.565C42.911 188.102 42.768 188.735 42.768 189.463C42.768 190.182 42.911 190.815 43.197 191.361C43.4917 191.907 43.8903 192.327 44.393 192.622C44.9043 192.917 45.4763 193.064 46.109 193.064ZM56.9917 186.746C57.8584 186.746 58.5604 187.01 59.0977 187.539C59.6351 188.059 59.9037 188.813 59.9037 189.801V194H58.7337V189.97C58.7337 189.259 58.5561 188.718 58.2007 188.345C57.8454 187.964 57.3601 187.773 56.7447 187.773C56.1207 187.773 55.6224 187.968 55.2497 188.358C54.8857 188.748 54.7037 189.316 54.7037 190.061V194H53.5207V186.876H54.7037V187.89C54.9377 187.526 55.2541 187.244 55.6527 187.045C56.0601 186.846 56.5064 186.746 56.9917 186.746ZM72.439 189.333C72.7683 189.385 73.0673 189.519 73.336 189.736C73.6133 189.953 73.83 190.221 73.986 190.542C74.1506 190.863 74.233 191.205 74.233 191.569C74.233 192.028 74.116 192.444 73.882 192.817C73.648 193.181 73.3056 193.471 72.855 193.688C72.413 193.896 71.8886 194 71.282 194H67.902V184.939H71.152C71.7673 184.939 72.2916 185.043 72.725 185.251C73.1583 185.45 73.4833 185.723 73.7 186.07C73.9166 186.417 74.025 186.807 74.025 187.24C74.025 187.777 73.8776 188.224 73.583 188.579C73.297 188.926 72.9156 189.177 72.439 189.333ZM69.085 188.852H71.074C71.6286 188.852 72.0576 188.722 72.361 188.462C72.6643 188.202 72.816 187.842 72.816 187.383C72.816 186.924 72.6643 186.564 72.361 186.304C72.0576 186.044 71.62 185.914 71.048 185.914H69.085V188.852ZM71.178 193.025C71.7673 193.025 72.2266 192.886 72.556 192.609C72.8853 192.332 73.05 191.946 73.05 191.452C73.05 190.949 72.8766 190.555 72.53 190.269C72.1833 189.974 71.7196 189.827 71.139 189.827H69.085V193.025H71.178ZM80.2816 194.117C79.6143 194.117 79.0076 193.965 78.4616 193.662C77.9243 193.359 77.4996 192.93 77.1876 192.375C76.8843 191.812 76.7326 191.162 76.7326 190.425C76.7326 189.697 76.8886 189.056 77.2006 188.501C77.5213 187.938 77.9546 187.509 78.5006 187.214C79.0466 186.911 79.6576 186.759 80.3336 186.759C81.0096 186.759 81.6206 186.911 82.1666 187.214C82.7126 187.509 83.1416 187.933 83.4536 188.488C83.7743 189.043 83.9346 189.688 83.9346 190.425C83.9346 191.162 83.77 191.812 83.4406 192.375C83.12 192.93 82.6823 193.359 82.1276 193.662C81.573 193.965 80.9576 194.117 80.2816 194.117ZM80.2816 193.077C80.7063 193.077 81.105 192.977 81.4776 192.778C81.8503 192.579 82.1493 192.28 82.3746 191.881C82.6086 191.482 82.7256 190.997 82.7256 190.425C82.7256 189.853 82.613 189.368 82.3876 188.969C82.1623 188.57 81.8676 188.276 81.5036 188.085C81.1396 187.886 80.7453 187.786 80.3206 187.786C79.8873 187.786 79.4886 187.886 79.1246 188.085C78.7693 188.276 78.4833 188.57 78.2666 188.969C78.05 189.368 77.9416 189.853 77.9416 190.425C77.9416 191.006 78.0456 191.495 78.2536 191.894C78.4703 192.293 78.7563 192.592 79.1116 192.791C79.467 192.982 79.857 193.077 80.2816 193.077ZM86.3481 190.412C86.3481 189.684 86.4954 189.047 86.7901 188.501C87.0847 187.946 87.4877 187.517 87.9991 187.214C88.5191 186.911 89.0954 186.759 89.7281 186.759C90.3521 186.759 90.8937 186.893 91.3531 187.162C91.8124 187.431 92.1547 187.769 92.3801 188.176V186.876H93.5761V194H92.3801V192.674C92.1461 193.09 91.7951 193.437 91.3271 193.714C90.8677 193.983 90.3304 194.117 89.7151 194.117C89.0824 194.117 88.5104 193.961 87.9991 193.649C87.4877 193.337 87.0847 192.899 86.7901 192.336C86.4954 191.773 86.3481 191.131 86.3481 190.412ZM92.3801 190.425C92.3801 189.888 92.2717 189.42 92.0551 189.021C91.8384 188.622 91.5437 188.319 91.1711 188.111C90.8071 187.894 90.4041 187.786 89.9621 187.786C89.5201 187.786 89.1171 187.89 88.7531 188.098C88.3891 188.306 88.0987 188.609 87.8821 189.008C87.6654 189.407 87.5571 189.875 87.5571 190.412C87.5571 190.958 87.6654 191.435 87.8821 191.842C88.0987 192.241 88.3891 192.548 88.7531 192.765C89.1171 192.973 89.5201 193.077 89.9621 193.077C90.4041 193.077 90.8071 192.973 91.1711 192.765C91.5437 192.548 91.8384 192.241 92.0551 191.842C92.2717 191.435 92.3801 190.962 92.3801 190.425ZM98.0582 188.033C98.2662 187.626 98.5609 187.309 98.9422 187.084C99.3322 186.859 99.8046 186.746 100.359 186.746V187.968H100.047C98.7212 187.968 98.0582 188.687 98.0582 190.126V194H96.8752V186.876H98.0582V188.033ZM102.583 190.412C102.583 189.684 102.73 189.047 103.025 188.501C103.319 187.946 103.722 187.517 104.234 187.214C104.754 186.911 105.334 186.759 105.976 186.759C106.53 186.759 107.046 186.889 107.523 187.149C107.999 187.4 108.363 187.734 108.615 188.15V184.38H109.811V194H108.615V192.661C108.381 193.086 108.034 193.437 107.575 193.714C107.115 193.983 106.578 194.117 105.963 194.117C105.33 194.117 104.754 193.961 104.234 193.649C103.722 193.337 103.319 192.899 103.025 192.336C102.73 191.773 102.583 191.131 102.583 190.412ZM108.615 190.425C108.615 189.888 108.506 189.42 108.29 189.021C108.073 188.622 107.778 188.319 107.406 188.111C107.042 187.894 106.639 187.786 106.197 187.786C105.755 187.786 105.352 187.89 104.988 188.098C104.624 188.306 104.333 188.609 104.117 189.008C103.9 189.407 103.792 189.875 103.792 190.412C103.792 190.958 103.9 191.435 104.117 191.842C104.333 192.241 104.624 192.548 104.988 192.765C105.352 192.973 105.755 193.077 106.197 193.077C106.639 193.077 107.042 192.973 107.406 192.765C107.778 192.548 108.073 192.241 108.29 191.842C108.506 191.435 108.615 190.962 108.615 190.425ZM113.721 185.719C113.496 185.719 113.305 185.641 113.149 185.485C112.993 185.329 112.915 185.138 112.915 184.913C112.915 184.688 112.993 184.497 113.149 184.341C113.305 184.185 113.496 184.107 113.721 184.107C113.938 184.107 114.12 184.185 114.267 184.341C114.423 184.497 114.501 184.688 114.501 184.913C114.501 185.138 114.423 185.329 114.267 185.485C114.12 185.641 113.938 185.719 113.721 185.719ZM114.293 186.876V194H113.11V186.876H114.293ZM121.08 186.746C121.947 186.746 122.649 187.01 123.186 187.539C123.724 188.059 123.992 188.813 123.992 189.801V194H122.822V189.97C122.822 189.259 122.645 188.718 122.289 188.345C121.934 187.964 121.449 187.773 120.833 187.773C120.209 187.773 119.711 187.968 119.338 188.358C118.974 188.748 118.792 189.316 118.792 190.061V194H117.609V186.876H118.792V187.89C119.026 187.526 119.343 187.244 119.741 187.045C120.149 186.846 120.595 186.746 121.08 186.746ZM130.163 186.759C130.778 186.759 131.315 186.893 131.775 187.162C132.243 187.431 132.589 187.769 132.815 188.176V186.876H134.011V194.156C134.011 194.806 133.872 195.382 133.595 195.885C133.317 196.396 132.919 196.795 132.399 197.081C131.887 197.367 131.289 197.51 130.605 197.51C129.669 197.51 128.889 197.289 128.265 196.847C127.641 196.405 127.272 195.803 127.16 195.04H128.33C128.46 195.473 128.728 195.82 129.136 196.08C129.543 196.349 130.033 196.483 130.605 196.483C131.255 196.483 131.783 196.279 132.191 195.872C132.607 195.465 132.815 194.893 132.815 194.156V192.661C132.581 193.077 132.234 193.424 131.775 193.701C131.315 193.978 130.778 194.117 130.163 194.117C129.53 194.117 128.954 193.961 128.434 193.649C127.922 193.337 127.519 192.899 127.225 192.336C126.93 191.773 126.783 191.131 126.783 190.412C126.783 189.684 126.93 189.047 127.225 188.501C127.519 187.946 127.922 187.517 128.434 187.214C128.954 186.911 129.53 186.759 130.163 186.759ZM132.815 190.425C132.815 189.888 132.706 189.42 132.49 189.021C132.273 188.622 131.978 188.319 131.606 188.111C131.242 187.894 130.839 187.786 130.397 187.786C129.955 187.786 129.552 187.89 129.188 188.098C128.824 188.306 128.533 188.609 128.317 189.008C128.1 189.407 127.992 189.875 127.992 190.412C127.992 190.958 128.1 191.435 128.317 191.842C128.533 192.241 128.824 192.548 129.188 192.765C129.552 192.973 129.955 193.077 130.397 193.077C130.839 193.077 131.242 192.973 131.606 192.765C131.978 192.548 132.273 192.241 132.49 191.842C132.706 191.435 132.815 190.962 132.815 190.425Z" fill="black"/>
</svg>
