<?xml version="1.0" encoding="utf-8"?>
<!-- Generator: Adobe Illustrator 23.0.5, SVG Export Plug-In . SVG Version: 6.00 Build 0)  -->
<svg version="1.1" id="Layer_1" xmlns="http://www.w3.org/2000/svg" xmlns:xlink="http://www.w3.org/1999/xlink" x="0px" y="0px"
	 viewBox="0 0 1080 165.5" style="enable-background:new 0 0 1080 165.5;" xml:space="preserve">
<style type="text/css">
	.st0{fill:#FF8854;}
</style>
<path d="M105.8,132c-4.8-2.7-8.8-6.7-11.5-11.5c-2.9-5.3-4.3-11.2-4.2-17.2c-0.1-6,1.4-11.9,4.3-17.1c2.8-4.9,6.8-8.9,11.7-11.5
	c10.4-5.4,22.8-5.4,33.1,0c4.9,2.7,9,6.6,11.7,11.5c2.9,5.2,4.4,11.1,4.3,17.1c0.1,6-1.4,11.9-4.4,17.2c-2.8,4.9-6.9,8.8-11.9,11.5
	c-5.2,2.7-10.9,4.1-16.8,4C116.5,136.1,110.8,134.7,105.8,132z M130.4,120c2.6-1.5,4.7-3.7,6.1-6.3c1.6-3.2,2.4-6.7,2.3-10.3
	c0-6-1.6-10.6-4.7-13.9c-3-3.2-7.2-4.9-11.6-4.9c-4.3-0.1-8.5,1.7-11.5,4.8c-3.1,3.2-4.6,7.9-4.6,13.9c0,6,1.5,10.6,4.5,13.9
	c2.9,3.2,7.1,5,11.4,4.9C125.1,122.1,127.9,121.4,130.4,120z"/>
<path d="M171.3,86.1c2.3-4.7,5.9-8.7,10.4-11.4c4.4-2.7,9.5-4.1,14.7-4c4.3-0.1,8.6,0.9,12.4,2.9c3.3,1.7,6.3,4.2,8.5,7.2v-9h16.1
	V135h-16.1v-9.3c-2.2,3.1-5.1,5.6-8.5,7.4c-3.9,2-8.2,3-12.5,2.9c-5.2,0-10.2-1.4-14.6-4.1c-4.5-2.8-8.1-6.9-10.4-11.6
	c-2.6-5.3-3.9-11.2-3.8-17.2C167.4,97.2,168.7,91.4,171.3,86.1z M215.1,93.3c-1.4-2.7-3.6-4.9-6.2-6.4c-2.5-1.5-5.4-2.2-8.4-2.2
	c-6-0.1-11.5,3.2-14.3,8.5c-1.6,3-2.4,6.4-2.3,9.9c-0.1,3.5,0.7,6.9,2.3,10c1.4,2.7,3.6,5,6.2,6.6c2.5,1.5,5.3,2.3,8.2,2.3
	c2.9,0,5.8-0.8,8.4-2.2c2.6-1.5,4.8-3.7,6.2-6.4c1.6-3.1,2.4-6.5,2.3-10C217.4,99.9,216.7,96.4,215.1,93.3z"/>
<path d="M269.7,50.4V135h-16V50.4H269.7z"/>
<path d="M300.3,133.2c-3.9-1.7-7.2-4.3-9.8-7.6c-2.4-3.1-3.7-6.8-4-10.6h16.1c0.3,2.4,1.6,4.6,3.6,6.1c2.3,1.7,5,2.5,7.8,2.4
	c2.5,0.1,5-0.5,7.1-1.8c1.6-1,2.6-2.8,2.6-4.7c0-2-1.2-3.9-3.1-4.6c-3.2-1.4-6.6-2.6-10-3.4c-3.9-0.9-7.8-2.1-11.6-3.5
	c-3-1.2-5.7-3.1-7.8-5.6c-2.2-2.5-3.3-5.9-3.3-10.2c0-3.4,1-6.8,3-9.6c2.2-3,5.2-5.4,8.7-6.9c4.2-1.8,8.8-2.6,13.3-2.5
	c7.5,0,13.6,1.9,18.1,5.7s7,8.9,7.4,15.3h-15.3c-0.1-2.4-1.3-4.5-3.1-6c-2.2-1.6-4.8-2.4-7.5-2.2c-2.3-0.1-4.7,0.4-6.7,1.6
	c-1.5,1-2.4,2.7-2.3,4.5c0,2.1,1.3,4,3.2,4.9c3.2,1.5,6.6,2.6,10,3.4c3.8,0.9,7.6,2.1,11.3,3.5c3,1.2,5.6,3.2,7.7,5.7
	c2.2,2.6,3.3,5.9,3.4,10.1c0.1,3.5-1,6.9-3,9.8c-2.2,3-5.2,5.4-8.7,6.8c-4.2,1.7-8.7,2.6-13.2,2.5
	C309.5,136.1,304.7,135.2,300.3,133.2z"/>
<path d="M65.1,92.7H44.7l18.4,18.4c-4.8,6.3-12.4,9.9-20.3,9.7c-15.5,0-28.1-12.6-28.1-28.1s12.6-28.1,28.1-28.1
	c7.8,0,15.2,3.2,20.5,8.9l10.4-9.7c-16-17.1-42.7-18-59.8-2s-18,42.7-2,59.8s42.7,18,59.8,2c0.7-0.6,1.4-1.3,2-2
	c3.3-3.4,5.9-7.5,7.8-11.9L65.1,92.7z M63.9,110.5c0,0,0-0.2,0-0.4C64.1,110,64,110.3,63.9,110.5z"/>
<path d="M60.8,110.5c0,0,0-0.2,0-0.4C60.9,110,60.8,110.3,60.8,110.5z"/>
<path d="M438.4,118.3h-34.7l-6.4,17.7h-11L415,56.8h12l28.7,79.2h-11L438.4,118.3z M435.4,109.8L421,69.6l-14.4,40.2L435.4,109.8z"
	/>
<path d="M472.9,87.6c2.5-4.7,6.2-8.6,10.8-11.3c4.8-2.7,10.3-4.1,15.8-4c7.7,0,14,1.9,19,5.6c5.1,3.8,8.6,9.3,9.9,15.5h-11.2
	c-1-3.6-3.2-6.8-6.2-9c-3.4-2.3-7.4-3.5-11.5-3.3c-5.5-0.2-10.7,2-14.4,6.1c-3.7,4.1-5.5,9.9-5.5,17.3c0,7.5,1.8,13.3,5.5,17.5
	c3.6,4.1,8.9,6.4,14.4,6.2c4.1,0.1,8-1,11.4-3.2c3.1-2.2,5.3-5.5,6.3-9.1h11.2c-1.5,6.1-5,11.5-10.1,15.4c-5,3.9-11.3,5.8-18.9,5.8
	c-5.5,0.1-11-1.3-15.8-4c-4.6-2.7-8.4-6.6-10.8-11.3c-2.7-5.3-4-11.2-3.8-17.2C468.9,98.7,470.2,92.9,472.9,87.6z"/>
<path d="M546.8,87.6c2.4-4.7,6.1-8.6,10.7-11.3c4.6-2.7,9.8-4.1,15.1-4c5-0.1,9.9,1.1,14.3,3.6c3.8,2.1,6.9,5.2,9,8.9V73.4h10.5V136
	H596v-11.6c-2.2,3.8-5.4,6.9-9.2,9.1c-4.3,2.5-9.2,3.7-14.2,3.6c-5.3,0.1-10.5-1.4-15.1-4.1c-4.5-2.8-8.2-6.8-10.6-11.5
	c-2.7-5.2-4-11-3.9-16.9C542.8,98.6,544.1,92.8,546.8,87.6z M593.1,92.2c-1.8-3.4-4.4-6.1-7.7-8.1c-6.6-3.7-14.7-3.7-21.3,0
	c-3.3,1.9-5.9,4.7-7.7,8c-2,3.8-3,8.1-2.9,12.3c-0.1,4.3,0.9,8.6,2.9,12.5c1.7,3.4,4.4,6.2,7.7,8.1c3.2,1.9,6.9,2.8,10.6,2.8
	c3.7,0,7.4-0.9,10.7-2.8c3.3-1.9,6-4.7,7.7-8.1c2-3.8,3-8.1,2.9-12.4C596.1,100.3,595.1,96.1,593.1,92.2z"/>
<path d="M628.7,87.6c2.4-4.7,6.1-8.6,10.7-11.3c4.6-2.7,9.9-4.1,15.3-4c4.7,0,9.4,1.1,13.6,3.4c4,2,7.3,5.1,9.6,8.9V51.4h10.5V136
	h-10.5v-11.7c-2.2,3.8-5.3,7-9.1,9.2c-4.3,2.5-9.2,3.7-14.2,3.6c-10.9,0.1-20.9-5.9-25.8-15.7c-2.7-5.2-4-11-3.9-16.9
	C624.6,98.6,626,92.8,628.7,87.6z M675,92.2c-1.8-3.4-4.4-6.1-7.7-8.1c-6.6-3.7-14.7-3.7-21.3,0c-3.3,1.9-5.9,4.7-7.7,8
	c-2,3.8-3,8.1-2.9,12.3c-0.1,4.3,0.9,8.6,2.8,12.5c1.7,3.4,4.4,6.2,7.7,8.1c3.2,1.9,6.9,2.8,10.6,2.8c3.7,0,7.4-0.9,10.7-2.8
	c3.3-1.9,6-4.7,7.8-8.1c2-3.8,2.9-8.1,2.8-12.4C678,100.3,677,96.1,675,92.2z"/>
<path d="M767.3,108.6h-50.1c0.4,6.2,2.5,11,6.3,14.5c3.8,3.5,8.8,5.3,14,5.2c4,0.1,7.9-1,11.3-3.1c3-2,5.2-5,6.3-8.4h11.2
	c-1.6,5.9-5.1,11.1-10.1,14.7c-5,3.8-11.3,5.7-18.7,5.7c-5.6,0.1-11.1-1.3-16-4c-4.7-2.7-8.5-6.6-11-11.4c-2.8-5.3-4.1-11.1-4-17.1
	c-0.1-5.9,1.2-11.7,3.9-17c2.5-4.7,6.3-8.7,10.9-11.3c4.9-2.7,10.5-4.1,16.2-4c5.5-0.1,10.9,1.2,15.8,3.9c4.5,2.5,8.1,6.2,10.6,10.7
	c2.5,4.7,3.8,10,3.7,15.4C767.6,104.4,767.5,106.5,767.3,108.6z M754.3,89.9c-1.7-2.8-4.2-5.1-7.2-6.5c-3.1-1.5-6.5-2.3-10-2.2
	c-5-0.1-9.8,1.7-13.4,5c-3.7,3.3-5.8,8-6.3,13.9h39.5C757,96.5,756.1,93,754.3,89.9L754.3,89.9z"/>
<path d="M874.3,75.3c3.8,2.1,7,5.2,9,9.1c2.3,4.6,3.5,9.6,3.3,14.7V136h-10.3v-35.4c0-6.2-1.5-11-4.6-14.3s-7.3-5-12.5-5
	c-5.4,0-9.7,1.7-12.9,5.2s-4.8,8.5-4.8,15V136h-10.3v-35.4c0-6.2-1.5-11-4.6-14.3s-7.3-5-12.5-5c-5.4,0-9.7,1.7-12.9,5.2
	s-4.8,8.5-4.8,15V136h-10.4V73.4h10.4v9c2-3.2,4.9-5.8,8.3-7.5c3.6-1.8,7.5-2.7,11.5-2.6c4.9-0.1,9.7,1.1,14,3.6
	c4.1,2.4,7.2,6,9,10.4c1.7-4.3,4.7-7.9,8.7-10.3c4.1-2.5,8.7-3.7,13.5-3.7C865.8,72.1,870.2,73.2,874.3,75.3z"/>
<path d="M962.2,73.4l-37.7,92.1h-10.7l12.3-30.2l-25.3-61.9h11.5l19.7,50.7l19.4-50.7H962.2z"/>
<path d="M60.8,110.5c0,0,0-0.2,0-0.4C60.9,110,60.8,110.3,60.8,110.5z"/>
<path class="st0" d="M1078.9,8.4l-5.2,11.8c-1,2.2-3.1,3.6-5.5,3.6h-13.7c-3.3,0-6-2.7-6-6c0-0.8,0.2-1.6,0.5-2.4l5.2-11.8
	c1-2.2,3.1-3.6,5.5-3.6h13.7c3.3,0,6,2.7,6,6C1079.4,6.8,1079.3,7.6,1078.9,8.4z"/>
<path class="st0" d="M1037.8,32.2L1016.3,81c-1,2.2-3.1,3.6-5.5,3.6h-13.7c-3.3,0-6-2.7-6-6c0-0.8,0.2-1.6,0.5-2.4l4.5-10.3
	c7.1-15.1-2.8-20.4-13.3-20.4h-15.3c-3,0-5.5-2.4-5.5-5.5c0-0.8,0.2-1.5,0.5-2.2l4.7-10.8c0.9-2,2.8-3.3,5-3.3h60
	c3.3,0,6,2.7,5.9,6.1C1038.3,30.6,1038.2,31.4,1037.8,32.2z"/>
</svg>
