<?xml version="1.0" encoding="UTF-8" standalone="no" ?>
<!DOCTYPE svg PUBLIC "-//W3C//DTD SVG 1.1//EN" "http://www.w3.org/Graphics/SVG/1.1/DTD/svg11.dtd">
<svg xmlns="http://www.w3.org/2000/svg" xmlns:xlink="http://www.w3.org/1999/xlink" version="1.1" width="1080" height="1080" viewBox="0 0 1080 1080" xml:space="preserve">
<desc>Created with Fabric.js 5.2.4</desc>
<defs>
</defs>
<rect x="0" y="0" width="100%" height="100%" fill="transparent"></rect>
<g transform="matrix(1 0 0 1 540 540)" id="e3b2e919-89a0-48fe-9348-66e1781a7105"  >
<rect style="stroke: none; stroke-width: 1; stroke-dasharray: none; stroke-linecap: butt; stroke-dashoffset: 0; stroke-linejoin: miter; stroke-miterlimit: 4; fill: rgb(255,255,255); fill-rule: nonzero; opacity: 1; visibility: hidden;" vector-effect="non-scaling-stroke"  x="-540" y="-540" rx="0" ry="0" width="1080" height="1080" />
</g>
<g transform="matrix(1 0 0 1 540 540)" id="0ce51c45-0f34-4463-a2c6-b8d1405f4697"  >
</g>
<g transform="matrix(1 0 0 1 122.74 596.07)"  >
<path style="stroke: none; stroke-width: 1; stroke-dasharray: none; stroke-linecap: butt; stroke-dashoffset: 0; stroke-linejoin: miter; stroke-miterlimit: 4; fill: rgb(0,0,0); fill-rule: nonzero; opacity: 1;" vector-effect="non-scaling-stroke"  transform=" translate(-122.71, -103.32)" d="M 105.79 132 C 100.95469933420232 129.3314422346571 96.97434665388712 125.34762234817437 94.31 120.51 C 91.4539014359503 115.25260025986842 90.01670661377547 109.34183498401752 90.14 103.36000000000001 C 90.0146848884687 97.36744798783678 91.49227507340028 91.45018262107803 94.41999999999999 86.22000000000003 C 97.17098890400312 81.35839812689845 101.23177248057839 77.36691119838761 106.14 74.7 C 116.52333377667608 69.28608558443608 128.8966662233239 69.28608558443608 139.27999999999997 74.69999999999999 C 144.1822700612607 77.36137107804028 148.2420027927846 81.34143328667591 151 86.19 C 153.92319439351175 91.42197805232468 155.4004723734142 97.33799314006487 155.28 103.32999999999998 C 155.40595907268326 109.3398012141049 153.88800232335495 115.2698600412075 150.89000000000001 120.47999999999998 C 148.06087006391482 125.33987880972745 143.94685903414288 129.32586762915324 139 132 C 133.84239558008733 134.72205661820468 128.0810282189507 136.09790554026713 122.25 136 C 116.51091715214253 136.1018825793203 110.84227613442357 134.72432704646027 105.79 132 Z M 130.43 120 C 133.03636342024205 118.5167772995927 135.15824588998447 116.31154756426304 136.54000000000002 113.65 C 138.14476192512063 110.46328617170532 138.9284627806121 106.92632046863197 138.82000000000002 103.36000000000001 Q 138.82000000000002 94.36000000000001 134.08 89.48000000000002 C 131.06732230987666 86.30299477403211 126.85756424502084 84.53925130892873 122.48000000000002 84.62000000000002 C 118.14007932657606 84.52151018067089 113.96411923161332 86.27846900111251 111 89.45 Q 106.37 94.31 106.37 103.33 Q 106.37 112.35 110.89 117.22 C 113.79402989796651 120.41479654545299 117.94394717292865 122.18863981337876 122.26 122.08 C 125.11656702336683 122.09813783944617 127.92986844038238 121.38189953499179 130.43 120 Z" stroke-linecap="round" />
</g>
<g transform="matrix(1 0 0 1 200.52 596.07)"  >
<path style="stroke: none; stroke-width: 1; stroke-dasharray: none; stroke-linecap: butt; stroke-dashoffset: 0; stroke-linejoin: miter; stroke-miterlimit: 4; fill: rgb(0,0,0); fill-rule: nonzero; opacity: 1;" vector-effect="non-scaling-stroke"  transform=" translate(-200.49, -103.32)" d="M 171.34 86.07 C 173.66986826442124 81.36260856326936 177.27289226981773 77.40274660349225 181.74 74.63999999999999 C 186.1686255377689 71.96469019044557 191.2563818087299 70.57932428957122 196.43 70.63999999999999 C 200.73716515393053 70.54430699071897 204.99985893374455 71.52747668509541 208.83 73.49999999999999 C 212.17030255454202 75.23623074636234 215.08104247886794 77.69601096410257 217.35000000000002 80.7 L 217.35000000000002 71.69999999999999 L 233.47000000000003 71.69999999999999 L 233.47000000000003 135 L 217.35 135 L 217.35 125.74 C 215.14075032292018 128.84568015130952 212.2190910710237 131.37641316527615 208.82999999999998 133.12 C 204.96509216647368 135.10732477849788 200.6648247657679 136.09731439592653 196.32 136 C 191.1673801192855 136.04933915518268 186.10824067438023 134.6232031388205 181.73999999999998 131.89 C 177.2697120156439 129.05229428058695 173.6705776000349 125.03441441854653 171.33999999999997 120.27999999999999 C 168.70803405573022 114.93837789262952 167.39468267216552 109.04372768806617 167.50999999999996 103.08999999999999 C 167.40165223518483 97.19144929702925 168.71535190049065 91.35354634572262 171.34 86.07 Z M 215.06 93.33 C 213.64650646790426 90.65860353868767 211.5078987152543 88.44027458942352 208.89000000000001 86.92999999999999 C 206.35312667302804 85.46065711862857 203.47165752398755 84.69111505846567 200.54000000000002 84.69999999999999 C 194.54063118163228 84.62669747120553 189.0044664679558 87.91596688267859 186.20000000000002 93.21999999999998 C 184.5758481217552 96.25807714304575 183.769471391809 99.66622494610893 183.86 103.10999999999999 C 183.77798801862855 106.58797673105458 184.58330908432563 110.02951974685412 186.20000000000002 113.10999999999999 C 187.62111632648657 115.82607080778523 189.75827282053712 118.10155458300407 192.38000000000002 119.68999999999998 C 194.83862512478413 121.18582084522426 197.66210231273539 121.97473358891652 200.54000000000002 121.96999999999998 C 203.47234296050834 121.98418884488385 206.3551768785841 121.21428230149355 208.89000000000001 119.73999999999998 C 211.5099288532695 118.23232395760589 213.64917754370327 116.01333017822564 215.06 113.33999999999997 C 216.66102458837898 110.255540960436 217.44918182379772 106.81380630795242 217.35 103.33999999999999 C 217.44956441850277 99.8629605713124 216.66143367926426 96.41790000372389 215.06 93.33 Z" stroke-linecap="round" />
</g>
<g transform="matrix(1 0 0 1 261.72 585.45)"  >
<path style="stroke: none; stroke-width: 1; stroke-dasharray: none; stroke-linecap: butt; stroke-dashoffset: 0; stroke-linejoin: miter; stroke-miterlimit: 4; fill: rgb(0,0,0); fill-rule: nonzero; opacity: 1;" vector-effect="non-scaling-stroke"  transform=" translate(-261.69, -92.7)" d="M 269.69 50.41 L 269.69 135 L 253.69 135 L 253.69 50.41 Z" stroke-linecap="round" />
</g>
<g transform="matrix(1 0 0 1 312.96 596.09)"  >
<path style="stroke: none; stroke-width: 1; stroke-dasharray: none; stroke-linecap: butt; stroke-dashoffset: 0; stroke-linejoin: miter; stroke-miterlimit: 4; fill: rgb(0,0,0); fill-rule: nonzero; opacity: 1;" vector-effect="non-scaling-stroke"  transform=" translate(-312.93, -103.34)" d="M 300.33 133.22 C 296.4792552860003 131.56002216956418 293.1163061802326 128.94401262976533 290.56 125.62 C 288.20497152370734 122.55796281187253 286.82834512811894 118.85675462930321 286.61 115 L 302.73 115 C 303.02733171640716 117.43537817273986 304.333470995319 119.63404595890803 306.33000000000004 121.06 C 308.5964494578234 122.71655025650276 311.3545483058753 123.56194453943054 314.16 123.46000000000001 C 316.67207507951923 123.6040443709755 319.1669083562039 122.96461231266557 321.3 121.63000000000001 C 322.907342555634 120.61372529178068 323.87839141502445 118.84165558339888 323.87 116.94000000000001 C 323.88093780480915 114.89838356545185 322.6323285824279 113.06125789430487 320.73 112.32000000000001 C 317.5058311841152 110.89300778140814 314.15875852457003 109.76169722248186 310.73 108.94 C 306.7802607800085 108.0393977493316 302.9002846126456 106.85635592052324 299.12 105.39999999999999 C 296.12079172960335 104.17910961191963 293.4567958688813 102.25911259518298 291.35 99.80000000000001 C 289.18 97.29 288.1 93.89000000000001 288.1 89.63000000000001 C 288.0637281627422 86.19386892393021 289.11366631111133 82.83406684914904 291.1 80.03000000000002 C 293.30124271092814 76.9826930764288 296.3065284068074 74.60754792968554 299.78000000000003 73.17000000000002 C 303.99350288399796 71.40304554811593 308.5322241093419 70.54436855953735 313.1 70.65000000000002 Q 324.41 70.65000000000002 331.16 76.31000000000002 Q 337.91 81.97000000000001 338.59000000000003 91.57000000000002 L 323.3 91.57000000000002 C 323.1526861617494 89.21489524630306 322.01107380923287 87.03347036888297 320.16 85.57000000000002 C 317.9941850819645 83.98721295050512 315.3488545999146 83.19961789376664 312.67 83.34000000000002 C 310.3306405965275 83.1977067492835 308.00184096773677 83.75466929129622 305.98 84.94000000000001 C 304.46911179225816 85.91094543732011 303.58029240599234 87.60501999404899 303.64000000000004 89.4 C 303.6318935789374 91.51622136748438 304.8928000896206 93.43122313058448 306.84000000000003 94.26 C 310.046226094928 95.73016082569075 313.3979262712336 96.85968378510574 316.84 97.63000000000001 C 320.6888185509136 98.54160904415804 324.4682671131173 99.72456641906531 328.15 101.17 C 331.14120793490525 102.40811522757555 333.7894900249676 104.3497313713259 335.87000000000006 106.83000000000001 C 338.0400000000001 109.38000000000001 339.1600000000001 112.76000000000002 339.24000000000007 116.94000000000001 C 339.2948064883331 120.45008158603511 338.24539098892296 123.88866637243568 336.24000000000007 126.77000000000001 C 334.04500902482863 129.81316682444114 331.0316687070954 132.1711316300322 327.55000000000007 133.57000000000002 C 323.3662212830085 135.28980689148887 318.8724191649846 136.1272881953024 314.3500000000001 136.03000000000003 C 309.52835557427596 136.11925254097326 304.7448253957138 135.16049934541266 300.33 133.22 Z" stroke-linecap="round" />
</g>
<g transform="matrix(1 0 0 1 41.02 585.42)"  >
<path style="stroke: none; stroke-width: 1; stroke-dasharray: none; stroke-linecap: butt; stroke-dashoffset: 0; stroke-linejoin: miter; stroke-miterlimit: 4; fill: rgb(0,0,0); fill-rule: nonzero; opacity: 1;" vector-effect="non-scaling-stroke"  transform=" translate(-40.99, -92.68)" d="M 65.06 92.68 L 44.72 92.68 L 63.15 111.11000000000001 C 58.30582084138483 117.37892365425662 50.77037152751521 120.97218224333338 42.849999999999994 120.79000000000002 C 30.009465603881804 120.79999596760551 18.794340860072722 112.10754354606476 15.601166941518006 99.67037892453126 C 12.40799302296329 87.23321430299775 18.048550007127005 74.2131578888208 29.305748845805404 68.03619279229319 C 40.5629476844838 61.859227695765576 54.57494308569636 64.09568404372912 63.34999999999998 73.47000000000001 L 73.71 63.79000000000003 C 61.849571214538145 51.101286207861364 43.43800354723277 46.95229168519519 27.28157702705721 53.327486644723095 C 11.125150506881653 59.70268160425099 0.5077868915509498 75.30625713605556 0.5077868915509498 92.67500000000003 C 0.5077868915509498 110.0437428639445 11.125150506881653 125.64731839574908 27.281577027057217 132.02251335527697 C 43.43800354723278 138.39770831480487 61.84957121453815 134.2487137921387 73.71 121.56000000000003 C 77.01540687426365 118.11138954594936 79.64724647637442 114.07544994992895 81.47 109.66000000000001 Z M 63.92 110.48 C 63.870000000000005 110.48 63.870000000000005 110.33 63.92 110.07000000000001 C 64.08 110 64 110.33 63.92 110.48 Z" stroke-linecap="round" />
</g>
<g transform="matrix(1 0 0 1 60.82 603.02)"  >
<path style="stroke: none; stroke-width: 1; stroke-dasharray: none; stroke-linecap: butt; stroke-dashoffset: 0; stroke-linejoin: miter; stroke-miterlimit: 4; fill: rgb(0,0,0); fill-rule: nonzero; opacity: 1;" vector-effect="non-scaling-stroke"  transform=" translate(-60.79, -110.27)" d="M 60.77 110.48 C 60.720000000000006 110.48 60.720000000000006 110.33 60.77 110.07000000000001 C 60.93 110 60.82 110.33 60.77 110.48 Z" stroke-linecap="round" />
</g>
<g transform="matrix(1 0 0 1 421 589.16)"  >
<path style="stroke: none; stroke-width: 1; stroke-dasharray: none; stroke-linecap: butt; stroke-dashoffset: 0; stroke-linejoin: miter; stroke-miterlimit: 4; fill: rgb(0,0,0); fill-rule: nonzero; opacity: 1;" vector-effect="non-scaling-stroke"  transform=" translate(-420.97, -96.41)" d="M 438.35 118.31 L 403.61 118.31 L 397.21 136 L 386.21 136 L 415 56.82 L 427 56.82 L 455.73 136 L 444.73 136 Z M 435.35 109.85 L 421 69.62 L 406.6 109.85 Z" stroke-linecap="round" />
</g>
<g transform="matrix(1 0 0 1 498.72 597.48)"  >
<path style="stroke: none; stroke-width: 1; stroke-dasharray: none; stroke-linecap: butt; stroke-dashoffset: 0; stroke-linejoin: miter; stroke-miterlimit: 4; fill: rgb(0,0,0); fill-rule: nonzero; opacity: 1;" vector-effect="non-scaling-stroke"  transform=" translate(-498.69, -104.73)" d="M 472.87 87.63 C 475.3259242605624 82.92596817309803 479.0724355998034 79.0198832027412 483.67 76.37 C 488.49442421420537 73.64605836332146 493.9606983321032 72.26481411369473 499.5 72.36999999999999 Q 511.05 72.36999999999999 518.5 77.97999999999999 C 523.5541557162044 81.8058280321012 527.0643172995917 87.32128920559347 528.39 93.51999999999997 L 517.1899999999999 93.51999999999998 C 516.2297260603262 89.88375300187383 514.0252589633458 86.69912958729533 510.9599999999999 84.51999999999998 C 507.57875944645656 82.2243303806793 503.5543431365797 81.06499026007945 499.4699999999999 81.20999999999998 C 494.00141347222234 81.01038192389204 488.7263742338626 83.24861037850161 485.06999999999994 87.32 Q 479.5799999999999 93.43999999999998 479.5799999999999 104.63999999999999 Q 479.5799999999999 115.83999999999999 485.06999999999994 122.11999999999999 C 488.7040309577995 126.23014195847641 493.9872606669935 128.49752804200554 499.4699999999999 128.29999999999998 C 503.5200364607329 128.4476465885466 507.51536763836606 127.32909367792314 510.8999999999999 125.09999999999997 C 514.0003619161123 122.88201431711892 516.2258804003576 119.64811305384349 517.1899999999999 115.95999999999998 L 528.39 115.95999999999998 C 526.8946809329622 122.0810038458084 523.3434375940881 127.50318055406949 518.33 131.32 Q 510.79 137.10999999999999 499.47 137.1 C 493.93069833210325 137.20518588630526 488.4644242142054 135.8239416366785 483.64000000000004 133.1 C 479.0357878246416 130.4361950489264 475.2886787997393 126.51213920895928 472.84000000000003 121.78999999999999 C 470.1595308192888 116.46522670274678 468.8402189266159 110.55924455820295 469 104.6 C 468.85757209977515 98.70940877154841 470.1877796213552 92.87643160327625 472.87 87.63 Z" stroke-linecap="round" />
</g>
<g transform="matrix(1 0 0 1 574.73 597.46)"  >
<path style="stroke: none; stroke-width: 1; stroke-dasharray: none; stroke-linecap: butt; stroke-dashoffset: 0; stroke-linejoin: miter; stroke-miterlimit: 4; fill: rgb(0,0,0); fill-rule: nonzero; opacity: 1;" vector-effect="non-scaling-stroke"  transform=" translate(-574.7, -104.71)" d="M 546.82 87.63 C 549.255557880592 82.9475014143324 552.9602208001775 79.04530267957733 557.5100000000001 76.36999999999999 C 562.0997168167096 73.68637088391435 567.3337090415597 72.30354598963426 572.6500000000001 72.36999999999999 C 577.6457181638739 72.24842834671409 582.5819543732684 73.47471515870502 586.94 75.91999999999999 C 590.6992269725712 78.01440878505181 593.8121108381592 81.09962257183463 595.94 84.83999999999999 L 595.94 73.4 L 606.45 73.4 L 606.45 136 L 596 136 L 596 124.37 C 593.8005317648067 128.1675321785161 590.6237126636356 131.30636757304276 586.8 133.46 C 582.4696891052896 135.92523427103282 577.5516661750619 137.16942840657882 572.5699999999999 137.06 C 567.2532304323354 137.12843223995495 562.0243117053069 135.70078842581597 557.4799999999999 132.94 C 552.935275115463 130.15328381677352 549.2548795924384 126.15782150861695 546.8499999999999 121.4 C 544.191694539075 116.16564309382939 542.8561050776457 110.35977733733303 542.9599999999999 104.49000000000004 C 542.8222859492287 98.63621896207606 544.1491207036685 92.8407697496786 546.82 87.63000000000001 Z M 593.11 92.25 C 591.3451769004954 88.89456491665257 588.6738325628006 86.10195332627389 585.4 84.19 C 578.775043657343 80.48953802741948 570.7049563426569 80.48953802741948 564.0799999999999 84.19 C 560.8244633170824 86.08238341725333 558.1693024864279 88.85539733960788 556.42 92.19000000000001 C 554.4381887043901 95.99877932495396 553.4542104640344 100.24777627194435 553.56 104.53999999999999 C 553.4614797696835 108.86663093594392 554.4445280823064 113.14942183639225 556.42 117.00000000000001 C 558.1647875987238 120.36899900191284 560.8183595119336 123.18192379763924 564.0799999999999 125.12 C 567.3083616784276 126.98803781370736 570.9803704909277 127.95181058763735 574.7099999999999 127.91000000000001 C 578.4578268857188 127.94547328010097 582.1475262824304 126.98249280144566 585.4 125.12 C 588.685530879988 123.19609926165637 591.3587563662197 120.38071781571585 593.11 116.99999999999999 C 595.090916087791 113.17182575585088 596.0843116829358 108.9095055552298 596 104.6 C 596.0891655499155 100.30594999358841 595.0952556252213 96.05861865449698 593.11 92.25 Z" stroke-linecap="round" />
</g>
<g transform="matrix(1 0 0 1 656.57 587.01)"  >
<path style="stroke: none; stroke-width: 1; stroke-dasharray: none; stroke-linecap: butt; stroke-dashoffset: 0; stroke-linejoin: miter; stroke-miterlimit: 4; fill: rgb(0,0,0); fill-rule: nonzero; opacity: 1;" vector-effect="non-scaling-stroke"  transform=" translate(-656.54, -94.26)" d="M 628.66 87.63 C 631.0915118911647 82.94788542059575 634.7928928462214 79.04549314026443 639.3399999999999 76.36999999999999 C 643.9692286001482 73.67608755674762 649.2445317613149 72.29330822223473 654.5999999999999 72.36999999999999 C 659.3450083968937 72.33868133172257 664.0217222647356 73.50098227828911 668.1999999999999 75.74999999999999 C 672.1517022564598 77.76744581105686 675.4727147179844 80.8324635620057 677.8 84.60999999999997 L 677.8 51.45 L 688.3199999999999 51.45 L 688.3199999999999 136 L 677.8 136 L 677.8 124.26 C 675.643409726438 128.0983306410619 672.4841378975464 131.2783416723314 668.66 133.46 C 664.3535368851535 135.93023368257846 659.4533067163553 137.17517571558295 654.49 137.06 C 643.5942579116962 137.20717801226348 633.5682723729698 131.12870594348854 628.66 121.4 C 625.9970606187809 116.16732526006749 624.6612019149261 110.36028909498157 624.77 104.49000000000001 C 624.6351579461724 98.63300543727283 625.9726964868095 92.83585896037248 628.66 87.63 Z M 675 92.25 C 673.23158221532 88.8938644760883 670.5568506347406 86.10133383626055 667.28 84.19 C 660.6586434716463 80.48938280569028 652.5913565283537 80.48938280569028 645.97 84.19000000000001 C 642.7113997363405 86.0784885590679 640.0552783320851 88.85250569144947 638.3100000000001 92.19 C 636.3281887043902 95.99877932495396 635.3442104640345 100.24777627194435 635.45 104.53999999999999 C 635.3360272401761 108.86237612311584 636.3018371481386 113.14493535913421 638.26 117 C 640.0016976893887 120.37119007423087 642.6559921664194 123.18488082533914 645.92 125.12 C 649.1483616784276 126.98803781370736 652.8203704909278 127.95181058763735 656.55 127.91000000000001 C 660.2946810484706 127.94562346897143 663.9811961639077 126.98257317196118 667.2299999999999 125.12 C 670.5366512831596 123.20370292002931 673.2311582729945 120.38782174146306 675 117 C 676.9670577857921 113.1682270571194 677.9466606438343 108.90609532388345 677.85 104.6 C 677.9515007996911 100.3093895051897 676.9713918345268 96.06225065614467 675 92.25 Z" stroke-linecap="round" />
</g>
<g transform="matrix(1 0 0 1 737.12 597.45)"  >
<path style="stroke: none; stroke-width: 1; stroke-dasharray: none; stroke-linecap: butt; stroke-dashoffset: 0; stroke-linejoin: miter; stroke-miterlimit: 4; fill: rgb(0,0,0); fill-rule: nonzero; opacity: 1;" vector-effect="non-scaling-stroke"  transform=" translate(-737.09, -104.7)" d="M 767.3 108.6 L 717.24 108.6 Q 717.8100000000001 117.85 723.58 123.06 C 727.4083412769526 126.52257846703101 732.4195446244906 128.38388256754516 737.58 128.26 C 741.5679177327282 128.40447173443104 745.5023301188025 127.30730877774602 748.84 125.11999999999999 C 751.807143852131 123.07599335493353 754.0316782603112 120.12515197121189 755.1800000000001 116.71 L 766.3800000000001 116.71 C 764.79503116351 122.60832125771789 761.246499314779 127.79002432509931 756.3200000000002 131.4 Q 748.7700000000002 137.05 737.5800000000002 137.06 C 731.9869987685199 137.16312610771442 726.4664711535584 135.78299420397403 721.5800000000002 133.06 C 716.9052793407138 130.39050940807206 713.0892492196556 126.44265279192268 710.5800000000002 121.68 C 707.8258249631467 116.4157622483391 706.4497111411486 110.53975622840683 706.5800000000002 104.60000000000002 C 706.4503599989381 98.69994524753028 707.7833423662979 92.85955858641765 710.4600000000002 87.60000000000001 C 712.9177467056921 82.85752852677199 716.7150893076368 78.94195364601221 721.3800000000001 76.34000000000002 C 726.3299666605647 73.62196833891268 731.9037187523226 72.24317994268314 737.5500000000001 72.34 C 743.056652035477 72.23298082380255 748.4948022068097 73.5744141888301 753.32 76.22999999999999 C 757.7903473606542 78.7162127260841 761.4601567490498 82.42417703250644 763.9000000000001 86.91999999999999 C 766.4191543337588 91.64616491997089 767.6957834548639 96.93505699312026 767.6100000000001 102.29 C 767.6159608959224 104.39728136995302 767.5124882357165 106.5034506793034 767.3 108.59999999999998 Z M 754.3 89.91 C 752.5904200937043 87.09911413387142 750.108416443054 84.83927584495768 747.15 83.39999999999999 C 744.0362618827096 81.88676992814267 740.6116511942644 81.12308174461938 737.15 81.16999999999999 C 732.1970225778515 81.04821220679021 727.3874365544759 82.83882502264112 723.72 86.16999999999999 Q 718.1800000000001 91.16999999999999 717.38 100.10999999999999 L 756.9 100.10999999999999 C 756.9903116308436 96.53142439525698 756.0794330672474 92.99873947180384 754.27 89.91 Z" stroke-linecap="round" />
</g>
<g transform="matrix(1 0 0 1 836.3 596.86)"  >
<path style="stroke: none; stroke-width: 1; stroke-dasharray: none; stroke-linecap: butt; stroke-dashoffset: 0; stroke-linejoin: miter; stroke-miterlimit: 4; fill: rgb(0,0,0); fill-rule: nonzero; opacity: 1;" vector-effect="non-scaling-stroke"  transform=" translate(-836.27, -104.11)" d="M 874.28 75.28 C 878.1192488542235 77.34483783893943 881.2534649112976 80.51039605658421 883.28 84.36999999999999 C 885.6135965905517 88.92415525149265 886.7557734728422 93.99514538551767 886.6 99.10999999999999 L 886.6 136 L 876.34 136 L 876.34 100.6 Q 876.34 91.22999999999999 871.71 86.25 Q 867.08 81.27000000000001 859.19 81.25 Q 851.07 81.25 846.2800000000001 86.45 Q 841.4900000000001 91.65 841.4800000000001 101.45 L 841.4800000000001 136 L 831.19 136 L 831.19 100.6 Q 831.19 91.22999999999999 826.5600000000001 86.25 Q 821.9300000000001 81.27000000000001 814.0500000000001 81.25 Q 805.9200000000001 81.25 801.1300000000001 86.45 Q 796.3400000000001 91.65 796.3300000000002 101.45 L 796.3300000000002 136 L 785.9300000000002 136 L 785.9300000000002 73.4 L 796.3300000000002 73.4 L 796.3300000000002 82.4 C 798.3455234741925 79.17059457869338 801.2145034886349 76.56117246664317 804.6200000000001 74.86 C 808.183663741288 73.08453498186411 812.1188233479793 72.18301322527891 816.1000000000001 72.23 C 820.9847108616547 72.13663831105015 825.8041064726283 73.36307948803629 830.0500000000002 75.77999999999999 C 834.1001829836764 78.17685214310694 837.2595170683393 81.82763819649519 839.0500000000002 86.18000000000002 C 840.7044002586443 81.8687757980808 843.7665789593312 78.24278974168638 847.7400000000002 75.89000000000001 C 851.8053133502514 73.43963666072739 856.4736642877265 72.17211704417258 861.2200000000003 72.23000000000002 C 865.7588629384032 72.14827333861358 870.246826467077 73.19638120710172 874.28 75.28 Z" stroke-linecap="round" />
</g>
<g transform="matrix(1 0 0 1 931.52 612.21)"  >
<path style="stroke: none; stroke-width: 1; stroke-dasharray: none; stroke-linecap: butt; stroke-dashoffset: 0; stroke-linejoin: miter; stroke-miterlimit: 4; fill: rgb(0,0,0); fill-rule: nonzero; opacity: 1;" vector-effect="non-scaling-stroke"  transform=" translate(-931.49, -119.46)" d="M 962.18 73.4 L 924.4599999999999 165.52 L 913.71 165.52 L 926.0600000000001 135.34 L 900.8 73.4 L 912.3399999999999 73.4 L 932 124.14 L 951.43 73.4 Z" stroke-linecap="round" />
</g>
<g transform="matrix(1 0 0 1 60.82 603.02)"  >
<path style="stroke: none; stroke-width: 1; stroke-dasharray: none; stroke-linecap: butt; stroke-dashoffset: 0; stroke-linejoin: miter; stroke-miterlimit: 4; fill: rgb(0,0,0); fill-rule: nonzero; opacity: 1;" vector-effect="non-scaling-stroke"  transform=" translate(-60.79, -110.27)" d="M 60.77 110.48 C 60.720000000000006 110.48 60.720000000000006 110.33 60.77 110.07000000000001 C 60.93 110 60.82 110.33 60.77 110.48 Z" stroke-linecap="round" />
</g>
<g transform="matrix(1 0 0 1 1064.06 504.63)"  >
<path style="stroke: rgb(255,136,84); stroke-width: 1; stroke-dasharray: none; stroke-linecap: butt; stroke-dashoffset: 0; stroke-linejoin: miter; stroke-miterlimit: 4; fill: rgb(255,136,84); fill-rule: nonzero; opacity: 1;" vector-effect="non-scaling-stroke"  transform=" translate(-1064.03, -11.88)" d="M 1078.93 8.4 L 1073.73 20.189999999999998 C 1072.770935203985 22.35518036966242 1070.6280734550346 23.753720852980898 1068.26 23.759999999999998 L 1054.6 23.759999999999998 C 1052.579481146364 23.753575526818437 1050.6978858488449 22.73062315008083 1049.5938901192358 21.038366922212834 C 1048.4898943896267 19.346110694344837 1048.3117781594333 17.211841021304036 1049.12 15.359999999999998 L 1054.31 3.5699999999999985 C 1055.2705387086912 1.4015115496299457 1057.418297799328 0.002332725985069839 1059.79 0 L 1073.45 0 C 1075.470518853636 0.006424473181559376 1077.352114151155 1.0293768499191678 1078.4561098807642 2.7216330777871653 C 1079.5601056103733 4.413889305655163 1079.7382218405667 6.548158978695961 1078.93 8.4 Z" stroke-linecap="round" />
</g>
<g transform="matrix(1 0 0 1 1000.29 546.89)"  >
<path style="stroke: rgb(255,136,84); stroke-width: 1; stroke-dasharray: none; stroke-linecap: butt; stroke-dashoffset: 0; stroke-linejoin: miter; stroke-miterlimit: 4; fill: rgb(255,136,84); fill-rule: nonzero; opacity: 1;" vector-effect="non-scaling-stroke"  transform=" translate(-1000.26, -54.14)" d="M 1037.81 32.17 L 1016.31 81 C 1015.3525521775534 83.1829500341311 1013.1936889013741 84.59209897258268 1010.81 84.59 L 997.16 84.59 C 995.141256670718 84.58022239828406 993.2627551498765 83.5559086238284 992.1611352647877 81.86420715495365 C 991.0595153796991 80.17250568607889 990.8824695186275 78.04022019032067 991.6899999999999 76.19 L 996.2099999999999 65.88 C 1003.29 50.76 993.42 45.519999999999996 982.92 45.519999999999996 L 967.66 45.519999999999996 C 965.8030675318937 45.523287222437716 964.071278710928 44.58427758245395 963.0609047644143 43.02628095692977 C 962.0505308179005 41.468284331405584 961.8995701715733 39.50409429282358 962.66 37.809999999999995 L 967.4 27 C 968.2678334682398 25.00697754237499 970.2263268321091 23.710454935493544 972.4 23.69 L 1032.4 23.69 C 1034.4299373639678 23.708057341618684 1036.3130855611514 24.751322160047685 1037.4049103906912 26.462722262542552 C 1038.496735220231 28.17412236503742 1038.6491542862918 30.321543386222757 1037.81 32.17 Z" stroke-linecap="round" />
</g>
<g transform="matrix(NaN NaN NaN NaN 0 0)"  >
<g style=""   >
</g>
</g>
<g transform="matrix(NaN NaN NaN NaN 0 0)"  >
<g style=""   >
</g>
</g>
<g transform="matrix(NaN NaN NaN NaN 0 0)"  >
<g style=""   >
</g>
</g>
<g transform="matrix(NaN NaN NaN NaN 0 0)"  >
<g style=""   >
</g>
</g>
</svg>