<svg width="360" height="532" viewBox="0 0 360 532" fill="none" xmlns="http://www.w3.org/2000/svg">
<mask id="mask0_1192_3" style="mask-type:luminance" maskUnits="userSpaceOnUse" x="96" y="143" width="160" height="75">
<path d="M96 148.832L253.196 143.568L255.503 212.468L98.3073 217.732L96 148.832Z" fill="white"/>
</mask>
<g mask="url(#mask0_1192_3)">
<path d="M98.5561 204.752L252.934 143.603L135.791 215.802L98.5561 204.752Z" fill="#FF8854"/>
</g>
<mask id="mask1_1192_3" style="mask-type:luminance" maskUnits="userSpaceOnUse" x="142" y="143" width="115" height="112">
<path d="M142.61 146.702L253.177 143L256.771 250.326L146.204 254.028L142.61 146.702Z" fill="white"/>
</mask>
<g mask="url(#mask1_1192_3)">
<path d="M145.913 222.741L253.158 143.448L202.369 251.777L145.913 222.741Z" fill="#FF8854"/>
</g>
<mask id="mask2_1192_3" style="mask-type:luminance" maskUnits="userSpaceOnUse" x="131" y="143" width="126" height="104">
<path d="M131.943 147.628L253.196 143.568L256.492 241.997L135.239 246.057L131.943 147.628Z" fill="white"/>
</mask>
<g mask="url(#mask2_1192_3)">
<path d="M135.007 215.061L149.416 245.571L151.21 221.421L252.935 143.603L135.007 215.061Z" fill="#F47A45"/>
</g>
<path d="M151.209 221.4L149.415 245.556L164.454 229.732L151.209 221.4Z" fill="#F17742"/>
<mask id="mask3_1192_3" style="mask-type:luminance" maskUnits="userSpaceOnUse" x="-296" y="218" width="440" height="61">
<path d="M-296 232.662L141.85 218L143.388 263.935L-294.462 278.597L-296 232.662Z" fill="white"/>
</mask>
<g mask="url(#mask3_1192_3)">
<path d="M-59.1876 227.292C-58.4357 227.266 -57.815 226.782 -57.7926 226.214C-57.7631 225.615 -58.3871 225.135 -59.1813 225.134C-62.2058 225.098 -65.228 225.134 -68.684 225.181C-69.4772 225.207 -70.1184 225.699 -70.1066 226.297C-70.1073 226.894 -69.4543 227.374 -68.6611 227.347C-65.2341 227.298 -62.2531 227.267 -59.2702 227.294C-59.2372 227.293 -59.2206 227.293 -59.1876 227.292ZM-92.2206 228.666C-92.1793 228.664 -92.1297 228.663 -92.0884 228.661C-88.9967 228.355 -85.853 228.122 -82.7497 227.916C-81.9575 227.858 -81.3586 227.34 -81.4075 226.744C-81.4568 226.138 -82.1373 225.7 -82.9296 225.754C-86.0865 225.966 -89.2662 226.238 -92.4076 226.542C-93.2038 226.6 -93.7601 227.157 -93.6822 227.752C-93.5931 228.316 -92.9519 228.69 -92.2206 228.666ZM-35.6747 228.534C-35.0013 228.512 -34.4062 228.125 -34.2959 227.591C-34.1744 227.021 -34.7097 226.472 -35.4898 226.398C-38.582 226.069 -41.7629 225.811 -44.9375 225.619C-45.7257 225.549 -46.4259 226.005 -46.5174 226.606C-46.5967 227.203 -46.0212 227.716 -45.2258 227.755C-42.0966 227.949 -38.9776 228.212 -35.936 228.512C-35.844 228.54 -35.7655 228.537 -35.6747 228.534ZM-115.49 231.976C-115.403 231.973 -115.3 231.97 -115.201 231.967C-112.159 231.395 -109.067 230.858 -106.01 230.388C-105.235 230.303 -104.721 229.719 -104.861 229.126C-104.996 228.564 -105.757 228.185 -106.527 228.279C-109.626 228.747 -112.76 229.285 -115.851 229.859C-116.619 230.012 -117.108 230.595 -116.928 231.159C-116.774 231.683 -116.155 231.999 -115.49 231.976ZM-12.6888 232.192C-12.0898 232.172 -11.5453 231.883 -11.35 231.416C-11.1128 230.841 -11.5377 230.258 -12.2922 230.08C-15.2964 229.418 -18.3852 228.821 -21.476 228.289C-22.2458 228.15 -23.0308 228.544 -23.2185 229.117C-23.4102 229.69 -22.9316 230.272 -22.1618 230.411C-19.1342 230.907 -16.0908 231.506 -13.1443 232.177C-12.9945 232.203 -12.8375 232.197 -12.6888 232.192ZM-138.191 237.192C-138.055 237.188 -137.902 237.183 -137.767 237.15C-134.714 236.307 -131.786 235.545 -128.815 234.848C-128.056 234.658 -127.63 234.049 -127.856 233.486C-128.085 232.927 -128.881 232.627 -129.641 232.777C-132.64 233.513 -135.605 234.278 -138.691 235.113C-139.437 235.3 -139.847 235.921 -139.588 236.47C-139.374 236.933 -138.798 237.213 -138.191 237.192ZM-160.217 243.921C-160.027 243.914 -159.85 243.877 -159.663 243.802C-156.953 242.846 -154.039 241.92 -151.01 240.981C-150.273 240.757 -149.905 240.116 -150.193 239.559C-150.479 239.039 -151.312 238.759 -152.048 238.986C-155.119 239.926 -158.069 240.891 -160.833 241.843C-161.548 242.103 -161.886 242.743 -161.557 243.299C-161.317 243.696 -160.771 243.939 -160.217 243.921ZM9.05603 238.685C9.53939 238.669 10.0214 238.488 10.2693 238.112C10.6575 237.601 10.408 236.943 9.71225 236.667C6.94859 235.53 4.13251 234.556 1.13074 233.595C0.408109 233.382 -0.439151 233.647 -0.760107 234.191C-1.06877 234.73 -0.740873 235.382 -0.00574743 235.598C2.90823 236.531 5.63217 237.47 8.32434 238.573C8.55511 238.671 8.80402 238.693 9.05603 238.685ZM-180.971 252.565C-180.723 252.557 -180.476 252.52 -180.244 252.407C-177.347 250.98 -174.802 249.799 -172.213 248.682C-171.52 248.391 -171.274 247.716 -171.659 247.2C-172.053 246.683 -172.923 246.51 -173.62 246.795C-176.245 247.951 -178.839 249.171 -181.786 250.599C-182.449 250.921 -182.654 251.591 -182.219 252.109C-181.943 252.436 -181.459 252.581 -180.971 252.565ZM29.0512 247.765C29.5304 247.748 30.0001 247.571 30.2574 247.226C30.6579 246.711 30.425 246.056 29.7403 245.742C26.7162 244.483 24.132 243.271 21.795 242.154C21.131 241.84 20.2391 242.007 19.8083 242.482C19.3707 242.998 19.5581 243.655 20.219 244C22.5934 245.122 25.2145 246.327 28.2939 247.628C28.5335 247.745 28.795 247.773 29.0512 247.765ZM-201.061 262.162C-200.842 262.154 -200.628 262.11 -200.421 262.006C-197.675 260.884 -195.05 259.728 -192.152 258.332C-191.488 258.011 -191.271 257.338 -191.697 256.854C-192.111 256.335 -192.988 256.203 -193.664 256.524C-196.501 257.88 -199.077 259.034 -201.766 260.118C-202.463 260.409 -202.726 261.081 -202.361 261.601C-202.101 261.957 -201.589 262.179 -201.061 262.162ZM50.3156 255.101C50.8816 255.083 51.3975 254.804 51.6113 254.395C51.9104 253.818 51.5548 253.201 50.8117 252.996C47.7799 252.126 44.8765 251.261 42.192 250.388C41.4682 250.142 40.6126 250.404 40.2917 250.95C39.9624 251.491 40.2811 252.115 40.9963 252.353C43.7317 253.264 46.6736 254.165 49.7546 255.024C49.9346 255.086 50.1379 255.107 50.3156 255.101ZM-222.751 269.405C-222.61 269.4 -222.462 269.395 -222.326 269.363C-219.31 268.53 -216.308 267.66 -213.394 266.735C-212.658 266.476 -212.31 265.861 -212.606 265.31C-212.906 264.753 -213.737 264.514 -214.478 264.738C-217.338 265.665 -220.291 266.533 -223.246 267.326C-223.997 267.522 -224.402 268.131 -224.147 268.72C-223.942 269.146 -223.366 269.426 -222.751 269.405ZM72.4863 260.848C73.0853 260.828 73.6425 260.548 73.8251 260.071C74.0625 259.503 73.6374 258.913 72.875 258.746C70.163 258.164 67.2653 257.47 64.0063 256.608C63.2521 256.44 62.4304 256.729 62.1591 257.274C61.8887 257.843 62.2694 258.466 63.0207 258.671C66.3208 259.526 69.2642 260.224 72.0309 260.835C72.1806 260.858 72.3375 260.853 72.4863 260.848ZM132.787 259.464C132.936 259.459 133.075 259.423 133.223 259.381C136.206 258.549 139.198 257.621 142.115 256.555C142.831 256.297 143.148 255.661 142.825 255.133C142.496 254.583 141.645 254.375 140.918 254.636C138.089 255.628 135.175 256.554 132.278 257.354C131.533 257.579 131.136 258.19 131.39 258.748C131.604 259.205 132.18 259.484 132.787 259.464ZM-245.562 274.298C-245.483 274.295 -245.393 274.292 -245.314 274.289C-242.179 273.783 -239.055 273.214 -236.024 272.583C-235.256 272.424 -234.787 271.841 -234.985 271.25C-235.173 270.687 -235.962 270.349 -236.73 270.508C-239.713 271.11 -242.788 271.673 -245.873 272.181C-246.654 272.304 -247.16 272.888 -247.001 273.443C-246.863 273.977 -246.248 274.321 -245.562 274.298ZM95.6132 263.903C96.3486 263.879 96.9621 263.426 97.0134 262.857C97.0595 262.258 96.4602 261.776 95.673 261.737C92.5761 261.639 89.5658 261.413 86.4436 261.053C85.6624 260.945 84.9238 261.366 84.7816 261.937C84.6529 262.539 85.18 263.088 85.957 263.196C89.1701 263.553 92.2922 263.784 95.4769 263.908C95.5265 263.906 95.5637 263.905 95.6132 263.903ZM109.759 263.564C109.8 263.562 109.829 263.561 109.858 263.56C113.021 263.283 116.21 262.915 119.357 262.408C120.126 262.286 120.644 261.698 120.484 261.109C120.337 260.544 119.588 260.174 118.807 260.296C115.762 260.766 112.664 261.137 109.6 261.405C108.804 261.469 108.225 261.98 108.295 262.585C108.364 263.14 109.015 263.589 109.759 263.564ZM-268.94 277.076C-268.911 277.076 -268.882 277.075 -268.849 277.073C-265.677 276.83 -262.498 276.531 -259.395 276.187C-258.613 276.095 -258.055 275.585 -258.154 274.981C-258.252 274.386 -258.973 273.978 -259.764 274.073C-262.817 274.405 -265.947 274.681 -269.091 274.914C-269.887 274.978 -270.473 275.527 -270.403 276.123C-270.347 276.691 -269.696 277.102 -268.94 277.076ZM-283.129 277.851C-282.336 277.824 -281.687 277.338 -281.707 276.741C-281.727 276.138 -282.37 275.695 -283.163 275.722L-283.201 275.723C-286.27 275.826 -289.42 275.866 -292.562 275.903C-293.357 275.898 -293.998 276.384 -294.007 276.982C-294.016 277.586 -293.375 278.057 -292.589 278.068C-289.41 278.03 -286.228 277.954 -283.129 277.851Z" fill="#FF8854"/>
</g>
</svg>
