<svg width="1277" height="314" viewBox="0 0 1277 314" fill="none" xmlns="http://www.w3.org/2000/svg">
<path d="M998.018 254.166C998.573 254.147 999.115 254.049 999.617 253.767C1002.8 252.182 1005.98 250.45 1009.1 248.721C1010.47 247.965 1010.78 246.476 1009.78 245.521C1008.79 244.506 1006.88 244.279 1005.51 245.028C1002.47 246.754 999.367 248.417 996.249 250C994.827 250.678 994.451 252.09 995.36 253.193C995.974 253.889 996.98 254.2 998.018 254.166Z" fill="#FF8854"/>
<mask id="mask0_1641_128" style="mask-type:luminance" maskUnits="userSpaceOnUse" x="35" y="184" width="937" height="130">
<path d="M35.9292 215.922L968.549 184.691L971.826 282.533L39.2056 313.764L35.9292 215.922Z" fill="white"/>
</mask>
<g mask="url(#mask0_1641_128)">
<path d="M540.339 204.483C541.941 204.429 543.263 203.397 543.311 202.188C543.374 200.912 542.044 199.889 540.353 199.886C533.911 199.81 527.473 199.886 520.112 199.987C518.423 200.043 517.057 201.091 517.082 202.363C517.08 203.637 518.471 204.658 520.161 204.601C527.46 204.496 533.81 204.429 540.163 204.489C540.234 204.486 540.269 204.485 540.339 204.483ZM469.979 207.409C470.067 207.406 470.173 207.403 470.261 207.4C476.846 206.748 483.542 206.252 490.152 205.812C491.84 205.689 493.115 204.585 493.011 203.315C492.906 202.025 491.457 201.092 489.769 201.209C483.045 201.659 476.272 202.237 469.581 202.886C467.885 203.009 466.7 204.196 466.866 205.464C467.056 206.665 468.422 207.461 469.979 207.409ZM590.422 207.13C591.856 207.082 593.124 206.257 593.359 205.121C593.618 203.906 592.477 202.737 590.816 202.58C584.229 201.879 577.454 201.33 570.692 200.919C569.013 200.77 567.522 201.742 567.327 203.022C567.158 204.294 568.384 205.387 570.078 205.47C576.743 205.883 583.387 206.443 589.865 207.082C590.061 207.142 590.228 207.136 590.422 207.13ZM420.415 214.461C420.6 214.455 420.82 214.447 421.031 214.44C427.509 213.222 434.096 212.079 440.608 211.079C442.258 210.897 443.353 209.654 443.055 208.39C442.768 207.193 441.147 206.385 439.506 206.586C432.906 207.583 426.231 208.728 419.647 209.95C418.011 210.277 416.969 211.519 417.353 212.72C417.681 213.836 418.998 214.508 420.415 214.461ZM639.382 214.921C640.658 214.879 641.818 214.263 642.234 213.267C642.739 212.043 641.834 210.8 640.227 210.423C633.828 209.012 627.248 207.74 620.665 206.608C619.025 206.311 617.353 207.15 616.954 208.37C616.545 209.591 617.565 210.83 619.204 211.127C625.653 212.184 632.136 213.459 638.412 214.887C638.731 214.943 639.065 214.932 639.382 214.921ZM372.062 225.571C372.352 225.561 372.678 225.55 372.966 225.481C379.469 223.685 385.705 222.063 392.033 220.578C393.649 220.172 394.557 218.875 394.077 217.677C393.588 216.487 391.892 215.847 390.273 216.167C383.886 217.734 377.571 219.364 370.997 221.143C369.407 221.541 368.535 222.864 369.086 224.032C369.541 225.019 370.768 225.614 372.062 225.571ZM325.147 239.902C325.551 239.889 325.928 239.81 326.327 239.651C332.1 237.614 338.306 235.641 344.758 233.641C346.328 233.164 347.11 231.798 346.498 230.612C345.888 229.505 344.115 228.908 342.546 229.391C336.006 231.394 329.723 233.448 323.836 235.476C322.312 236.031 321.592 237.395 322.292 238.579C322.805 239.424 323.967 239.942 325.147 239.902ZM685.698 228.751C686.728 228.716 687.755 228.33 688.283 227.53C689.11 226.441 688.578 225.039 687.096 224.452C681.209 222.03 675.211 219.956 668.817 217.908C667.278 217.456 665.474 218.02 664.79 219.177C664.133 220.327 664.831 221.716 666.397 222.174C672.604 224.162 678.406 226.163 684.14 228.511C684.631 228.72 685.162 228.768 685.698 228.751ZM280.94 258.315C281.468 258.297 281.994 258.22 282.488 257.978C288.659 254.939 294.081 252.423 299.595 250.043C301.072 249.423 301.596 247.986 300.776 246.886C299.937 245.787 298.084 245.418 296.597 246.025C291.007 248.487 285.482 251.086 279.206 254.128C277.793 254.812 277.356 256.24 278.283 257.343C278.87 258.039 279.902 258.35 280.94 258.315ZM728.288 248.09C729.309 248.056 730.309 247.677 730.857 246.943C731.71 245.846 731.214 244.45 729.756 243.783C723.314 241.1 717.81 238.519 712.832 236.139C711.418 235.47 709.518 235.825 708.601 236.838C707.669 237.937 708.068 239.336 709.475 240.071C714.533 242.462 720.116 245.028 726.675 247.799C727.185 248.047 727.742 248.108 728.288 248.09ZM238.15 278.756C238.616 278.74 239.071 278.645 239.513 278.425C245.362 276.034 250.953 273.572 257.126 270.599C258.539 269.915 259.002 268.481 258.095 267.45C257.212 266.345 255.344 266.063 253.905 266.748C247.861 269.636 242.376 272.095 236.648 274.402C235.162 275.022 234.602 276.454 235.379 277.562C235.933 278.319 237.024 278.793 238.15 278.756ZM773.581 263.718C774.787 263.677 775.886 263.083 776.341 262.212C776.978 260.984 776.221 259.67 774.638 259.232C768.18 257.379 761.996 255.537 756.278 253.679C754.736 253.153 752.914 253.712 752.23 254.875C751.529 256.026 752.208 257.357 753.731 257.863C759.558 259.803 765.824 261.722 772.386 263.552C772.77 263.685 773.203 263.73 773.581 263.718ZM191.95 294.184C192.249 294.174 192.566 294.164 192.854 294.094C199.279 292.32 205.674 290.468 211.88 288.496C213.448 287.946 214.188 286.635 213.558 285.462C212.92 284.276 211.149 283.765 209.571 284.243C203.479 286.217 197.189 288.066 190.894 289.756C189.296 290.174 188.432 291.47 188.976 292.725C189.412 293.632 190.639 294.228 191.95 294.184ZM820.805 275.958C822.081 275.915 823.268 275.318 823.656 274.304C824.162 273.093 823.257 271.837 821.633 271.48C815.856 270.241 809.684 268.763 802.742 266.926C801.136 266.569 799.386 267.184 798.808 268.344C798.232 269.557 799.043 270.883 800.643 271.32C807.672 273.141 813.942 274.629 819.835 275.931C820.154 275.98 820.488 275.968 820.805 275.958ZM949.245 273.01C949.562 272.999 949.859 272.923 950.173 272.833C956.527 271.061 962.901 269.084 969.115 266.813C970.638 266.265 971.315 264.909 970.625 263.785C969.926 262.614 968.114 262.171 966.564 262.727C960.539 264.839 954.332 266.811 948.161 268.516C946.574 268.994 945.728 270.296 946.27 271.484C946.725 272.457 947.952 273.053 949.245 273.01ZM143.362 304.606C143.529 304.6 143.723 304.593 143.89 304.588C150.567 303.509 157.222 302.298 163.678 300.954C165.314 300.614 166.312 299.374 165.891 298.114C165.49 296.914 163.809 296.194 162.173 296.534C155.82 297.815 149.271 299.016 142.7 300.098C141.035 300.359 139.958 301.602 140.297 302.785C140.591 303.922 141.901 304.654 143.362 304.606ZM870.065 282.466C871.631 282.413 872.938 281.448 873.047 280.237C873.146 278.96 871.869 277.935 870.193 277.852C863.596 277.642 857.184 277.16 850.534 276.395C848.87 276.165 847.297 277.06 846.994 278.278C846.72 279.56 847.842 280.73 849.497 280.959C856.341 281.718 862.991 282.212 869.775 282.476C869.88 282.472 869.96 282.469 870.065 282.466ZM900.196 281.742C900.284 281.739 900.345 281.737 900.407 281.735C907.144 281.145 913.936 280.36 920.64 279.28C922.278 279.02 923.382 277.769 923.04 276.514C922.727 275.31 921.132 274.521 919.467 274.783C912.981 275.783 906.383 276.574 899.857 277.144C898.161 277.28 896.929 278.37 897.078 279.658C897.223 280.84 898.612 281.795 900.196 281.742ZM93.5665 310.524C93.6281 310.522 93.6897 310.52 93.7601 310.518C100.517 310 107.288 309.362 113.897 308.63C115.564 308.435 116.752 307.347 116.542 306.061C116.332 304.794 114.797 303.924 113.112 304.126C106.608 304.835 99.9411 305.423 93.2449 305.919C91.5492 306.055 90.3022 307.225 90.4504 308.493C90.5702 309.703 91.9562 310.578 93.5665 310.524ZM63.3435 312.173C65.033 312.117 66.4167 311.082 66.3741 309.81C66.331 308.525 64.9604 307.582 63.2709 307.639L63.1917 307.642C56.6536 307.861 49.9436 307.946 43.251 308.024C41.5593 308.015 40.1932 309.049 40.1742 310.323C40.1556 311.61 41.5194 312.612 43.194 312.636C49.9658 312.555 56.7437 312.394 63.3435 312.173Z" fill="#FF8854"/>
</g>
<mask id="mask1_1641_128" style="mask-type:luminance" maskUnits="userSpaceOnUse" x="0" y="306" width="22" height="8">
<path d="M0.87207 307.082L20.9176 306.411L21.1448 313.195L1.09924 313.866L0.87207 307.082Z" fill="white"/>
</mask>
<g mask="url(#mask1_1641_128)">
<path d="M16.1034 312.335C17.6698 312.283 18.9967 311.396 19.0604 310.14C19.1586 308.864 17.8564 307.859 16.1796 307.77C12.1777 307.698 8.1027 307.549 4.03631 307.394C2.35973 307.311 0.885826 308.282 0.761227 309.559C0.653562 310.816 1.92322 311.901 3.60003 311.991C7.70976 312.125 11.8199 312.273 15.8482 312.344C15.9362 312.341 16.0154 312.338 16.1034 312.335Z" fill="#FF8854"/>
</g>
<mask id="mask2_1641_128" style="mask-type:luminance" maskUnits="userSpaceOnUse" x="904" y="1" width="370" height="167">
<path d="M904.187 13.6655L1268.71 1.45877L1273.88 155.791L909.355 167.997L904.187 13.6655Z" fill="white"/>
</mask>
<g mask="url(#mask2_1641_128)">
<path d="M909.967 138.921L1268.11 1.53898L996.28 163.575L909.967 138.921Z" fill="#FF8854"/>
</g>
<mask id="mask3_1641_128" style="mask-type:luminance" maskUnits="userSpaceOnUse" x="1012" y="0" width="265" height="250">
<path d="M1012.27 8.77246L1268.67 0.186623L1276.72 240.588L1020.32 249.174L1012.27 8.77246Z" fill="white"/>
</mask>
<g mask="url(#mask3_1641_128)">
<path d="M1019.73 179.091L1268.62 1.18981L1150.57 243.984L1019.73 179.091Z" fill="#FF8854"/>
</g>
<mask id="mask4_1641_128" style="mask-type:luminance" maskUnits="userSpaceOnUse" x="987" y="1" width="290" height="231">
<path d="M987.536 10.874L1268.71 1.45839L1276.09 221.932L994.919 231.348L987.536 10.874Z" fill="white"/>
</mask>
<g mask="url(#mask4_1641_128)">
<path d="M994.461 161.918L1027.79 230.221L1032.02 176.12L1268.11 1.53875L994.461 161.918Z" fill="#F47A45"/>
</g>
<path d="M1032.02 176.073L1027.79 230.188L1062.71 194.703L1032.02 176.073Z" fill="#F17742"/>
</svg>
