<svg width="59" height="45" viewBox="0 0 59 45" fill="none" xmlns="http://www.w3.org/2000/svg">
<path d="M42.2 44.4C34.8667 44.4 31.2 40.6 31.2 33C31.2 29.8 32.4 25.5333 34.8 20.2C37.2 14.8667 39.6 10.3333 42 6.59999L45.4 0.799991L58.2 7.39999L44.2 24L45 24.8C46.8667 24 48.5333 23.6 50 23.6C51.4667 23.6 52.8667 24.4667 54.2 26.2C55.5333 27.9333 56.2 30.2 56.2 33C56.2 35.6667 54.8667 38.2667 52.2 40.8C49.6667 43.2 46.3333 44.4 42.2 44.4ZM11.4 44.4C4.06667 44.4 0.4 40.6 0.4 33C0.4 29.8 1.53333 25.5333 3.8 20.2C6.2 14.8667 8.6 10.3333 11 6.59999L14.6 0.799991L27.4 7.39999L13.4 24L14.2 24.8C16.0667 24 17.7333 23.6 19.2 23.6C20.6667 23.6 22.0667 24.4667 23.4 26.2C24.7333 27.9333 25.4 30.2 25.4 33C25.4 35.6667 24.0667 38.2667 21.4 40.8C18.8667 43.2 15.5333 44.4 11.4 44.4Z" fill="#FF8854"/>
</svg>
