<svg width="840" height="171" viewBox="0 0 840 171" fill="none" xmlns="http://www.w3.org/2000/svg">
<circle cx="94" cy="40" r="20" fill="#FF8854"/>
<path d="M98.0114 28.7273V52H93.0909V33.3977H92.9545L87.625 36.7386V32.375L93.3864 28.7273H98.0114Z" fill="#363434"/>
<path d="M31.2335 76.0909C31.1483 75.3712 30.8026 74.8125 30.1966 74.4148C29.5905 74.017 28.8471 73.8182 27.9664 73.8182C27.3225 73.8182 26.7591 73.9223 26.2761 74.1307C25.7979 74.339 25.4238 74.6255 25.1539 74.9901C24.8888 75.3546 24.7562 75.7689 24.7562 76.233C24.7562 76.6212 24.8485 76.955 25.0332 77.2344C25.2226 77.509 25.4641 77.7386 25.7576 77.9233C26.0512 78.1032 26.359 78.2524 26.6809 78.3707C27.0029 78.4844 27.2988 78.5767 27.5687 78.6477L29.046 79.0455C29.4248 79.1449 29.8462 79.2822 30.3102 79.4574C30.7789 79.6326 31.2264 79.8717 31.6525 80.1747C32.0834 80.473 32.4385 80.8565 32.7179 81.3253C32.9972 81.794 33.1369 82.3693 33.1369 83.0511C33.1369 83.8371 32.9309 84.5473 32.519 85.1818C32.1118 85.8163 31.5152 86.3205 30.7292 86.6946C29.948 87.0687 28.9986 87.2557 27.8812 87.2557C26.8395 87.2557 25.9376 87.0876 25.1752 86.7514C24.4177 86.4152 23.8211 85.9465 23.3855 85.3452C22.9546 84.7438 22.7108 84.0455 22.6539 83.25H24.4721C24.5195 83.7992 24.7041 84.2538 25.0261 84.6136C25.3528 84.9687 25.7647 85.2339 26.2619 85.4091C26.7638 85.5795 27.3036 85.6648 27.8812 85.6648C28.5536 85.6648 29.1573 85.5559 29.6923 85.3381C30.2273 85.1155 30.6511 84.8078 30.9636 84.4148C31.2761 84.017 31.4324 83.553 31.4324 83.0227C31.4324 82.5398 31.2974 82.1468 31.0275 81.8438C30.7576 81.5407 30.4025 81.2945 29.9622 81.1051C29.5218 80.9157 29.046 80.75 28.5346 80.608L26.7449 80.0966C25.6085 79.7699 24.7089 79.3035 24.046 78.6974C23.3831 78.0914 23.0517 77.2983 23.0517 76.3182C23.0517 75.5038 23.2718 74.7936 23.7122 74.1875C24.1573 73.5767 24.7538 73.1032 25.502 72.767C26.2548 72.4261 27.0952 72.2557 28.0233 72.2557C28.9608 72.2557 29.7941 72.4238 30.5233 72.7599C31.2524 73.0914 31.8301 73.5459 32.2562 74.1236C32.6871 74.7012 32.9144 75.357 32.938 76.0909H31.2335ZM42.2374 87.2273C41.2147 87.2273 40.334 86.9858 39.5953 86.5028C38.8567 86.0199 38.2885 85.3546 37.8908 84.5071C37.4931 83.6596 37.2942 82.6913 37.2942 81.6023C37.2942 80.4943 37.4978 79.5166 37.905 78.669C38.3169 77.8168 38.8899 77.1515 39.6238 76.6733C40.3624 76.1903 41.2241 75.9489 42.209 75.9489C42.976 75.9489 43.6673 76.0909 44.2828 76.375C44.8984 76.6591 45.4026 77.0568 45.7956 77.5682C46.1886 78.0795 46.4325 78.6761 46.5272 79.358H44.851C44.7232 78.8608 44.4391 78.4205 43.9988 78.0369C43.5632 77.6487 42.976 77.4545 42.2374 77.4545C41.584 77.4545 41.0111 77.625 40.5186 77.9659C40.031 78.3021 39.6498 78.7779 39.3752 79.3935C39.1053 80.0043 38.9703 80.7216 38.9703 81.5455C38.9703 82.3883 39.1029 83.1222 39.3681 83.7472C39.638 84.3722 40.0167 84.8575 40.5044 85.2031C40.9969 85.5488 41.5745 85.7216 42.2374 85.7216C42.673 85.7216 43.0684 85.6458 43.4235 85.4943C43.7786 85.3428 44.0792 85.125 44.3255 84.8409C44.5717 84.5568 44.7469 84.2159 44.851 83.8182H46.5272C46.4325 84.4621 46.1981 85.0421 45.824 85.5582C45.4547 86.0696 44.9647 86.4768 44.3539 86.7798C43.7478 87.0781 43.0423 87.2273 42.2374 87.2273ZM50.9775 87V76.0909H52.5968V77.7386H52.7104C52.9093 77.1989 53.2691 76.7609 53.79 76.4247C54.3108 76.0885 54.8979 75.9205 55.5513 75.9205C55.6744 75.9205 55.8283 75.9228 56.013 75.9276C56.1976 75.9323 56.3373 75.9394 56.432 75.9489V77.6534C56.3752 77.6392 56.245 77.6179 56.0414 77.5895C55.8425 77.5563 55.6318 77.5398 55.4093 77.5398C54.879 77.5398 54.4055 77.651 53.9888 77.8736C53.5769 78.0914 53.2502 78.3944 53.0087 78.7827C52.772 79.1662 52.6536 79.6042 52.6536 80.0966V87H50.9775ZM64.6607 87.2273C63.6096 87.2273 62.7028 86.9953 61.9405 86.5312C61.1829 86.0625 60.5982 85.4091 60.1863 84.571C59.7791 83.7282 59.5755 82.7481 59.5755 81.6307C59.5755 80.5133 59.7791 79.5284 60.1863 78.6761C60.5982 77.8191 61.1711 77.1515 61.905 76.6733C62.6436 76.1903 63.5054 75.9489 64.4902 75.9489C65.0584 75.9489 65.6195 76.0436 66.1735 76.233C66.7275 76.4223 67.2317 76.7301 67.6863 77.1562C68.1408 77.5777 68.503 78.1364 68.7729 78.8324C69.0428 79.5284 69.1777 80.3854 69.1777 81.4034V82.1136H60.7686V80.6648H67.4732C67.4732 80.0492 67.3501 79.5 67.1039 79.017C66.8624 78.5341 66.5167 78.1529 66.0669 77.8736C65.6219 77.5942 65.0963 77.4545 64.4902 77.4545C63.8226 77.4545 63.245 77.6203 62.7573 77.9517C62.2743 78.2784 61.9026 78.7045 61.6422 79.2301C61.3818 79.7557 61.2516 80.3191 61.2516 80.9205V81.8864C61.2516 82.7102 61.3936 83.4086 61.6777 83.9815C61.9666 84.5497 62.3667 84.983 62.878 85.2812C63.3894 85.5748 63.9836 85.7216 64.6607 85.7216C65.101 85.7216 65.4988 85.66 65.8539 85.5369C66.2137 85.4091 66.5239 85.2197 66.7843 84.9688C67.0447 84.7131 67.2459 84.3958 67.388 84.017L69.0073 84.4716C68.8368 85.0208 68.5504 85.5038 68.1479 85.9205C67.7454 86.3324 67.2483 86.6544 66.6564 86.8864C66.0646 87.1136 65.3993 87.2273 64.6607 87.2273ZM78.3013 87.2273C77.2502 87.2273 76.3435 86.9953 75.5811 86.5312C74.8236 86.0625 74.2388 85.4091 73.8269 84.571C73.4197 83.7282 73.2161 82.7481 73.2161 81.6307C73.2161 80.5133 73.4197 79.5284 73.8269 78.6761C74.2388 77.8191 74.8117 77.1515 75.5456 76.6733C76.2843 76.1903 77.146 75.9489 78.1309 75.9489C78.699 75.9489 79.2601 76.0436 79.8141 76.233C80.3681 76.4223 80.8723 76.7301 81.3269 77.1562C81.7814 77.5777 82.1436 78.1364 82.4135 78.8324C82.6834 79.5284 82.8184 80.3854 82.8184 81.4034V82.1136H74.4093V80.6648H81.1138C81.1138 80.0492 80.9907 79.5 80.7445 79.017C80.503 78.5341 80.1574 78.1529 79.7076 77.8736C79.2625 77.5942 78.7369 77.4545 78.1309 77.4545C77.4632 77.4545 76.8856 77.6203 76.3979 77.9517C75.915 78.2784 75.5433 78.7045 75.2828 79.2301C75.0224 79.7557 74.8922 80.3191 74.8922 80.9205V81.8864C74.8922 82.7102 75.0343 83.4086 75.3184 83.9815C75.6072 84.5497 76.0073 84.983 76.5186 85.2812C77.03 85.5748 77.6242 85.7216 78.3013 85.7216C78.7417 85.7216 79.1394 85.66 79.4945 85.5369C79.8543 85.4091 80.1645 85.2197 80.4249 84.9688C80.6853 84.7131 80.8865 84.3958 81.0286 84.017L82.6479 84.4716C82.4775 85.0208 82.191 85.5038 81.7885 85.9205C81.3861 86.3324 80.8889 86.6544 80.2971 86.8864C79.7052 87.1136 79.04 87.2273 78.3013 87.2273ZM89.0442 80.4375V87H87.3681V76.0909H88.9874V77.7955H89.1294C89.3851 77.2415 89.7734 76.7964 90.2942 76.4602C90.815 76.1193 91.4874 75.9489 92.3113 75.9489C93.0499 75.9489 93.6962 76.1004 94.2502 76.4034C94.8042 76.7017 95.235 77.1562 95.5428 77.767C95.8506 78.3731 96.0044 79.1402 96.0044 80.0682V87H94.3283V80.1818C94.3283 79.3248 94.1058 78.6572 93.6607 78.179C93.2156 77.696 92.6048 77.4545 91.8283 77.4545C91.2933 77.4545 90.815 77.5705 90.3936 77.8026C89.977 78.0346 89.6479 78.3731 89.4064 78.8182C89.165 79.2633 89.0442 79.803 89.0442 80.4375ZM101.067 87V76.0909H102.743V87H101.067ZM101.92 74.2727C101.593 74.2727 101.311 74.1615 101.074 73.9389C100.842 73.7164 100.726 73.4489 100.726 73.1364C100.726 72.8239 100.842 72.5563 101.074 72.3338C101.311 72.1113 101.593 72 101.92 72C102.246 72 102.526 72.1113 102.758 72.3338C102.994 72.5563 103.113 72.8239 103.113 73.1364C103.113 73.4489 102.994 73.7164 102.758 73.9389C102.526 74.1615 102.246 74.2727 101.92 74.2727ZM109.49 80.4375V87H107.813V76.0909H109.433V77.7955H109.575C109.83 77.2415 110.219 76.7964 110.74 76.4602C111.26 76.1193 111.933 75.9489 112.757 75.9489C113.495 75.9489 114.142 76.1004 114.695 76.4034C115.249 76.7017 115.68 77.1562 115.988 77.767C116.296 78.3731 116.45 79.1402 116.45 80.0682V87H114.774V80.1818C114.774 79.3248 114.551 78.6572 114.106 78.179C113.661 77.696 113.05 77.4545 112.274 77.4545C111.739 77.4545 111.26 77.5705 110.839 77.8026C110.422 78.0346 110.093 78.3731 109.852 78.8182C109.61 79.2633 109.49 79.803 109.49 80.4375ZM125.916 91.3182C125.106 91.3182 124.41 91.214 123.828 91.0057C123.246 90.8021 122.76 90.5322 122.372 90.196C121.988 89.8646 121.683 89.5095 121.456 89.1307L122.791 88.1932C122.943 88.392 123.134 88.6193 123.366 88.875C123.598 89.1354 123.916 89.3603 124.318 89.5497C124.725 89.7438 125.258 89.8409 125.916 89.8409C126.797 89.8409 127.523 89.6278 128.096 89.2017C128.669 88.7756 128.956 88.108 128.956 87.1989V84.983H128.814C128.691 85.1818 128.515 85.428 128.288 85.7216C128.066 86.0104 127.744 86.2685 127.322 86.4957C126.906 86.7183 126.342 86.8295 125.632 86.8295C124.751 86.8295 123.961 86.6212 123.26 86.2045C122.564 85.7879 122.012 85.1818 121.605 84.3864C121.202 83.5909 121.001 82.625 121.001 81.4886C121.001 80.3712 121.198 79.3982 121.591 78.5696C121.984 77.7363 122.531 77.0923 123.231 76.6378C123.932 76.1785 124.742 75.9489 125.66 75.9489C126.371 75.9489 126.934 76.0672 127.351 76.304C127.772 76.536 128.094 76.8011 128.317 77.0994C128.544 77.393 128.719 77.6345 128.842 77.8239H129.013V76.0909H130.632V87.3125C130.632 88.25 130.419 89.0123 129.993 89.5994C129.571 90.1913 129.003 90.6245 128.288 90.8991C127.578 91.1785 126.787 91.3182 125.916 91.3182ZM125.859 85.3239C126.532 85.3239 127.1 85.17 127.564 84.8622C128.028 84.5545 128.381 84.1117 128.622 83.5341C128.863 82.9564 128.984 82.2652 128.984 81.4602C128.984 80.6742 128.866 79.9806 128.629 79.3793C128.392 78.7779 128.042 78.3068 127.578 77.9659C127.114 77.625 126.541 77.4545 125.859 77.4545C125.149 77.4545 124.557 77.6345 124.084 77.9943C123.615 78.3542 123.262 78.8371 123.025 79.4432C122.793 80.0492 122.677 80.7216 122.677 81.4602C122.677 82.2178 122.796 82.8878 123.032 83.4702C123.274 84.0478 123.629 84.5024 124.098 84.8338C124.571 85.1605 125.158 85.3239 125.859 85.3239ZM155.257 77H153.496C153.391 76.4934 153.209 76.0483 152.949 75.6648C152.693 75.2812 152.381 74.9593 152.011 74.6989C151.647 74.4337 151.242 74.2348 150.797 74.1023C150.352 73.9697 149.888 73.9034 149.405 73.9034C148.524 73.9034 147.726 74.1259 147.011 74.571C146.301 75.0161 145.735 75.6719 145.314 76.5384C144.897 77.4048 144.689 78.4678 144.689 79.7273C144.689 80.9867 144.897 82.0497 145.314 82.9162C145.735 83.7827 146.301 84.4384 147.011 84.8835C147.726 85.3286 148.524 85.5511 149.405 85.5511C149.888 85.5511 150.352 85.4848 150.797 85.3523C151.242 85.2197 151.647 85.0232 152.011 84.7628C152.381 84.4976 152.693 84.1733 152.949 83.7898C153.209 83.4015 153.391 82.9564 153.496 82.4545H155.257C155.124 83.1979 154.883 83.8632 154.532 84.4503C154.182 85.0374 153.747 85.5369 153.226 85.9489C152.705 86.3561 152.12 86.6662 151.471 86.8793C150.827 87.0923 150.139 87.1989 149.405 87.1989C148.164 87.1989 147.061 86.8958 146.095 86.2898C145.129 85.6837 144.369 84.822 143.815 83.7045C143.261 82.5871 142.984 81.2614 142.984 79.7273C142.984 78.1932 143.261 76.8674 143.815 75.75C144.369 74.6326 145.129 73.7708 146.095 73.1648C147.061 72.5587 148.164 72.2557 149.405 72.2557C150.139 72.2557 150.827 72.3622 151.471 72.5753C152.12 72.7884 152.705 73.1009 153.226 73.5128C153.747 73.92 154.182 74.4171 154.532 75.0043C154.883 75.5866 155.124 76.2519 155.257 77ZM160.7 72.4545L165.018 84.6989H165.188L169.507 72.4545H171.353L166.012 87H164.194L158.853 72.4545H160.7ZM26.7276 111.227C25.8185 111.227 25.016 110.998 24.32 110.538C23.6239 110.074 23.0794 109.421 22.6864 108.578C22.2934 107.731 22.0969 106.729 22.0969 105.574C22.0969 104.428 22.2934 103.434 22.6864 102.591C23.0794 101.748 23.6263 101.097 24.3271 100.638C25.0278 100.179 25.8375 99.9489 26.756 99.9489C27.4663 99.9489 28.0273 100.067 28.4393 100.304C28.8559 100.536 29.1732 100.801 29.391 101.099C29.6135 101.393 29.7863 101.634 29.9094 101.824H30.0515V96.4545H31.7276V111H30.1083V109.324H29.9094C29.7863 109.523 29.6112 109.774 29.3839 110.077C29.1566 110.375 28.8323 110.643 28.4109 110.879C27.9895 111.111 27.4284 111.227 26.7276 111.227ZM26.9549 109.722C27.6272 109.722 28.1954 109.546 28.6594 109.196C29.1235 108.841 29.4762 108.351 29.7177 107.726C29.9592 107.096 30.0799 106.369 30.0799 105.545C30.0799 104.731 29.9615 104.018 29.7248 103.408C29.488 102.792 29.1377 102.314 28.6737 101.973C28.2096 101.627 27.6367 101.455 26.9549 101.455C26.2447 101.455 25.6528 101.637 25.1793 102.001C24.7106 102.361 24.3578 102.851 24.1211 103.472C23.8891 104.087 23.7731 104.778 23.7731 105.545C23.7731 106.322 23.8915 107.027 24.1282 107.662C24.3697 108.292 24.7248 108.794 25.1935 109.168C25.667 109.537 26.2541 109.722 26.9549 109.722ZM40.2404 111.256C39.5491 111.256 38.9218 111.125 38.3583 110.865C37.7949 110.6 37.3474 110.219 37.016 109.722C36.6845 109.22 36.5188 108.614 36.5188 107.903C36.5188 107.278 36.6419 106.772 36.8881 106.384C37.1344 105.991 37.4634 105.683 37.8754 105.46C38.2873 105.238 38.7418 105.072 39.239 104.963C39.7409 104.849 40.2451 104.759 40.7518 104.693C41.4147 104.608 41.9521 104.544 42.364 104.501C42.7807 104.454 43.0837 104.376 43.2731 104.267C43.4672 104.158 43.5643 103.969 43.5643 103.699V103.642C43.5643 102.941 43.3725 102.397 42.989 102.009C42.6102 101.62 42.0349 101.426 41.2631 101.426C40.4629 101.426 39.8356 101.601 39.381 101.952C38.9265 102.302 38.6069 102.676 38.4222 103.074L36.8313 102.506C37.1154 101.843 37.4942 101.327 37.9677 100.957C38.4459 100.583 38.9667 100.323 39.5302 100.176C40.0984 100.025 40.6571 99.9489 41.2063 99.9489C41.5567 99.9489 41.9592 99.9915 42.4137 100.077C42.873 100.157 43.3157 100.325 43.7418 100.581C44.1727 100.837 44.5302 101.223 44.8143 101.739C45.0984 102.255 45.2404 102.946 45.2404 103.812V111H43.5643V109.523H43.479C43.3654 109.759 43.176 110.013 42.9109 110.283C42.6457 110.553 42.293 110.782 41.8526 110.972C41.4123 111.161 40.8749 111.256 40.2404 111.256ZM40.4961 109.75C41.159 109.75 41.7177 109.62 42.1722 109.359C42.6315 109.099 42.9772 108.763 43.2092 108.351C43.4459 107.939 43.5643 107.506 43.5643 107.051V105.517C43.4933 105.602 43.337 105.68 43.0955 105.751C42.8588 105.818 42.5842 105.877 42.2717 105.929C41.9639 105.976 41.6632 106.019 41.3697 106.057C41.0808 106.09 40.8465 106.118 40.6665 106.142C40.2309 106.199 39.8237 106.291 39.445 106.419C39.0709 106.542 38.7679 106.729 38.5359 106.98C38.3086 107.226 38.195 107.562 38.195 107.989C38.195 108.571 38.4104 109.011 38.8413 109.31C39.2769 109.603 39.8285 109.75 40.4961 109.75ZM51.9759 104.438V111H50.2997V100.091H51.919V101.795H52.0611C52.3168 101.241 52.705 100.796 53.2259 100.46C53.7467 100.119 54.419 99.9489 55.2429 99.9489C55.9815 99.9489 56.6278 100.1 57.1818 100.403C57.7358 100.702 58.1667 101.156 58.4744 101.767C58.7822 102.373 58.9361 103.14 58.9361 104.068V111H57.2599V104.182C57.2599 103.325 57.0374 102.657 56.5923 102.179C56.1473 101.696 55.5365 101.455 54.7599 101.455C54.2249 101.455 53.7467 101.571 53.3253 101.803C52.9086 102.035 52.5795 102.373 52.3381 102.818C52.0966 103.263 51.9759 103.803 51.9759 104.438ZM71.8512 111V96.4545H76.766C77.9071 96.4545 78.8398 96.6605 79.5643 97.0724C80.2934 97.4796 80.8332 98.0312 81.1836 98.7273C81.534 99.4233 81.7092 100.2 81.7092 101.057C81.7092 101.914 81.534 102.693 81.1836 103.393C80.838 104.094 80.3029 104.653 79.5785 105.07C78.854 105.482 77.926 105.688 76.7944 105.688H73.2717V104.125H76.7376C77.5188 104.125 78.1462 103.99 78.6197 103.72C79.0932 103.45 79.4364 103.086 79.6495 102.626C79.8673 102.162 79.9762 101.639 79.9762 101.057C79.9762 100.474 79.8673 99.9536 79.6495 99.4943C79.4364 99.035 79.0908 98.6752 78.6126 98.4148C78.1344 98.1496 77.4999 98.017 76.7092 98.017H73.6126V111H71.8512ZM90.6339 111.227C89.649 111.227 88.7849 110.993 88.0415 110.524C87.3029 110.055 86.7253 109.4 86.3086 108.557C85.8967 107.714 85.6907 106.729 85.6907 105.602C85.6907 104.466 85.8967 103.474 86.3086 102.626C86.7253 101.779 87.3029 101.121 88.0415 100.652C88.7849 100.183 89.649 99.9489 90.6339 99.9489C91.6187 99.9489 92.4805 100.183 93.2191 100.652C93.9625 101.121 94.5401 101.779 94.9521 102.626C95.3687 103.474 95.5771 104.466 95.5771 105.602C95.5771 106.729 95.3687 107.714 94.9521 108.557C94.5401 109.4 93.9625 110.055 93.2191 110.524C92.4805 110.993 91.6187 111.227 90.6339 111.227ZM90.6339 109.722C91.382 109.722 91.9975 109.53 92.4805 109.146C92.9634 108.763 93.3209 108.259 93.5529 107.634C93.7849 107.009 93.9009 106.331 93.9009 105.602C93.9009 104.873 93.7849 104.194 93.5529 103.564C93.3209 102.934 92.9634 102.425 92.4805 102.037C91.9975 101.649 91.382 101.455 90.6339 101.455C89.8858 101.455 89.2702 101.649 88.7873 102.037C88.3043 102.425 87.9469 102.934 87.7148 103.564C87.4828 104.194 87.3668 104.873 87.3668 105.602C87.3668 106.331 87.4828 107.009 87.7148 107.634C87.9469 108.259 88.3043 108.763 88.7873 109.146C89.2702 109.53 89.8858 109.722 90.6339 109.722ZM100.136 111V100.091H101.755V101.739H101.869C102.067 101.199 102.427 100.761 102.948 100.425C103.469 100.089 104.056 99.9205 104.71 99.9205C104.833 99.9205 104.987 99.9228 105.171 99.9276C105.356 99.9323 105.496 99.9394 105.59 99.9489V101.653C105.533 101.639 105.403 101.618 105.2 101.589C105.001 101.556 104.79 101.54 104.567 101.54C104.037 101.54 103.564 101.651 103.147 101.874C102.735 102.091 102.408 102.394 102.167 102.783C101.93 103.166 101.812 103.604 101.812 104.097V111H100.136ZM115.005 100.091V101.511H109.352V100.091H115.005ZM110.999 97.4773H112.675V107.875C112.675 108.348 112.744 108.704 112.881 108.94C113.023 109.172 113.203 109.329 113.421 109.409C113.644 109.485 113.878 109.523 114.124 109.523C114.309 109.523 114.46 109.513 114.579 109.494C114.697 109.471 114.792 109.452 114.863 109.438L115.204 110.943C115.09 110.986 114.932 111.028 114.728 111.071C114.524 111.118 114.266 111.142 113.954 111.142C113.48 111.142 113.016 111.04 112.562 110.837C112.112 110.633 111.738 110.323 111.44 109.906C111.146 109.49 110.999 108.964 110.999 108.33V97.4773ZM123.841 111.227C122.856 111.227 121.992 110.993 121.249 110.524C120.51 110.055 119.932 109.4 119.516 108.557C119.104 107.714 118.898 106.729 118.898 105.602C118.898 104.466 119.104 103.474 119.516 102.626C119.932 101.779 120.51 101.121 121.249 100.652C121.992 100.183 122.856 99.9489 123.841 99.9489C124.826 99.9489 125.688 100.183 126.426 100.652C127.17 101.121 127.747 101.779 128.159 102.626C128.576 103.474 128.784 104.466 128.784 105.602C128.784 106.729 128.576 107.714 128.159 108.557C127.747 109.4 127.17 110.055 126.426 110.524C125.688 110.993 124.826 111.227 123.841 111.227ZM123.841 109.722C124.589 109.722 125.205 109.53 125.688 109.146C126.17 108.763 126.528 108.259 126.76 107.634C126.992 107.009 127.108 106.331 127.108 105.602C127.108 104.873 126.992 104.194 126.76 103.564C126.528 102.934 126.17 102.425 125.688 102.037C125.205 101.649 124.589 101.455 123.841 101.455C123.093 101.455 122.477 101.649 121.994 102.037C121.511 102.425 121.154 102.934 120.922 103.564C120.69 104.194 120.574 104.873 120.574 105.602C120.574 106.331 120.69 107.009 120.922 107.634C121.154 108.259 121.511 108.763 121.994 109.146C122.477 109.53 123.093 109.722 123.841 109.722ZM138.201 100.091V101.511H132.32V100.091H138.201ZM134.081 111V98.5852C134.081 97.9602 134.228 97.4394 134.522 97.0227C134.815 96.6061 135.196 96.2936 135.665 96.0852C136.134 95.8769 136.629 95.7727 137.15 95.7727C137.561 95.7727 137.898 95.8059 138.158 95.8722C138.418 95.9384 138.613 96 138.74 96.0568L138.257 97.5057C138.172 97.4773 138.054 97.4418 137.902 97.3991C137.756 97.3565 137.561 97.3352 137.32 97.3352C136.766 97.3352 136.366 97.4749 136.12 97.7543C135.878 98.0336 135.757 98.4432 135.757 98.983V111H134.081ZM146.532 111.227C145.547 111.227 144.683 110.993 143.94 110.524C143.201 110.055 142.624 109.4 142.207 108.557C141.795 107.714 141.589 106.729 141.589 105.602C141.589 104.466 141.795 103.474 142.207 102.626C142.624 101.779 143.201 101.121 143.94 100.652C144.683 100.183 145.547 99.9489 146.532 99.9489C147.517 99.9489 148.379 100.183 149.118 100.652C149.861 101.121 150.439 101.779 150.85 102.626C151.267 103.474 151.475 104.466 151.475 105.602C151.475 106.729 151.267 107.714 150.85 108.557C150.439 109.4 149.861 110.055 149.118 110.524C148.379 110.993 147.517 111.227 146.532 111.227ZM146.532 109.722C147.28 109.722 147.896 109.53 148.379 109.146C148.862 108.763 149.219 108.259 149.451 107.634C149.683 107.009 149.799 106.331 149.799 105.602C149.799 104.873 149.683 104.194 149.451 103.564C149.219 102.934 148.862 102.425 148.379 102.037C147.896 101.649 147.28 101.455 146.532 101.455C145.784 101.455 145.169 101.649 144.686 102.037C144.203 102.425 143.845 102.934 143.613 103.564C143.381 104.194 143.265 104.873 143.265 105.602C143.265 106.331 143.381 107.009 143.613 107.634C143.845 108.259 144.203 108.763 144.686 109.146C145.169 109.53 145.784 109.722 146.532 109.722ZM157.71 96.4545V111H156.034V96.4545H157.71ZM162.78 111V100.091H164.456V111H162.78ZM163.632 98.2727C163.306 98.2727 163.024 98.1615 162.787 97.9389C162.555 97.7164 162.439 97.4489 162.439 97.1364C162.439 96.8239 162.555 96.5563 162.787 96.3338C163.024 96.1113 163.306 96 163.632 96C163.959 96 164.239 96.1113 164.471 96.3338C164.707 96.5563 164.826 96.8239 164.826 97.1364C164.826 97.4489 164.707 97.7164 164.471 97.9389C164.239 98.1615 163.959 98.2727 163.632 98.2727ZM173.958 111.227C172.973 111.227 172.109 110.993 171.366 110.524C170.627 110.055 170.049 109.4 169.633 108.557C169.221 107.714 169.015 106.729 169.015 105.602C169.015 104.466 169.221 103.474 169.633 102.626C170.049 101.779 170.627 101.121 171.366 100.652C172.109 100.183 172.973 99.9489 173.958 99.9489C174.943 99.9489 175.805 100.183 176.543 100.652C177.287 101.121 177.864 101.779 178.276 102.626C178.693 103.474 178.901 104.466 178.901 105.602C178.901 106.729 178.693 107.714 178.276 108.557C177.864 109.4 177.287 110.055 176.543 110.524C175.805 110.993 174.943 111.227 173.958 111.227ZM173.958 109.722C174.706 109.722 175.322 109.53 175.805 109.146C176.288 108.763 176.645 108.259 176.877 107.634C177.109 107.009 177.225 106.331 177.225 105.602C177.225 104.873 177.109 104.194 176.877 103.564C176.645 102.934 176.288 102.425 175.805 102.037C175.322 101.649 174.706 101.455 173.958 101.455C173.21 101.455 172.594 101.649 172.112 102.037C171.629 102.425 171.271 102.934 171.039 103.564C170.807 104.194 170.691 104.873 170.691 105.602C170.691 106.331 170.807 107.009 171.039 107.634C171.271 108.259 171.629 108.763 172.112 109.146C172.594 109.53 173.21 109.722 173.958 109.722Z" fill="black"/>
<circle cx="319" cy="40" r="20" fill="#FF8854"/>
<path d="M309.886 52V48.4545L318.17 40.7841C318.875 40.1023 319.466 39.4886 319.943 38.9432C320.428 38.3977 320.795 37.8636 321.045 37.3409C321.295 36.8106 321.42 36.2386 321.42 35.625C321.42 34.9432 321.265 34.3561 320.955 33.8636C320.644 33.3636 320.22 32.9811 319.682 32.7159C319.144 32.4432 318.534 32.3068 317.852 32.3068C317.14 32.3068 316.519 32.4508 315.989 32.7386C315.458 33.0265 315.049 33.4394 314.761 33.9773C314.473 34.5152 314.33 35.1553 314.33 35.8977H309.659C309.659 34.375 310.004 33.053 310.693 31.9318C311.383 30.8106 312.348 29.9432 313.591 29.3295C314.833 28.7159 316.265 28.4091 317.886 28.4091C319.553 28.4091 321.004 28.7045 322.239 29.2955C323.481 29.8788 324.447 30.6894 325.136 31.7273C325.826 32.7652 326.17 33.9545 326.17 35.2955C326.17 36.1742 325.996 37.0417 325.648 37.8977C325.307 38.7538 324.697 39.7045 323.818 40.75C322.939 41.7879 321.701 43.0341 320.102 44.4886L316.705 47.8182V47.9773H326.477V52H309.886Z" fill="#363434"/>
<path d="M262.786 87L258.809 72.4545H260.599L263.638 84.3011H263.781L266.877 72.4545H268.866L271.962 84.3011H272.104L275.144 72.4545H276.934L272.957 87H271.138L267.928 75.4091H267.815L264.604 87H262.786ZM283.096 87.2557C282.405 87.2557 281.777 87.1255 281.214 86.8651C280.65 86.5999 280.203 86.2188 279.871 85.7216C279.54 85.2197 279.374 84.6136 279.374 83.9034C279.374 83.2784 279.497 82.7718 279.744 82.3835C279.99 81.9905 280.319 81.6828 280.731 81.4602C281.143 81.2377 281.597 81.072 282.094 80.9631C282.596 80.8494 283.101 80.7595 283.607 80.6932C284.27 80.608 284.808 80.544 285.219 80.5014C285.636 80.4541 285.939 80.3759 286.129 80.267C286.323 80.1581 286.42 79.9687 286.42 79.6989V79.642C286.42 78.9413 286.228 78.3968 285.844 78.0085C285.466 77.6203 284.89 77.4261 284.119 77.4261C283.318 77.4261 282.691 77.6013 282.237 77.9517C281.782 78.3021 281.462 78.6761 281.278 79.0739L279.687 78.5057C279.971 77.8428 280.35 77.3267 280.823 76.9574C281.301 76.5833 281.822 76.3229 282.386 76.1761C282.954 76.0246 283.513 75.9489 284.062 75.9489C284.412 75.9489 284.815 75.9915 285.269 76.0767C285.728 76.1572 286.171 76.3253 286.597 76.581C287.028 76.8366 287.386 77.2225 287.67 77.7386C287.954 78.2547 288.096 78.946 288.096 79.8125V87H286.42V85.5227H286.335C286.221 85.7595 286.031 86.0128 285.766 86.2827C285.501 86.5526 285.148 86.7822 284.708 86.9716C284.268 87.161 283.73 87.2557 283.096 87.2557ZM283.352 85.75C284.014 85.75 284.573 85.6198 285.028 85.3594C285.487 85.099 285.833 84.7628 286.065 84.3509C286.301 83.9389 286.42 83.5057 286.42 83.0511V81.517C286.349 81.6023 286.192 81.6804 285.951 81.7514C285.714 81.8177 285.44 81.8769 285.127 81.929C284.819 81.9763 284.519 82.0189 284.225 82.0568C283.936 82.09 283.702 82.1184 283.522 82.142C283.086 82.1989 282.679 82.2912 282.3 82.419C281.926 82.5421 281.623 82.7292 281.391 82.9801C281.164 83.2263 281.05 83.5625 281.05 83.9886C281.05 84.571 281.266 85.0114 281.697 85.3097C282.132 85.6032 282.684 85.75 283.352 85.75ZM295.627 87L292.303 76.0909H294.064L296.422 84.4432H296.536L298.865 76.0909H300.655L302.956 84.4148H303.07L305.428 76.0909H307.189L303.865 87H302.218L299.831 78.6193H299.661L297.275 87H295.627ZM314.615 87.2557C313.924 87.2557 313.297 87.1255 312.733 86.8651C312.17 86.5999 311.722 86.2188 311.391 85.7216C311.06 85.2197 310.894 84.6136 310.894 83.9034C310.894 83.2784 311.017 82.7718 311.263 82.3835C311.509 81.9905 311.838 81.6828 312.25 81.4602C312.662 81.2377 313.117 81.072 313.614 80.9631C314.116 80.8494 314.62 80.7595 315.127 80.6932C315.79 80.608 316.327 80.544 316.739 80.5014C317.156 80.4541 317.459 80.3759 317.648 80.267C317.842 80.1581 317.939 79.9687 317.939 79.6989V79.642C317.939 78.9413 317.748 78.3968 317.364 78.0085C316.985 77.6203 316.41 77.4261 315.638 77.4261C314.838 77.4261 314.211 77.6013 313.756 77.9517C313.301 78.3021 312.982 78.6761 312.797 79.0739L311.206 78.5057C311.49 77.8428 311.869 77.3267 312.343 76.9574C312.821 76.5833 313.342 76.3229 313.905 76.1761C314.473 76.0246 315.032 75.9489 315.581 75.9489C315.932 75.9489 316.334 75.9915 316.789 76.0767C317.248 76.1572 317.691 76.3253 318.117 76.581C318.548 76.8366 318.905 77.2225 319.189 77.7386C319.473 78.2547 319.615 78.946 319.615 79.8125V87H317.939V85.5227H317.854C317.74 85.7595 317.551 86.0128 317.286 86.2827C317.021 86.5526 316.668 86.7822 316.228 86.9716C315.787 87.161 315.25 87.2557 314.615 87.2557ZM314.871 85.75C315.534 85.75 316.093 85.6198 316.547 85.3594C317.007 85.099 317.352 84.7628 317.584 84.3509C317.821 83.9389 317.939 83.5057 317.939 83.0511V81.517C317.868 81.6023 317.712 81.6804 317.471 81.7514C317.234 81.8177 316.959 81.8769 316.647 81.929C316.339 81.9763 316.038 82.0189 315.745 82.0568C315.456 82.09 315.221 82.1184 315.042 82.142C314.606 82.1989 314.199 82.2912 313.82 82.419C313.446 82.5421 313.143 82.7292 312.911 82.9801C312.684 83.2263 312.57 83.5625 312.57 83.9886C312.57 84.571 312.785 85.0114 313.216 85.3097C313.652 85.6032 314.203 85.75 314.871 85.75ZM326.351 80.4375V87H324.675V76.0909H326.294V77.7955H326.436C326.692 77.2415 327.08 76.7964 327.601 76.4602C328.122 76.1193 328.794 75.9489 329.618 75.9489C330.357 75.9489 331.003 76.1004 331.557 76.4034C332.111 76.7017 332.542 77.1562 332.849 77.767C333.157 78.3731 333.311 79.1402 333.311 80.0682V87H331.635V80.1818C331.635 79.3248 331.412 78.6572 330.967 78.179C330.522 77.696 329.911 77.4545 329.135 77.4545C328.6 77.4545 328.122 77.5705 327.7 77.8026C327.284 78.0346 326.955 78.3731 326.713 78.8182C326.472 79.2633 326.351 79.803 326.351 80.4375ZM342.806 87.2273C341.783 87.2273 340.902 86.9858 340.164 86.5028C339.425 86.0199 338.857 85.3546 338.459 84.5071C338.061 83.6596 337.863 82.6913 337.863 81.6023C337.863 80.4943 338.066 79.5166 338.473 78.669C338.885 77.8168 339.458 77.1515 340.192 76.6733C340.931 76.1903 341.792 75.9489 342.777 75.9489C343.544 75.9489 344.236 76.0909 344.851 76.375C345.467 76.6591 345.971 77.0568 346.364 77.5682C346.757 78.0795 347.001 78.6761 347.096 79.358H345.419C345.292 78.8608 345.007 78.4205 344.567 78.0369C344.132 77.6487 343.544 77.4545 342.806 77.4545C342.152 77.4545 341.579 77.625 341.087 77.9659C340.599 78.3021 340.218 78.7779 339.944 79.3935C339.674 80.0043 339.539 80.7216 339.539 81.5455C339.539 82.3883 339.671 83.1222 339.936 83.7472C340.206 84.3722 340.585 84.8575 341.073 85.2031C341.565 85.5488 342.143 85.7216 342.806 85.7216C343.241 85.7216 343.637 85.6458 343.992 85.4943C344.347 85.3428 344.648 85.125 344.894 84.8409C345.14 84.5568 345.315 84.2159 345.419 83.8182H347.096C347.001 84.4621 346.766 85.0421 346.392 85.5582C346.023 86.0696 345.533 86.4768 344.922 86.7798C344.316 87.0781 343.611 87.2273 342.806 87.2273ZM354.756 87.2557C354.065 87.2557 353.437 87.1255 352.874 86.8651C352.31 86.5999 351.863 86.2188 351.532 85.7216C351.2 85.2197 351.034 84.6136 351.034 83.9034C351.034 83.2784 351.158 82.7718 351.404 82.3835C351.65 81.9905 351.979 81.6828 352.391 81.4602C352.803 81.2377 353.257 81.072 353.755 80.9631C354.257 80.8494 354.761 80.7595 355.267 80.6932C355.93 80.608 356.468 80.544 356.88 80.5014C357.296 80.4541 357.599 80.3759 357.789 80.267C357.983 80.1581 358.08 79.9687 358.08 79.6989V79.642C358.08 78.9413 357.888 78.3968 357.505 78.0085C357.126 77.6203 356.551 77.4261 355.779 77.4261C354.979 77.4261 354.351 77.6013 353.897 77.9517C353.442 78.3021 353.123 78.6761 352.938 79.0739L351.347 78.5057C351.631 77.8428 352.01 77.3267 352.483 76.9574C352.962 76.5833 353.482 76.3229 354.046 76.1761C354.614 76.0246 355.173 75.9489 355.722 75.9489C356.072 75.9489 356.475 75.9915 356.929 76.0767C357.389 76.1572 357.831 76.3253 358.257 76.581C358.688 76.8366 359.046 77.2225 359.33 77.7386C359.614 78.2547 359.756 78.946 359.756 79.8125V87H358.08V85.5227H357.995C357.881 85.7595 357.692 86.0128 357.426 86.2827C357.161 86.5526 356.809 86.7822 356.368 86.9716C355.928 87.161 355.391 87.2557 354.756 87.2557ZM355.012 85.75C355.675 85.75 356.233 85.6198 356.688 85.3594C357.147 85.099 357.493 84.7628 357.725 84.3509C357.962 83.9389 358.08 83.5057 358.08 83.0511V81.517C358.009 81.6023 357.853 81.6804 357.611 81.7514C357.374 81.8177 357.1 81.8769 356.787 81.929C356.48 81.9763 356.179 82.0189 355.885 82.0568C355.596 82.09 355.362 82.1184 355.182 82.142C354.747 82.1989 354.339 82.2912 353.961 82.419C353.587 82.5421 353.283 82.7292 353.051 82.9801C352.824 83.2263 352.711 83.5625 352.711 83.9886C352.711 84.571 352.926 85.0114 353.357 85.3097C353.792 85.6032 354.344 85.75 355.012 85.75ZM364.815 87V76.0909H366.435V77.7386H366.548C366.747 77.1989 367.107 76.7609 367.628 76.4247C368.149 76.0885 368.736 75.9205 369.389 75.9205C369.512 75.9205 369.666 75.9228 369.851 75.9276C370.036 75.9323 370.175 75.9394 370.27 75.9489V77.6534C370.213 77.6392 370.083 77.6179 369.879 77.5895C369.68 77.5563 369.47 77.5398 369.247 77.5398C368.717 77.5398 368.243 77.651 367.827 77.8736C367.415 78.0914 367.088 78.3944 366.847 78.7827C366.61 79.1662 366.491 79.6042 366.491 80.0966V87H364.815ZM377.467 87.2557C376.776 87.2557 376.148 87.1255 375.585 86.8651C375.021 86.5999 374.574 86.2188 374.243 85.7216C373.911 85.2197 373.745 84.6136 373.745 83.9034C373.745 83.2784 373.868 82.7718 374.115 82.3835C374.361 81.9905 374.69 81.6828 375.102 81.4602C375.514 81.2377 375.968 81.072 376.466 80.9631C376.967 80.8494 377.472 80.7595 377.978 80.6932C378.641 80.608 379.179 80.544 379.591 80.5014C380.007 80.4541 380.31 80.3759 380.5 80.267C380.694 80.1581 380.791 79.9687 380.791 79.6989V79.642C380.791 78.9413 380.599 78.3968 380.216 78.0085C379.837 77.6203 379.261 77.4261 378.49 77.4261C377.69 77.4261 377.062 77.6013 376.608 77.9517C376.153 78.3021 375.833 78.6761 375.649 79.0739L374.058 78.5057C374.342 77.8428 374.721 77.3267 375.194 76.9574C375.672 76.5833 376.193 76.3229 376.757 76.1761C377.325 76.0246 377.884 75.9489 378.433 75.9489C378.783 75.9489 379.186 75.9915 379.64 76.0767C380.1 76.1572 380.542 76.3253 380.968 76.581C381.399 76.8366 381.757 77.2225 382.041 77.7386C382.325 78.2547 382.467 78.946 382.467 79.8125V87H380.791V85.5227H380.706C380.592 85.7595 380.403 86.0128 380.137 86.2827C379.872 86.5526 379.52 86.7822 379.079 86.9716C378.639 87.161 378.101 87.2557 377.467 87.2557ZM377.723 85.75C378.386 85.75 378.944 85.6198 379.399 85.3594C379.858 85.099 380.204 84.7628 380.436 84.3509C380.672 83.9389 380.791 83.5057 380.791 83.0511V81.517C380.72 81.6023 380.564 81.6804 380.322 81.7514C380.085 81.8177 379.811 81.8769 379.498 81.929C379.19 81.9763 378.89 82.0189 378.596 82.0568C378.307 82.09 378.073 82.1184 377.893 82.142C377.458 82.1989 377.05 82.2912 376.672 82.419C376.297 82.5421 375.994 82.7292 375.762 82.9801C375.535 83.2263 375.422 83.5625 375.422 83.9886C375.422 84.571 375.637 85.0114 376.068 85.3097C376.503 85.6032 377.055 85.75 377.723 85.75ZM311.129 96.4545H312.89V106.085C312.89 107.08 312.656 107.967 312.187 108.749C311.723 109.525 311.068 110.138 310.22 110.588C309.372 111.033 308.378 111.256 307.237 111.256C306.096 111.256 305.102 111.033 304.254 110.588C303.407 110.138 302.748 109.525 302.28 108.749C301.816 107.967 301.584 107.08 301.584 106.085V96.4545H303.345V105.943C303.345 106.653 303.501 107.286 303.814 107.839C304.126 108.389 304.571 108.822 305.149 109.139C305.731 109.452 306.427 109.608 307.237 109.608C308.047 109.608 308.743 109.452 309.325 109.139C309.907 108.822 310.353 108.389 310.66 107.839C310.973 107.286 311.129 106.653 311.129 105.943V96.4545ZM325.908 102.534L324.402 102.96C324.307 102.709 324.168 102.465 323.983 102.229C323.803 101.987 323.557 101.788 323.244 101.632C322.932 101.476 322.532 101.398 322.044 101.398C321.377 101.398 320.82 101.552 320.375 101.859C319.935 102.162 319.715 102.548 319.715 103.017C319.715 103.434 319.866 103.763 320.169 104.004C320.472 104.246 320.946 104.447 321.59 104.608L323.209 105.006C324.184 105.242 324.911 105.605 325.389 106.092C325.868 106.575 326.107 107.198 326.107 107.96C326.107 108.585 325.927 109.144 325.567 109.636C325.212 110.129 324.715 110.517 324.075 110.801C323.436 111.085 322.693 111.227 321.845 111.227C320.733 111.227 319.812 110.986 319.083 110.503C318.353 110.02 317.892 109.314 317.698 108.386L319.289 107.989C319.44 108.576 319.727 109.016 320.148 109.31C320.574 109.603 321.13 109.75 321.817 109.75C322.598 109.75 323.218 109.584 323.678 109.253C324.142 108.917 324.374 108.514 324.374 108.045C324.374 107.667 324.241 107.349 323.976 107.094C323.711 106.833 323.304 106.639 322.754 106.511L320.936 106.085C319.937 105.848 319.203 105.482 318.735 104.984C318.271 104.482 318.039 103.855 318.039 103.102C318.039 102.487 318.211 101.942 318.557 101.469C318.907 100.995 319.383 100.624 319.985 100.354C320.591 100.084 321.277 99.9489 322.044 99.9489C323.124 99.9489 323.971 100.186 324.587 100.659C325.207 101.133 325.647 101.758 325.908 102.534ZM335.204 111.227C334.153 111.227 333.246 110.995 332.483 110.531C331.726 110.062 331.141 109.409 330.729 108.571C330.322 107.728 330.118 106.748 330.118 105.631C330.118 104.513 330.322 103.528 330.729 102.676C331.141 101.819 331.714 101.152 332.448 100.673C333.187 100.19 334.048 99.9489 335.033 99.9489C335.601 99.9489 336.162 100.044 336.716 100.233C337.27 100.422 337.775 100.73 338.229 101.156C338.684 101.578 339.046 102.136 339.316 102.832C339.586 103.528 339.721 104.385 339.721 105.403V106.114H331.312V104.665H338.016C338.016 104.049 337.893 103.5 337.647 103.017C337.405 102.534 337.06 102.153 336.61 101.874C336.165 101.594 335.639 101.455 335.033 101.455C334.366 101.455 333.788 101.62 333.3 101.952C332.817 102.278 332.446 102.705 332.185 103.23C331.925 103.756 331.795 104.319 331.795 104.92V105.886C331.795 106.71 331.937 107.409 332.221 107.982C332.51 108.55 332.91 108.983 333.421 109.281C333.932 109.575 334.527 109.722 335.204 109.722C335.644 109.722 336.042 109.66 336.397 109.537C336.757 109.409 337.067 109.22 337.327 108.969C337.588 108.713 337.789 108.396 337.931 108.017L339.55 108.472C339.38 109.021 339.093 109.504 338.691 109.92C338.288 110.332 337.791 110.654 337.199 110.886C336.608 111.114 335.942 111.227 335.204 111.227ZM344.27 111V100.091H345.89V101.739H346.003C346.202 101.199 346.562 100.761 347.083 100.425C347.604 100.089 348.191 99.9205 348.844 99.9205C348.967 99.9205 349.121 99.9228 349.306 99.9276C349.491 99.9323 349.63 99.9394 349.725 99.9489V101.653C349.668 101.639 349.538 101.618 349.334 101.589C349.135 101.556 348.925 101.54 348.702 101.54C348.172 101.54 347.698 101.651 347.282 101.874C346.87 102.091 346.543 102.394 346.302 102.783C346.065 103.166 345.947 103.604 345.947 104.097V111H344.27Z" fill="black"/>
<circle cx="545" cy="41" r="20" fill="#FF8854"/>
<path d="M544.489 53.3182C542.792 53.3182 541.28 53.0265 539.955 52.4432C538.636 51.8523 537.595 51.0417 536.83 50.0114C536.072 48.9735 535.682 47.7765 535.659 46.4205H540.614C540.644 46.9886 540.83 47.4886 541.17 47.9205C541.519 48.3447 541.981 48.6742 542.557 48.9091C543.133 49.1439 543.78 49.2614 544.5 49.2614C545.25 49.2614 545.913 49.1288 546.489 48.8636C547.064 48.5985 547.515 48.2311 547.841 47.7614C548.167 47.2917 548.33 46.75 548.33 46.1364C548.33 45.5152 548.155 44.9659 547.807 44.4886C547.466 44.0038 546.973 43.625 546.33 43.3523C545.693 43.0795 544.936 42.9432 544.057 42.9432H541.886V39.3295H544.057C544.799 39.3295 545.455 39.2008 546.023 38.9432C546.598 38.6856 547.045 38.3295 547.364 37.875C547.682 37.4129 547.841 36.875 547.841 36.2614C547.841 35.678 547.701 35.1667 547.42 34.7273C547.148 34.2803 546.761 33.9318 546.261 33.6818C545.769 33.4318 545.193 33.3068 544.534 33.3068C543.867 33.3068 543.258 33.428 542.705 33.6705C542.152 33.9053 541.708 34.2424 541.375 34.6818C541.042 35.1212 540.864 35.6364 540.841 36.2273H536.125C536.148 34.8864 536.53 33.7045 537.273 32.6818C538.015 31.6591 539.015 30.8598 540.273 30.2841C541.538 29.7008 542.966 29.4091 544.557 29.4091C546.163 29.4091 547.568 29.7008 548.773 30.2841C549.977 30.8674 550.913 31.6553 551.58 32.6477C552.254 33.6326 552.587 34.7386 552.58 35.9659C552.587 37.2689 552.182 38.3561 551.364 39.2273C550.553 40.0985 549.496 40.6515 548.193 40.8864V41.0682C549.905 41.2879 551.208 41.8826 552.102 42.8523C553.004 43.8144 553.451 45.0189 553.443 46.4659C553.451 47.7917 553.068 48.9697 552.295 50C551.53 51.0303 550.473 51.8409 549.125 52.4318C547.777 53.0227 546.231 53.3182 544.489 53.3182Z" fill="black"/>
<path d="M473.142 75.017V73.4545H484.051V75.017H479.477V88H477.716V75.017H473.142ZM490.268 88.2557C489.576 88.2557 488.949 88.1255 488.386 87.8651C487.822 87.5999 487.375 87.2188 487.043 86.7216C486.712 86.2197 486.546 85.6136 486.546 84.9034C486.546 84.2784 486.669 83.7718 486.915 83.3835C487.162 82.9905 487.491 82.6828 487.903 82.4602C488.315 82.2377 488.769 82.072 489.266 81.9631C489.768 81.8494 490.272 81.7595 490.779 81.6932C491.442 81.608 491.979 81.544 492.391 81.5014C492.808 81.4541 493.111 81.3759 493.3 81.267C493.495 81.1581 493.592 80.9687 493.592 80.6989V80.642C493.592 79.9413 493.4 79.3968 493.016 79.0085C492.638 78.6203 492.062 78.4261 491.29 78.4261C490.49 78.4261 489.863 78.6013 489.408 78.9517C488.954 79.3021 488.634 79.6761 488.45 80.0739L486.859 79.5057C487.143 78.8428 487.522 78.3267 487.995 77.9574C488.473 77.5833 488.994 77.3229 489.558 77.1761C490.126 77.0246 490.684 76.9489 491.234 76.9489C491.584 76.9489 491.987 76.9915 492.441 77.0767C492.9 77.1572 493.343 77.3253 493.769 77.581C494.2 77.8366 494.558 78.2225 494.842 78.7386C495.126 79.2547 495.268 79.946 495.268 80.8125V88H493.592V86.5227H493.506C493.393 86.7595 493.203 87.0128 492.938 87.2827C492.673 87.5526 492.32 87.7822 491.88 87.9716C491.44 88.161 490.902 88.2557 490.268 88.2557ZM490.523 86.75C491.186 86.75 491.745 86.6198 492.2 86.3594C492.659 86.099 493.004 85.7628 493.237 85.3509C493.473 84.9389 493.592 84.5057 493.592 84.0511V82.517C493.521 82.6023 493.364 82.6804 493.123 82.7514C492.886 82.8177 492.612 82.8769 492.299 82.929C491.991 82.9763 491.691 83.0189 491.397 83.0568C491.108 83.09 490.874 83.1184 490.694 83.142C490.258 83.1989 489.851 83.2912 489.472 83.419C489.098 83.5421 488.795 83.7292 488.563 83.9801C488.336 84.2263 488.222 84.5625 488.222 84.9886C488.222 85.571 488.438 86.0114 488.869 86.3097C489.304 86.6032 489.856 86.75 490.523 86.75ZM502.003 81.4375V88H500.327V77.0909H501.946V78.7955H502.088C502.344 78.2415 502.732 77.7964 503.253 77.4602C503.774 77.1193 504.446 76.9489 505.27 76.9489C506.009 76.9489 506.655 77.1004 507.209 77.4034C507.763 77.7017 508.194 78.1562 508.502 78.767C508.81 79.3731 508.963 80.1402 508.963 81.0682V88H507.287V81.1818C507.287 80.3248 507.065 79.6572 506.62 79.179C506.175 78.696 505.564 78.4545 504.787 78.4545C504.252 78.4545 503.774 78.5705 503.353 78.8026C502.936 79.0346 502.607 79.3731 502.365 79.8182C502.124 80.2633 502.003 80.803 502.003 81.4375ZM518.146 88.2273C517.237 88.2273 516.434 87.9976 515.738 87.5384C515.042 87.0743 514.497 86.4209 514.104 85.5781C513.711 84.7306 513.515 83.7292 513.515 82.5739C513.515 81.428 513.711 80.4337 514.104 79.5909C514.497 78.7481 515.044 78.0971 515.745 77.6378C516.446 77.1785 517.255 76.9489 518.174 76.9489C518.884 76.9489 519.445 77.0672 519.857 77.304C520.274 77.536 520.591 77.8011 520.809 78.0994C521.031 78.393 521.204 78.6345 521.327 78.8239H521.469V73.4545H523.146V88H521.526V86.3239H521.327C521.204 86.5227 521.029 86.7737 520.802 87.0767C520.575 87.375 520.25 87.6425 519.829 87.8793C519.407 88.1113 518.846 88.2273 518.146 88.2273ZM518.373 86.7216C519.045 86.7216 519.613 86.5464 520.077 86.196C520.541 85.8409 520.894 85.3509 521.136 84.7259C521.377 84.0961 521.498 83.3693 521.498 82.5455C521.498 81.7311 521.379 81.0185 521.143 80.4077C520.906 79.7921 520.556 79.3139 520.092 78.973C519.628 78.6274 519.055 78.4545 518.373 78.4545C517.663 78.4545 517.071 78.6368 516.597 79.0014C516.129 79.3613 515.776 79.8513 515.539 80.4716C515.307 81.0871 515.191 81.7784 515.191 82.5455C515.191 83.322 515.309 84.0275 515.546 84.6619C515.788 85.2917 516.143 85.7936 516.612 86.1676C517.085 86.5369 517.672 86.7216 518.373 86.7216ZM531.658 88.2557C530.967 88.2557 530.34 88.1255 529.776 87.8651C529.213 87.5999 528.765 87.2188 528.434 86.7216C528.103 86.2197 527.937 85.6136 527.937 84.9034C527.937 84.2784 528.06 83.7718 528.306 83.3835C528.552 82.9905 528.881 82.6828 529.293 82.4602C529.705 82.2377 530.16 82.072 530.657 81.9631C531.159 81.8494 531.663 81.7595 532.17 81.6932C532.833 81.608 533.37 81.544 533.782 81.5014C534.199 81.4541 534.502 81.3759 534.691 81.267C534.885 81.1581 534.982 80.9687 534.982 80.6989V80.642C534.982 79.9413 534.79 79.3968 534.407 79.0085C534.028 78.6203 533.453 78.4261 532.681 78.4261C531.881 78.4261 531.254 78.6013 530.799 78.9517C530.344 79.3021 530.025 79.6761 529.84 80.0739L528.249 79.5057C528.533 78.8428 528.912 78.3267 529.386 77.9574C529.864 77.5833 530.385 77.3229 530.948 77.1761C531.516 77.0246 532.075 76.9489 532.624 76.9489C532.975 76.9489 533.377 76.9915 533.832 77.0767C534.291 77.1572 534.734 77.3253 535.16 77.581C535.591 77.8366 535.948 78.2225 536.232 78.7386C536.516 79.2547 536.658 79.946 536.658 80.8125V88H534.982V86.5227H534.897C534.783 86.7595 534.594 87.0128 534.329 87.2827C534.064 87.5526 533.711 87.7822 533.271 87.9716C532.83 88.161 532.293 88.2557 531.658 88.2557ZM531.914 86.75C532.577 86.75 533.136 86.6198 533.59 86.3594C534.049 86.099 534.395 85.7628 534.627 85.3509C534.864 84.9389 534.982 84.5057 534.982 84.0511V82.517C534.911 82.6023 534.755 82.6804 534.513 82.7514C534.277 82.8177 534.002 82.8769 533.69 82.929C533.382 82.9763 533.081 83.0189 532.788 83.0568C532.499 83.09 532.264 83.1184 532.085 83.142C531.649 83.1989 531.242 83.2912 530.863 83.419C530.489 83.5421 530.186 83.7292 529.954 83.9801C529.727 84.2263 529.613 84.5625 529.613 84.9886C529.613 85.571 529.828 86.0114 530.259 86.3097C530.695 86.6032 531.246 86.75 531.914 86.75ZM554.087 77.0909V78.5114H548.434V77.0909H554.087ZM550.081 74.4773H551.757V84.875C551.757 85.3485 551.826 85.7036 551.963 85.9403C552.105 86.1723 552.285 86.3286 552.503 86.4091C552.726 86.4848 552.96 86.5227 553.206 86.5227C553.391 86.5227 553.542 86.5133 553.661 86.4943C553.779 86.4706 553.874 86.4517 553.945 86.4375L554.286 87.9432C554.172 87.9858 554.014 88.0284 553.81 88.071C553.606 88.1184 553.348 88.142 553.036 88.142C552.562 88.142 552.098 88.0402 551.644 87.8366C551.194 87.633 550.82 87.3229 550.522 86.9062C550.228 86.4896 550.081 85.964 550.081 85.3295V74.4773ZM561.819 88.2557C561.127 88.2557 560.5 88.1255 559.936 87.8651C559.373 87.5999 558.926 87.2188 558.594 86.7216C558.263 86.2197 558.097 85.6136 558.097 84.9034C558.097 84.2784 558.22 83.7718 558.466 83.3835C558.712 82.9905 559.042 82.6828 559.453 82.4602C559.865 82.2377 560.32 82.072 560.817 81.9631C561.319 81.8494 561.823 81.7595 562.33 81.6932C562.993 81.608 563.53 81.544 563.942 81.5014C564.359 81.4541 564.662 81.3759 564.851 81.267C565.045 81.1581 565.142 80.9687 565.142 80.6989V80.642C565.142 79.9413 564.951 79.3968 564.567 79.0085C564.188 78.6203 563.613 78.4261 562.841 78.4261C562.041 78.4261 561.414 78.6013 560.959 78.9517C560.505 79.3021 560.185 79.6761 560 80.0739L558.409 79.5057C558.694 78.8428 559.072 78.3267 559.546 77.9574C560.024 77.5833 560.545 77.3229 561.108 77.1761C561.676 77.0246 562.235 76.9489 562.784 76.9489C563.135 76.9489 563.537 76.9915 563.992 77.0767C564.451 77.1572 564.894 77.3253 565.32 77.581C565.751 77.8366 566.108 78.2225 566.392 78.7386C566.676 79.2547 566.819 79.946 566.819 80.8125V88H565.142V86.5227H565.057C564.944 86.7595 564.754 87.0128 564.489 87.2827C564.224 87.5526 563.871 87.7822 563.431 87.9716C562.99 88.161 562.453 88.2557 561.819 88.2557ZM562.074 86.75C562.737 86.75 563.296 86.6198 563.75 86.3594C564.21 86.099 564.555 85.7628 564.787 85.3509C565.024 84.9389 565.142 84.5057 565.142 84.0511V82.517C565.071 82.6023 564.915 82.6804 564.674 82.7514C564.437 82.8177 564.162 82.8769 563.85 82.929C563.542 82.9763 563.241 83.0189 562.948 83.0568C562.659 83.09 562.425 83.1184 562.245 83.142C561.809 83.1989 561.402 83.2912 561.023 83.419C560.649 83.5421 560.346 83.7292 560.114 83.9801C559.887 84.2263 559.773 84.5625 559.773 84.9886C559.773 85.571 559.989 86.0114 560.419 86.3097C560.855 86.6032 561.407 86.75 562.074 86.75ZM573.554 81.4375V88H571.878V77.0909H573.497V78.7955H573.639C573.895 78.2415 574.283 77.7964 574.804 77.4602C575.325 77.1193 575.997 76.9489 576.821 76.9489C577.56 76.9489 578.206 77.1004 578.76 77.4034C579.314 77.7017 579.745 78.1562 580.053 78.767C580.36 79.3731 580.514 80.1402 580.514 81.0682V88H578.838V81.1818C578.838 80.3248 578.616 79.6572 578.17 79.179C577.725 78.696 577.115 78.4545 576.338 78.4545C575.803 78.4545 575.325 78.5705 574.903 78.8026C574.487 79.0346 574.158 79.3731 573.916 79.8182C573.675 80.2633 573.554 80.803 573.554 81.4375ZM589.98 92.3182C589.171 92.3182 588.475 92.214 587.892 92.0057C587.31 91.8021 586.825 91.5322 586.436 91.196C586.053 90.8646 585.748 90.5095 585.52 90.1307L586.855 89.1932C587.007 89.392 587.199 89.6193 587.431 89.875C587.663 90.1354 587.98 90.3603 588.382 90.5497C588.79 90.7438 589.322 90.8409 589.98 90.8409C590.861 90.8409 591.588 90.6278 592.161 90.2017C592.734 89.7756 593.02 89.108 593.02 88.1989V85.983H592.878C592.755 86.1818 592.58 86.428 592.353 86.7216C592.13 87.0104 591.808 87.2685 591.387 87.4957C590.97 87.7183 590.407 87.8295 589.696 87.8295C588.816 87.8295 588.025 87.6212 587.324 87.2045C586.628 86.7879 586.077 86.1818 585.669 85.3864C585.267 84.5909 585.066 83.625 585.066 82.4886C585.066 81.3712 585.262 80.3982 585.655 79.5696C586.048 78.7363 586.595 78.0923 587.296 77.6378C587.997 77.1785 588.806 76.9489 589.725 76.9489C590.435 76.9489 590.998 77.0672 591.415 77.304C591.837 77.536 592.158 77.8011 592.381 78.0994C592.608 78.393 592.783 78.6345 592.907 78.8239H593.077V77.0909H594.696V88.3125C594.696 89.25 594.483 90.0123 594.057 90.5994C593.636 91.1913 593.068 91.6245 592.353 91.8991C591.642 92.1785 590.852 92.3182 589.98 92.3182ZM589.924 86.3239C590.596 86.3239 591.164 86.17 591.628 85.8622C592.092 85.5545 592.445 85.1117 592.686 84.5341C592.928 83.9564 593.049 83.2652 593.049 82.4602C593.049 81.6742 592.93 80.9806 592.694 80.3793C592.457 79.7779 592.106 79.3068 591.642 78.9659C591.178 78.625 590.605 78.4545 589.924 78.4545C589.213 78.4545 588.622 78.6345 588.148 78.9943C587.679 79.3542 587.327 79.8371 587.09 80.4432C586.858 81.0492 586.742 81.7216 586.742 82.4602C586.742 83.2178 586.86 83.8878 587.097 84.4702C587.338 85.0478 587.694 85.5024 588.162 85.8338C588.636 86.1605 589.223 86.3239 589.924 86.3239ZM602.975 88.2557C602.283 88.2557 601.656 88.1255 601.093 87.8651C600.529 87.5999 600.082 87.2188 599.75 86.7216C599.419 86.2197 599.253 85.6136 599.253 84.9034C599.253 84.2784 599.376 83.7718 599.623 83.3835C599.869 82.9905 600.198 82.6828 600.61 82.4602C601.022 82.2377 601.476 82.072 601.973 81.9631C602.475 81.8494 602.98 81.7595 603.486 81.6932C604.149 81.608 604.686 81.544 605.098 81.5014C605.515 81.4541 605.818 81.3759 606.007 81.267C606.202 81.1581 606.299 80.9687 606.299 80.6989V80.642C606.299 79.9413 606.107 79.3968 605.723 79.0085C605.345 78.6203 604.769 78.4261 603.998 78.4261C603.197 78.4261 602.57 78.6013 602.115 78.9517C601.661 79.3021 601.341 79.6761 601.157 80.0739L599.566 79.5057C599.85 78.8428 600.229 78.3267 600.702 77.9574C601.18 77.5833 601.701 77.3229 602.265 77.1761C602.833 77.0246 603.391 76.9489 603.941 76.9489C604.291 76.9489 604.694 76.9915 605.148 77.0767C605.607 77.1572 606.05 77.3253 606.476 77.581C606.907 77.8366 607.265 78.2225 607.549 78.7386C607.833 79.2547 607.975 79.946 607.975 80.8125V88H606.299V86.5227H606.213C606.1 86.7595 605.91 87.0128 605.645 87.2827C605.38 87.5526 605.027 87.7822 604.587 87.9716C604.147 88.161 603.609 88.2557 602.975 88.2557ZM603.23 86.75C603.893 86.75 604.452 86.6198 604.907 86.3594C605.366 86.099 605.712 85.7628 605.944 85.3509C606.18 84.9389 606.299 84.5057 606.299 84.0511V82.517C606.228 82.6023 606.071 82.6804 605.83 82.7514C605.593 82.8177 605.319 82.8769 605.006 82.929C604.698 82.9763 604.398 83.0189 604.104 83.0568C603.815 83.09 603.581 83.1184 603.401 83.142C602.965 83.1989 602.558 83.2912 602.179 83.419C601.805 83.5421 601.502 83.7292 601.27 83.9801C601.043 84.2263 600.929 84.5625 600.929 84.9886C600.929 85.571 601.145 86.0114 601.576 86.3097C602.011 86.6032 602.563 86.75 603.23 86.75ZM614.71 81.4375V88H613.034V77.0909H614.653V78.7955H614.795C615.051 78.2415 615.439 77.7964 615.96 77.4602C616.481 77.1193 617.153 76.9489 617.977 76.9489C618.716 76.9489 619.362 77.1004 619.916 77.4034C620.47 77.7017 620.901 78.1562 621.209 78.767C621.517 79.3731 621.67 80.1402 621.67 81.0682V88H619.994V81.1818C619.994 80.3248 619.772 79.6572 619.327 79.179C618.882 78.696 618.271 78.4545 617.494 78.4545C616.959 78.4545 616.481 78.5705 616.06 78.8026C615.643 79.0346 615.314 79.3731 615.072 79.8182C614.831 80.2633 614.71 80.803 614.71 81.4375ZM484.817 108.023L484.789 105.949H485.13L489.903 101.091H491.976L486.891 106.233H486.749L484.817 108.023ZM483.255 112V97.4545H484.931V112H483.255ZM490.187 112L485.925 106.602L487.118 105.438L492.317 112H490.187ZM500.116 112.227C499.131 112.227 498.267 111.993 497.524 111.524C496.785 111.055 496.208 110.4 495.791 109.557C495.379 108.714 495.173 107.729 495.173 106.602C495.173 105.466 495.379 104.474 495.791 103.626C496.208 102.779 496.785 102.121 497.524 101.652C498.267 101.183 499.131 100.949 500.116 100.949C501.101 100.949 501.963 101.183 502.702 101.652C503.445 102.121 504.023 102.779 504.434 103.626C504.851 104.474 505.059 105.466 505.059 106.602C505.059 107.729 504.851 108.714 504.434 109.557C504.023 110.4 503.445 111.055 502.702 111.524C501.963 111.993 501.101 112.227 500.116 112.227ZM500.116 110.722C500.864 110.722 501.48 110.53 501.963 110.146C502.446 109.763 502.803 109.259 503.035 108.634C503.267 108.009 503.383 107.331 503.383 106.602C503.383 105.873 503.267 105.194 503.035 104.564C502.803 103.934 502.446 103.425 501.963 103.037C501.48 102.649 500.864 102.455 500.116 102.455C499.368 102.455 498.753 102.649 498.27 103.037C497.787 103.425 497.429 103.934 497.197 104.564C496.965 105.194 496.849 105.873 496.849 106.602C496.849 107.331 496.965 108.009 497.197 108.634C497.429 109.259 497.787 109.763 498.27 110.146C498.753 110.53 499.368 110.722 500.116 110.722ZM511.294 105.438V112H509.618V101.091H511.237V102.795H511.379C511.635 102.241 512.023 101.796 512.544 101.46C513.065 101.119 513.737 100.949 514.561 100.949C515.3 100.949 515.946 101.1 516.5 101.403C517.054 101.702 517.485 102.156 517.793 102.767C518.101 103.373 518.254 104.14 518.254 105.068V112H516.578V105.182C516.578 104.325 516.356 103.657 515.911 103.179C515.466 102.696 514.855 102.455 514.078 102.455C513.543 102.455 513.065 102.571 512.644 102.803C512.227 103.035 511.898 103.373 511.656 103.818C511.415 104.263 511.294 104.803 511.294 105.438ZM528.062 101.091V102.511H522.408V101.091H528.062ZM524.056 98.4773H525.732V108.875C525.732 109.348 525.801 109.704 525.938 109.94C526.08 110.172 526.26 110.329 526.478 110.409C526.7 110.485 526.935 110.523 527.181 110.523C527.366 110.523 527.517 110.513 527.635 110.494C527.754 110.471 527.849 110.452 527.92 110.438L528.26 111.943C528.147 111.986 527.988 112.028 527.785 112.071C527.581 112.118 527.323 112.142 527.01 112.142C526.537 112.142 526.073 112.04 525.618 111.837C525.169 111.633 524.795 111.323 524.496 110.906C524.203 110.49 524.056 109.964 524.056 109.33V98.4773ZM532.583 112V101.091H534.202V102.739H534.316C534.515 102.199 534.875 101.761 535.395 101.425C535.916 101.089 536.503 100.92 537.157 100.92C537.28 100.92 537.434 100.923 537.618 100.928C537.803 100.932 537.943 100.939 538.037 100.949V102.653C537.981 102.639 537.85 102.618 537.647 102.589C537.448 102.556 537.237 102.54 537.015 102.54C536.484 102.54 536.011 102.651 535.594 102.874C535.182 103.091 534.856 103.394 534.614 103.783C534.377 104.166 534.259 104.604 534.259 105.097V112H532.583ZM545.235 112.256C544.543 112.256 543.916 112.125 543.352 111.865C542.789 111.6 542.342 111.219 542.01 110.722C541.679 110.22 541.513 109.614 541.513 108.903C541.513 108.278 541.636 107.772 541.882 107.384C542.128 106.991 542.458 106.683 542.869 106.46C543.281 106.238 543.736 106.072 544.233 105.963C544.735 105.849 545.239 105.759 545.746 105.693C546.409 105.608 546.946 105.544 547.358 105.501C547.775 105.454 548.078 105.376 548.267 105.267C548.461 105.158 548.558 104.969 548.558 104.699V104.642C548.558 103.941 548.367 103.397 547.983 103.009C547.604 102.62 547.029 102.426 546.257 102.426C545.457 102.426 544.83 102.601 544.375 102.952C543.921 103.302 543.601 103.676 543.416 104.074L541.825 103.506C542.11 102.843 542.488 102.327 542.962 101.957C543.44 101.583 543.961 101.323 544.524 101.176C545.093 101.025 545.651 100.949 546.2 100.949C546.551 100.949 546.953 100.991 547.408 101.077C547.867 101.157 548.31 101.325 548.736 101.581C549.167 101.837 549.524 102.223 549.808 102.739C550.093 103.255 550.235 103.946 550.235 104.812V112H548.558V110.523H548.473C548.36 110.759 548.17 111.013 547.905 111.283C547.64 111.553 547.287 111.782 546.847 111.972C546.406 112.161 545.869 112.256 545.235 112.256ZM545.49 110.75C546.153 110.75 546.712 110.62 547.166 110.359C547.626 110.099 547.971 109.763 548.203 109.351C548.44 108.939 548.558 108.506 548.558 108.051V106.517C548.487 106.602 548.331 106.68 548.09 106.751C547.853 106.818 547.578 106.877 547.266 106.929C546.958 106.976 546.657 107.019 546.364 107.057C546.075 107.09 545.841 107.118 545.661 107.142C545.225 107.199 544.818 107.291 544.439 107.419C544.065 107.542 543.762 107.729 543.53 107.98C543.303 108.226 543.189 108.562 543.189 108.989C543.189 109.571 543.405 110.011 543.835 110.31C544.271 110.603 544.823 110.75 545.49 110.75ZM556.856 108.023L556.828 105.949H557.169L561.942 101.091H564.015L558.93 106.233H558.788L556.856 108.023ZM555.294 112V97.4545H556.97V112H555.294ZM562.226 112L557.964 106.602L559.157 105.438L564.356 112H562.226ZM579.917 112.227C579.008 112.227 578.205 111.998 577.509 111.538C576.813 111.074 576.269 110.421 575.876 109.578C575.483 108.731 575.286 107.729 575.286 106.574C575.286 105.428 575.483 104.434 575.876 103.591C576.269 102.748 576.816 102.097 577.517 101.638C578.217 101.179 579.027 100.949 579.945 100.949C580.656 100.949 581.217 101.067 581.629 101.304C582.045 101.536 582.363 101.801 582.58 102.099C582.803 102.393 582.976 102.634 583.099 102.824H583.241V97.4545H584.917V112H583.298V110.324H583.099C582.976 110.523 582.801 110.774 582.573 111.077C582.346 111.375 582.022 111.643 581.6 111.879C581.179 112.111 580.618 112.227 579.917 112.227ZM580.144 110.722C580.817 110.722 581.385 110.546 581.849 110.196C582.313 109.841 582.666 109.351 582.907 108.726C583.149 108.096 583.269 107.369 583.269 106.545C583.269 105.731 583.151 105.018 582.914 104.408C582.677 103.792 582.327 103.314 581.863 102.973C581.399 102.627 580.826 102.455 580.144 102.455C579.434 102.455 578.842 102.637 578.369 103.001C577.9 103.361 577.547 103.851 577.311 104.472C577.079 105.087 576.963 105.778 576.963 106.545C576.963 107.322 577.081 108.027 577.318 108.662C577.559 109.292 577.914 109.794 578.383 110.168C578.856 110.537 579.444 110.722 580.144 110.722ZM593.43 112.256C592.739 112.256 592.111 112.125 591.548 111.865C590.984 111.6 590.537 111.219 590.205 110.722C589.874 110.22 589.708 109.614 589.708 108.903C589.708 108.278 589.831 107.772 590.078 107.384C590.324 106.991 590.653 106.683 591.065 106.46C591.477 106.238 591.931 106.072 592.428 105.963C592.93 105.849 593.435 105.759 593.941 105.693C594.604 105.608 595.142 105.544 595.553 105.501C595.97 105.454 596.273 105.376 596.463 105.267C596.657 105.158 596.754 104.969 596.754 104.699V104.642C596.754 103.941 596.562 103.397 596.178 103.009C595.8 102.62 595.224 102.426 594.453 102.426C593.652 102.426 593.025 102.601 592.57 102.952C592.116 103.302 591.796 103.676 591.612 104.074L590.021 103.506C590.305 102.843 590.684 102.327 591.157 101.957C591.635 101.583 592.156 101.323 592.72 101.176C593.288 101.025 593.847 100.949 594.396 100.949C594.746 100.949 595.149 100.991 595.603 101.077C596.062 101.157 596.505 101.325 596.931 101.581C597.362 101.837 597.72 102.223 598.004 102.739C598.288 103.255 598.43 103.946 598.43 104.812V112H596.754V110.523H596.669C596.555 110.759 596.365 111.013 596.1 111.283C595.835 111.553 595.482 111.782 595.042 111.972C594.602 112.161 594.064 112.256 593.43 112.256ZM593.686 110.75C594.348 110.75 594.907 110.62 595.362 110.359C595.821 110.099 596.167 109.763 596.399 109.351C596.635 108.939 596.754 108.506 596.754 108.051V106.517C596.683 106.602 596.526 106.68 596.285 106.751C596.048 106.818 595.774 106.877 595.461 106.929C595.153 106.976 594.853 107.019 594.559 107.057C594.27 107.09 594.036 107.118 593.856 107.142C593.42 107.199 593.013 107.291 592.634 107.419C592.26 107.542 591.957 107.729 591.725 107.98C591.498 108.226 591.384 108.562 591.384 108.989C591.384 109.571 591.6 110.011 592.031 110.31C592.466 110.603 593.018 110.75 593.686 110.75ZM605.165 105.438V112H603.489V101.091H605.108V102.795H605.251C605.506 102.241 605.894 101.796 606.415 101.46C606.936 101.119 607.608 100.949 608.432 100.949C609.171 100.949 609.817 101.1 610.371 101.403C610.925 101.702 611.356 102.156 611.664 102.767C611.972 103.373 612.126 104.14 612.126 105.068V112H610.449V105.182C610.449 104.325 610.227 103.657 609.782 103.179C609.337 102.696 608.726 102.455 607.949 102.455C607.414 102.455 606.936 102.571 606.515 102.803C606.098 103.035 605.769 103.373 605.528 103.818C605.286 104.263 605.165 104.803 605.165 105.438ZM498.311 140.091V125.091H499.931V126.824H500.13C500.253 126.634 500.423 126.393 500.641 126.099C500.864 125.801 501.181 125.536 501.593 125.304C502.009 125.067 502.573 124.949 503.283 124.949C504.202 124.949 505.011 125.179 505.712 125.638C506.413 126.097 506.96 126.748 507.353 127.591C507.746 128.434 507.942 129.428 507.942 130.574C507.942 131.729 507.746 132.731 507.353 133.578C506.96 134.421 506.415 135.074 505.719 135.538C505.023 135.998 504.221 136.227 503.311 136.227C502.611 136.227 502.05 136.111 501.628 135.879C501.207 135.643 500.882 135.375 500.655 135.077C500.428 134.774 500.253 134.523 500.13 134.324H499.988V140.091H498.311ZM499.959 130.545C499.959 131.369 500.08 132.096 500.321 132.726C500.563 133.351 500.916 133.841 501.38 134.196C501.844 134.546 502.412 134.722 503.084 134.722C503.785 134.722 504.37 134.537 504.838 134.168C505.312 133.794 505.667 133.292 505.904 132.662C506.145 132.027 506.266 131.322 506.266 130.545C506.266 129.778 506.148 129.087 505.911 128.472C505.679 127.851 505.326 127.361 504.853 127.001C504.384 126.637 503.794 126.455 503.084 126.455C502.402 126.455 501.829 126.627 501.365 126.973C500.901 127.314 500.551 127.792 500.314 128.408C500.078 129.018 499.959 129.731 499.959 130.545ZM517.073 136.227C516.022 136.227 515.115 135.995 514.353 135.531C513.595 135.062 513.01 134.409 512.598 133.571C512.191 132.728 511.988 131.748 511.988 130.631C511.988 129.513 512.191 128.528 512.598 127.676C513.01 126.819 513.583 126.152 514.317 125.673C515.056 125.19 515.917 124.949 516.902 124.949C517.471 124.949 518.032 125.044 518.586 125.233C519.14 125.422 519.644 125.73 520.098 126.156C520.553 126.578 520.915 127.136 521.185 127.832C521.455 128.528 521.59 129.385 521.59 130.403V131.114H513.181V129.665H519.885C519.885 129.049 519.762 128.5 519.516 128.017C519.275 127.534 518.929 127.153 518.479 126.874C518.034 126.594 517.508 126.455 516.902 126.455C516.235 126.455 515.657 126.62 515.169 126.952C514.686 127.278 514.315 127.705 514.054 128.23C513.794 128.756 513.664 129.319 513.664 129.92V130.886C513.664 131.71 513.806 132.409 514.09 132.982C514.379 133.55 514.779 133.983 515.29 134.281C515.801 134.575 516.396 134.722 517.073 134.722C517.513 134.722 517.911 134.66 518.266 134.537C518.626 134.409 518.936 134.22 519.196 133.969C519.457 133.713 519.658 133.396 519.8 133.017L521.419 133.472C521.249 134.021 520.962 134.504 520.56 134.92C520.158 135.332 519.66 135.654 519.069 135.886C518.477 136.114 517.811 136.227 517.073 136.227ZM526.14 136V125.091H527.759V126.739H527.873C528.071 126.199 528.431 125.761 528.952 125.425C529.473 125.089 530.06 124.92 530.713 124.92C530.837 124.92 530.99 124.923 531.175 124.928C531.36 124.932 531.499 124.939 531.594 124.949V126.653C531.537 126.639 531.407 126.618 531.203 126.589C531.005 126.556 530.794 126.54 530.571 126.54C530.041 126.54 529.568 126.651 529.151 126.874C528.739 127.091 528.412 127.394 528.171 127.783C527.934 128.166 527.816 128.604 527.816 129.097V136H526.14ZM535.581 125.091H537.257V136.795C537.257 137.468 537.141 138.05 536.909 138.543C536.682 139.035 536.336 139.416 535.872 139.686C535.413 139.956 534.833 140.091 534.132 140.091C534.075 140.091 534.018 140.091 533.962 140.091C533.905 140.091 533.848 140.091 533.791 140.091V138.528C533.848 138.528 533.9 138.528 533.947 138.528C533.995 138.528 534.047 138.528 534.104 138.528C534.615 138.528 534.989 138.377 535.226 138.074C535.463 137.776 535.581 137.349 535.581 136.795V125.091ZM536.405 123.273C536.078 123.273 535.796 123.161 535.56 122.939C535.328 122.716 535.212 122.449 535.212 122.136C535.212 121.824 535.328 121.556 535.56 121.334C535.796 121.111 536.078 121 536.405 121C536.732 121 537.011 121.111 537.243 121.334C537.48 121.556 537.598 121.824 537.598 122.136C537.598 122.449 537.48 122.716 537.243 122.939C537.011 123.161 536.732 123.273 536.405 123.273ZM545.537 136.256C544.846 136.256 544.219 136.125 543.655 135.865C543.092 135.6 542.644 135.219 542.313 134.722C541.981 134.22 541.816 133.614 541.816 132.903C541.816 132.278 541.939 131.772 542.185 131.384C542.431 130.991 542.76 130.683 543.172 130.46C543.584 130.238 544.039 130.072 544.536 129.963C545.038 129.849 545.542 129.759 546.049 129.693C546.712 129.608 547.249 129.544 547.661 129.501C548.078 129.454 548.381 129.376 548.57 129.267C548.764 129.158 548.861 128.969 548.861 128.699V128.642C548.861 127.941 548.669 127.397 548.286 127.009C547.907 126.62 547.332 126.426 546.56 126.426C545.76 126.426 545.132 126.601 544.678 126.952C544.223 127.302 543.904 127.676 543.719 128.074L542.128 127.506C542.412 126.843 542.791 126.327 543.265 125.957C543.743 125.583 544.264 125.323 544.827 125.176C545.395 125.025 545.954 124.949 546.503 124.949C546.854 124.949 547.256 124.991 547.711 125.077C548.17 125.157 548.613 125.325 549.039 125.581C549.47 125.837 549.827 126.223 550.111 126.739C550.395 127.255 550.537 127.946 550.537 128.812V136H548.861V134.523H548.776C548.662 134.759 548.473 135.013 548.208 135.283C547.943 135.553 547.59 135.782 547.15 135.972C546.709 136.161 546.172 136.256 545.537 136.256ZM545.793 134.75C546.456 134.75 547.015 134.62 547.469 134.359C547.928 134.099 548.274 133.763 548.506 133.351C548.743 132.939 548.861 132.506 548.861 132.051V130.517C548.79 130.602 548.634 130.68 548.392 130.751C548.156 130.818 547.881 130.877 547.569 130.929C547.261 130.976 546.96 131.019 546.667 131.057C546.378 131.09 546.143 131.118 545.963 131.142C545.528 131.199 545.121 131.291 544.742 131.419C544.368 131.542 544.065 131.729 543.833 131.98C543.605 132.226 543.492 132.562 543.492 132.989C543.492 133.571 543.707 134.011 544.138 134.31C544.574 134.603 545.125 134.75 545.793 134.75ZM557.273 129.438V136H555.597V125.091H557.216V126.795H557.358C557.614 126.241 558.002 125.796 558.523 125.46C559.044 125.119 559.716 124.949 560.54 124.949C561.278 124.949 561.925 125.1 562.479 125.403C563.033 125.702 563.464 126.156 563.771 126.767C564.079 127.373 564.233 128.14 564.233 129.068V136H562.557V129.182C562.557 128.325 562.334 127.657 561.889 127.179C561.444 126.696 560.833 126.455 560.057 126.455C559.522 126.455 559.044 126.571 558.622 126.803C558.205 127.035 557.876 127.373 557.635 127.818C557.393 128.263 557.273 128.803 557.273 129.438ZM569.296 125.091H570.972V136.795C570.972 137.468 570.856 138.05 570.624 138.543C570.397 139.035 570.051 139.416 569.587 139.686C569.128 139.956 568.548 140.091 567.847 140.091C567.79 140.091 567.733 140.091 567.676 140.091C567.62 140.091 567.563 140.091 567.506 140.091V138.528C567.563 138.528 567.615 138.528 567.662 138.528C567.71 138.528 567.762 138.528 567.819 138.528C568.33 138.528 568.704 138.377 568.941 138.074C569.177 137.776 569.296 137.349 569.296 136.795V125.091ZM570.12 123.273C569.793 123.273 569.511 123.161 569.275 122.939C569.042 122.716 568.926 122.449 568.926 122.136C568.926 121.824 569.042 121.556 569.275 121.334C569.511 121.111 569.793 121 570.12 121C570.446 121 570.726 121.111 570.958 121.334C571.194 121.556 571.313 121.824 571.313 122.136C571.313 122.449 571.194 122.716 570.958 122.939C570.726 123.161 570.446 123.273 570.12 123.273ZM576.042 136V125.091H577.718V136H576.042ZM576.894 123.273C576.567 123.273 576.286 123.161 576.049 122.939C575.817 122.716 575.701 122.449 575.701 122.136C575.701 121.824 575.817 121.556 576.049 121.334C576.286 121.111 576.567 121 576.894 121C577.221 121 577.5 121.111 577.732 121.334C577.969 121.556 578.087 121.824 578.087 122.136C578.087 122.449 577.969 122.716 577.732 122.939C577.5 123.161 577.221 123.273 576.894 123.273ZM585.998 136.256C585.307 136.256 584.68 136.125 584.116 135.865C583.553 135.6 583.105 135.219 582.774 134.722C582.442 134.22 582.277 133.614 582.277 132.903C582.277 132.278 582.4 131.772 582.646 131.384C582.892 130.991 583.221 130.683 583.633 130.46C584.045 130.238 584.5 130.072 584.997 129.963C585.499 129.849 586.003 129.759 586.51 129.693C587.172 129.608 587.71 129.544 588.122 129.501C588.538 129.454 588.842 129.376 589.031 129.267C589.225 129.158 589.322 128.969 589.322 128.699V128.642C589.322 127.941 589.13 127.397 588.747 127.009C588.368 126.62 587.793 126.426 587.021 126.426C586.221 126.426 585.593 126.601 585.139 126.952C584.684 127.302 584.365 127.676 584.18 128.074L582.589 127.506C582.873 126.843 583.252 126.327 583.725 125.957C584.204 125.583 584.725 125.323 585.288 125.176C585.856 125.025 586.415 124.949 586.964 124.949C587.315 124.949 587.717 124.991 588.172 125.077C588.631 125.157 589.074 125.325 589.5 125.581C589.931 125.837 590.288 126.223 590.572 126.739C590.856 127.255 590.998 127.946 590.998 128.812V136H589.322V134.523H589.237C589.123 134.759 588.934 135.013 588.669 135.283C588.404 135.553 588.051 135.782 587.61 135.972C587.17 136.161 586.633 136.256 585.998 136.256ZM586.254 134.75C586.917 134.75 587.475 134.62 587.93 134.359C588.389 134.099 588.735 133.763 588.967 133.351C589.204 132.939 589.322 132.506 589.322 132.051V130.517C589.251 130.602 589.095 130.68 588.853 130.751C588.617 130.818 588.342 130.877 588.029 130.929C587.722 130.976 587.421 131.019 587.127 131.057C586.839 131.09 586.604 131.118 586.424 131.142C585.989 131.199 585.582 131.291 585.203 131.419C584.829 131.542 584.526 131.729 584.294 131.98C584.066 132.226 583.953 132.562 583.953 132.989C583.953 133.571 584.168 134.011 584.599 134.31C585.035 134.603 585.586 134.75 586.254 134.75ZM597.734 129.438V136H596.058V125.091H597.677V126.795H597.819C598.075 126.241 598.463 125.796 598.984 125.46C599.504 125.119 600.177 124.949 601.001 124.949C601.739 124.949 602.386 125.1 602.94 125.403C603.494 125.702 603.924 126.156 604.232 126.767C604.54 127.373 604.694 128.14 604.694 129.068V136H603.018V129.182C603.018 128.325 602.795 127.657 602.35 127.179C601.905 126.696 601.294 126.455 600.518 126.455C599.983 126.455 599.504 126.571 599.083 126.803C598.666 127.035 598.337 127.373 598.096 127.818C597.854 128.263 597.734 128.803 597.734 129.438Z" fill="black"/>
<circle cx="771" cy="41" r="20" fill="#FF8854"/>
<path d="M761.534 48.9091V45.0341L771.25 29.7273H774.591V35.0909H772.614L766.489 44.7841V44.9659H780.295V48.9091H761.534ZM772.705 53V47.7273L772.795 46.0114V29.7273H777.409V53H772.705Z" fill="black"/>
<path d="M771.067 80.7273C771.067 82.2614 770.79 83.5871 770.236 84.7045C769.682 85.822 768.922 86.6837 767.956 87.2898C766.991 87.8958 765.887 88.1989 764.647 88.1989C763.406 88.1989 762.303 87.8958 761.337 87.2898C760.371 86.6837 759.611 85.822 759.057 84.7045C758.503 83.5871 758.226 82.2614 758.226 80.7273C758.226 79.1932 758.503 77.8674 759.057 76.75C759.611 75.6326 760.371 74.7708 761.337 74.1648C762.303 73.5587 763.406 73.2557 764.647 73.2557C765.887 73.2557 766.991 73.5587 767.956 74.1648C768.922 74.7708 769.682 75.6326 770.236 76.75C770.79 77.8674 771.067 79.1932 771.067 80.7273ZM769.363 80.7273C769.363 79.4678 769.152 78.4048 768.731 77.5384C768.314 76.6719 767.748 76.0161 767.033 75.571C766.323 75.1259 765.528 74.9034 764.647 74.9034C763.766 74.9034 762.968 75.1259 762.253 75.571C761.543 76.0161 760.977 76.6719 760.556 77.5384C760.139 78.4048 759.931 79.4678 759.931 80.7273C759.931 81.9867 760.139 83.0497 760.556 83.9162C760.977 84.7827 761.543 85.4384 762.253 85.8835C762.968 86.3286 763.766 86.5511 764.647 86.5511C765.528 86.5511 766.323 86.3286 767.033 85.8835C767.748 85.4384 768.314 84.7827 768.731 83.9162C769.152 83.0497 769.363 81.9867 769.363 80.7273ZM777.478 81.4375V88H775.802V77.0909H777.421V78.7955H777.563C777.819 78.2415 778.207 77.7964 778.728 77.4602C779.249 77.1193 779.921 76.9489 780.745 76.9489C781.483 76.9489 782.13 77.1004 782.684 77.4034C783.238 77.7017 783.669 78.1562 783.976 78.767C784.284 79.3731 784.438 80.1402 784.438 81.0682V88H782.762V81.1818C782.762 80.3248 782.539 79.6572 782.094 79.179C781.649 78.696 781.038 78.4545 780.262 78.4545C779.727 78.4545 779.249 78.5705 778.827 78.8026C778.411 79.0346 778.081 79.3731 777.84 79.8182C777.599 80.2633 777.478 80.803 777.478 81.4375ZM724.074 112V97.4545H729.159C730.172 97.4545 731.008 97.6297 731.666 97.9801C732.324 98.3258 732.814 98.7921 733.136 99.3793C733.458 99.9616 733.619 100.608 733.619 101.318C733.619 101.943 733.508 102.459 733.286 102.866C733.068 103.274 732.779 103.596 732.419 103.832C732.064 104.069 731.678 104.244 731.261 104.358V104.5C731.706 104.528 732.154 104.685 732.604 104.969C733.054 105.253 733.43 105.66 733.733 106.19C734.036 106.721 734.188 107.369 734.188 108.136C734.188 108.866 734.022 109.521 733.69 110.104C733.359 110.686 732.836 111.148 732.121 111.489C731.406 111.83 730.475 112 729.33 112H724.074ZM725.835 110.438H729.33C730.48 110.438 731.297 110.215 731.78 109.77C732.268 109.32 732.511 108.776 732.511 108.136C732.511 107.644 732.386 107.189 732.135 106.773C731.884 106.351 731.527 106.015 731.062 105.764C730.598 105.509 730.049 105.381 729.415 105.381H725.835V110.438ZM725.835 103.847H729.102C729.633 103.847 730.111 103.742 730.537 103.534C730.968 103.326 731.309 103.032 731.56 102.653C731.815 102.275 731.943 101.83 731.943 101.318C731.943 100.679 731.721 100.137 731.276 99.6918C730.83 99.242 730.125 99.017 729.159 99.017H725.835V103.847ZM743.286 112.227C742.301 112.227 741.437 111.993 740.694 111.524C739.955 111.055 739.378 110.4 738.961 109.557C738.549 108.714 738.343 107.729 738.343 106.602C738.343 105.466 738.549 104.474 738.961 103.626C739.378 102.779 739.955 102.121 740.694 101.652C741.437 101.183 742.301 100.949 743.286 100.949C744.271 100.949 745.133 101.183 745.871 101.652C746.615 102.121 747.192 102.779 747.604 103.626C748.021 104.474 748.229 105.466 748.229 106.602C748.229 107.729 748.021 108.714 747.604 109.557C747.192 110.4 746.615 111.055 745.871 111.524C745.133 111.993 744.271 112.227 743.286 112.227ZM743.286 110.722C744.034 110.722 744.65 110.53 745.133 110.146C745.616 109.763 745.973 109.259 746.205 108.634C746.437 108.009 746.553 107.331 746.553 106.602C746.553 105.873 746.437 105.194 746.205 104.564C745.973 103.934 745.616 103.425 745.133 103.037C744.65 102.649 744.034 102.455 743.286 102.455C742.538 102.455 741.923 102.649 741.44 103.037C740.957 103.425 740.599 103.934 740.367 104.564C740.135 105.194 740.019 105.873 740.019 106.602C740.019 107.331 740.135 108.009 740.367 108.634C740.599 109.259 740.957 109.763 741.44 110.146C741.923 110.53 742.538 110.722 743.286 110.722ZM755.998 112.256C755.307 112.256 754.68 112.125 754.116 111.865C753.553 111.6 753.105 111.219 752.774 110.722C752.442 110.22 752.277 109.614 752.277 108.903C752.277 108.278 752.4 107.772 752.646 107.384C752.892 106.991 753.221 106.683 753.633 106.46C754.045 106.238 754.5 106.072 754.997 105.963C755.499 105.849 756.003 105.759 756.51 105.693C757.172 105.608 757.71 105.544 758.122 105.501C758.538 105.454 758.842 105.376 759.031 105.267C759.225 105.158 759.322 104.969 759.322 104.699V104.642C759.322 103.941 759.13 103.397 758.747 103.009C758.368 102.62 757.793 102.426 757.021 102.426C756.221 102.426 755.593 102.601 755.139 102.952C754.684 103.302 754.365 103.676 754.18 104.074L752.589 103.506C752.873 102.843 753.252 102.327 753.725 101.957C754.204 101.583 754.725 101.323 755.288 101.176C755.856 101.025 756.415 100.949 756.964 100.949C757.315 100.949 757.717 100.991 758.172 101.077C758.631 101.157 759.074 101.325 759.5 101.581C759.931 101.837 760.288 102.223 760.572 102.739C760.856 103.255 760.998 103.946 760.998 104.812V112H759.322V110.523H759.237C759.123 110.759 758.934 111.013 758.669 111.283C758.404 111.553 758.051 111.782 757.61 111.972C757.17 112.161 756.633 112.256 755.998 112.256ZM756.254 110.75C756.917 110.75 757.475 110.62 757.93 110.359C758.389 110.099 758.735 109.763 758.967 109.351C759.204 108.939 759.322 108.506 759.322 108.051V106.517C759.251 106.602 759.095 106.68 758.853 106.751C758.617 106.818 758.342 106.877 758.029 106.929C757.722 106.976 757.421 107.019 757.127 107.057C756.839 107.09 756.604 107.118 756.424 107.142C755.989 107.199 755.582 107.291 755.203 107.419C754.829 107.542 754.526 107.729 754.294 107.98C754.066 108.226 753.953 108.562 753.953 108.989C753.953 109.571 754.168 110.011 754.599 110.31C755.035 110.603 755.586 110.75 756.254 110.75ZM766.058 112V101.091H767.677V102.739H767.79C767.989 102.199 768.349 101.761 768.87 101.425C769.391 101.089 769.978 100.92 770.631 100.92C770.754 100.92 770.908 100.923 771.093 100.928C771.278 100.932 771.417 100.939 771.512 100.949V102.653C771.455 102.639 771.325 102.618 771.121 102.589C770.923 102.556 770.712 102.54 770.489 102.54C769.959 102.54 769.486 102.651 769.069 102.874C768.657 103.091 768.33 103.394 768.089 103.783C767.852 104.166 767.734 104.604 767.734 105.097V112H766.058ZM779.286 112.227C778.377 112.227 777.575 111.998 776.879 111.538C776.183 111.074 775.638 110.421 775.245 109.578C774.852 108.731 774.656 107.729 774.656 106.574C774.656 105.428 774.852 104.434 775.245 103.591C775.638 102.748 776.185 102.097 776.886 101.638C777.586 101.179 778.396 100.949 779.315 100.949C780.025 100.949 780.586 101.067 780.998 101.304C781.415 101.536 781.732 101.801 781.95 102.099C782.172 102.393 782.345 102.634 782.468 102.824H782.61V97.4545H784.286V112H782.667V110.324H782.468C782.345 110.523 782.17 110.774 781.942 111.077C781.715 111.375 781.391 111.643 780.969 111.879C780.548 112.111 779.987 112.227 779.286 112.227ZM779.513 110.722C780.186 110.722 780.754 110.546 781.218 110.196C781.682 109.841 782.035 109.351 782.276 108.726C782.518 108.096 782.638 107.369 782.638 106.545C782.638 105.731 782.52 105.018 782.283 104.408C782.047 103.792 781.696 103.314 781.232 102.973C780.768 102.627 780.195 102.455 779.513 102.455C778.803 102.455 778.211 102.637 777.738 103.001C777.269 103.361 776.916 103.851 776.68 104.472C776.448 105.087 776.332 105.778 776.332 106.545C776.332 107.322 776.45 108.027 776.687 108.662C776.928 109.292 777.283 109.794 777.752 110.168C778.226 110.537 778.813 110.722 779.513 110.722ZM789.589 112V101.091H791.265V112H789.589ZM790.441 99.2727C790.114 99.2727 789.833 99.1615 789.596 98.9389C789.364 98.7164 789.248 98.4489 789.248 98.1364C789.248 97.8239 789.364 97.5563 789.596 97.3338C789.833 97.1113 790.114 97 790.441 97C790.768 97 791.047 97.1113 791.279 97.3338C791.516 97.5563 791.634 97.8239 791.634 98.1364C791.634 98.4489 791.516 98.7164 791.279 98.9389C791.047 99.1615 790.768 99.2727 790.441 99.2727ZM798.011 105.438V112H796.335V101.091H797.954V102.795H798.096C798.352 102.241 798.74 101.796 799.261 101.46C799.782 101.119 800.454 100.949 801.278 100.949C802.017 100.949 802.663 101.1 803.217 101.403C803.771 101.702 804.202 102.156 804.51 102.767C804.817 103.373 804.971 104.14 804.971 105.068V112H803.295V105.182C803.295 104.325 803.073 103.657 802.627 103.179C802.182 102.696 801.572 102.455 800.795 102.455C800.26 102.455 799.782 102.571 799.36 102.803C798.944 103.035 798.615 103.373 798.373 103.818C798.132 104.263 798.011 104.803 798.011 105.438ZM814.438 116.318C813.628 116.318 812.932 116.214 812.349 116.006C811.767 115.802 811.282 115.532 810.893 115.196C810.51 114.865 810.205 114.509 809.977 114.131L811.312 113.193C811.464 113.392 811.656 113.619 811.888 113.875C812.12 114.135 812.437 114.36 812.839 114.55C813.247 114.744 813.779 114.841 814.438 114.841C815.318 114.841 816.045 114.628 816.618 114.202C817.191 113.776 817.477 113.108 817.477 112.199V109.983H817.335C817.212 110.182 817.037 110.428 816.81 110.722C816.587 111.01 816.265 111.268 815.844 111.496C815.427 111.718 814.864 111.83 814.153 111.83C813.273 111.83 812.482 111.621 811.781 111.205C811.085 110.788 810.534 110.182 810.126 109.386C809.724 108.591 809.523 107.625 809.523 106.489C809.523 105.371 809.719 104.398 810.112 103.57C810.505 102.736 811.052 102.092 811.753 101.638C812.454 101.179 813.263 100.949 814.182 100.949C814.892 100.949 815.455 101.067 815.872 101.304C816.294 101.536 816.616 101.801 816.838 102.099C817.065 102.393 817.241 102.634 817.364 102.824H817.534V101.091H819.153V112.312C819.153 113.25 818.94 114.012 818.514 114.599C818.093 115.191 817.525 115.625 816.81 115.899C816.099 116.179 815.309 116.318 814.438 116.318ZM814.381 110.324C815.053 110.324 815.621 110.17 816.085 109.862C816.549 109.554 816.902 109.112 817.143 108.534C817.385 107.956 817.506 107.265 817.506 106.46C817.506 105.674 817.387 104.981 817.151 104.379C816.914 103.778 816.563 103.307 816.099 102.966C815.635 102.625 815.063 102.455 814.381 102.455C813.67 102.455 813.079 102.634 812.605 102.994C812.136 103.354 811.784 103.837 811.547 104.443C811.315 105.049 811.199 105.722 811.199 106.46C811.199 107.218 811.317 107.888 811.554 108.47C811.795 109.048 812.151 109.502 812.619 109.834C813.093 110.161 813.68 110.324 814.381 110.324Z" fill="black"/>
<line x1="115" y1="39" x2="298" y2="39" stroke="black" stroke-width="2"/>
<line x1="341" y1="40" x2="524" y2="40" stroke="black" stroke-width="2"/>
<line x1="566" y1="40" x2="750" y2="40" stroke="black" stroke-width="2"/>
</svg>
