<svg width="50" height="29" viewBox="0 0 50 29" fill="none" xmlns="http://www.w3.org/2000/svg">
<g clip-path="url(#clip0_1300_140)">
<path d="M7.81351 21.8435C6.56342 21.8434 5.33162 21.5433 4.22153 20.9685C3.11144 20.3936 2.15549 19.5608 1.43393 18.54C0.712382 17.5192 0.246301 16.3401 0.0748304 15.1019C-0.0966404 13.8636 0.031505 12.6023 0.448506 11.4238C0.865506 10.2453 1.55919 9.18407 2.4713 8.32922C3.38341 7.47437 4.48732 6.85086 5.69033 6.51103C6.89334 6.17121 8.16033 6.12499 9.3849 6.37628C10.6095 6.62756 11.7559 7.169 12.7278 7.95513C13.0611 8.22495 13.2735 8.61611 13.3184 9.04256C13.3633 9.46901 13.2369 9.89581 12.9671 10.2291C12.6973 10.5624 12.3061 10.7748 11.8797 10.8197C11.4532 10.8645 11.0264 10.7382 10.6931 10.4683C9.88025 9.80546 8.86239 9.44548 7.81351 9.4499C6.59875 9.4499 5.43375 9.93246 4.57479 10.7914C3.71583 11.6504 3.23327 12.8154 3.23327 14.0301C3.23327 15.2449 3.71583 16.4099 4.57479 17.2689C5.43375 18.1278 6.59875 18.6104 7.81351 18.6104C8.86752 18.6151 9.89014 18.2519 10.705 17.5833C11.0373 17.3118 11.4638 17.1834 11.8907 17.2263C12.3177 17.2693 12.7101 17.4801 12.9816 17.8123C13.2532 18.1446 13.3816 18.5711 13.3386 18.9981C13.2957 19.425 13.0849 19.8174 12.7526 20.089C11.3566 21.2237 9.61251 21.8432 7.81351 21.8435Z" fill="#005D67"/>
<path d="M31.1758 21.8435C29.9257 21.8434 28.6939 21.5433 27.5838 20.9685C26.4737 20.3936 25.5178 19.5608 24.7962 18.54C24.0747 17.5192 23.6086 16.3401 23.4371 15.1019C23.2657 13.8636 23.3938 12.6023 23.8108 11.4238C24.2278 10.2453 24.9215 9.18407 25.8336 8.32922C26.7457 7.47437 27.8496 6.85086 29.0526 6.51103C30.2556 6.17121 31.5226 6.12499 32.7472 6.37628C33.9718 6.62756 35.1182 7.169 36.0901 7.95513C36.2552 8.08873 36.3922 8.25353 36.4936 8.44011C36.5949 8.62669 36.6585 8.8314 36.6807 9.04256C36.7029 9.25371 36.6833 9.46718 36.6231 9.67076C36.5628 9.87435 36.463 10.0641 36.3294 10.2291C36.1958 10.3941 36.031 10.5312 35.8444 10.6325C35.6578 10.7339 35.4531 10.7974 35.242 10.8197C35.0308 10.8419 34.8173 10.8223 34.6138 10.762C34.4102 10.7017 34.2205 10.6019 34.0554 10.4683C33.2426 9.80546 32.2247 9.44548 31.1758 9.4499C30.5743 9.4499 29.9787 9.56838 29.423 9.79855C28.8673 10.0287 28.3624 10.3661 27.9371 10.7914C27.5118 11.2167 27.1744 11.7217 26.9442 12.2774C26.714 12.8331 26.5956 13.4287 26.5956 14.0301C26.5956 14.6316 26.714 15.2272 26.9442 15.7829C27.1744 16.3386 27.5118 16.8435 27.9371 17.2689C28.3624 17.6942 28.8673 18.0315 29.423 18.2617C29.9787 18.4919 30.5743 18.6104 31.1758 18.6104C32.2298 18.6151 33.2524 18.2519 34.0673 17.5833C34.2318 17.4489 34.4212 17.3481 34.6247 17.2869C34.8281 17.2256 35.0416 17.2051 35.253 17.2263C35.4644 17.2476 35.6696 17.3103 35.8568 17.4108C36.0439 17.5114 36.2095 17.6478 36.3439 17.8123C36.4784 17.9769 36.5791 18.1663 36.6404 18.3697C36.7016 18.5732 36.7222 18.7867 36.7009 18.9981C36.6797 19.2095 36.617 19.4146 36.5164 19.6018C36.4159 19.789 36.2794 19.9545 36.1149 20.089C34.719 21.2238 32.9748 21.8434 31.1758 21.8435Z" fill="#17B58B"/>
<path d="M18.3548 21.8435C17.9261 21.8435 17.5149 21.6732 17.2118 21.37C16.9086 21.0668 16.7383 20.6557 16.7383 20.2269V7.83335C16.7383 7.40461 16.9086 6.99344 17.2118 6.69027C17.5149 6.38711 17.9261 6.2168 18.3548 6.2168C18.7836 6.2168 19.1947 6.38711 19.4979 6.69027C19.8011 6.99344 19.9714 7.40461 19.9714 7.83335V20.2269C19.9714 20.6557 19.8011 21.0668 19.4979 21.37C19.1947 21.6732 18.7836 21.8435 18.3548 21.8435Z" fill="#049CA5"/>
<path d="M41.7484 21.8435C41.3197 21.8435 40.9085 21.6732 40.6053 21.37C40.3022 21.0668 40.1318 20.6557 40.1318 20.2269V7.83335C40.1318 7.40461 40.3022 6.99344 40.6053 6.69027C40.9085 6.38711 41.3197 6.2168 41.7484 6.2168C42.1771 6.2168 42.5883 6.38711 42.8915 6.69027C43.1946 6.99344 43.3649 7.40461 43.3649 7.83335V20.2269C43.3649 20.6557 43.1946 21.0668 42.8915 21.37C42.5883 21.6732 42.1771 21.8435 41.7484 21.8435Z" fill="#0AA54B"/>
<path d="M41.7484 4.98761C41.3197 4.98761 40.9085 4.81729 40.6053 4.51413C40.3022 4.21097 40.1318 3.79979 40.1318 3.37106V2.52183C40.1318 2.09309 40.3022 1.68191 40.6053 1.37875C40.9085 1.07559 41.3197 0.905273 41.7484 0.905273C42.1771 0.905273 42.5883 1.07559 42.8915 1.37875C43.1946 1.68191 43.3649 2.09309 43.3649 2.52183V3.37106C43.3649 3.79979 43.1946 4.21097 42.8915 4.51413C42.5883 4.81729 42.1771 4.98761 41.7484 4.98761Z" fill="#0AA54B"/>
<path d="M18.3548 4.98761C17.9261 4.98761 17.5149 4.81729 17.2118 4.51413C16.9086 4.21097 16.7383 3.79979 16.7383 3.37106V2.52183C16.7383 2.09309 16.9086 1.68191 17.2118 1.37875C17.5149 1.07559 17.9261 0.905273 18.3548 0.905273C18.7836 0.905273 19.1947 1.07559 19.4979 1.37875C19.8011 1.68191 19.9714 2.09309 19.9714 2.52183V3.37106C19.9714 3.79979 19.8011 4.21097 19.4979 4.51413C19.1947 4.81729 18.7836 4.98761 18.3548 4.98761Z" fill="#049CA5"/>
<path d="M48.389 21.8439C47.9603 21.8439 47.5491 21.6736 47.2459 21.3705C46.9428 21.0673 46.7725 20.6561 46.7725 20.2274V1.61655C46.7725 1.18782 46.9428 0.77664 47.2459 0.473478C47.5491 0.170315 47.9603 0 48.389 0C48.8178 0 49.2289 0.170315 49.5321 0.473478C49.8353 0.77664 50.0056 1.18782 50.0056 1.61655V20.2274C50.0056 20.6561 49.8353 21.0673 49.5321 21.3705C49.2289 21.6736 48.8178 21.8439 48.389 21.8439Z" fill="#88BE40"/>
<path d="M23.5182 24.7745C23.2474 24.4422 22.8557 24.2312 22.4292 24.1878C22.0028 24.1443 21.5766 24.272 21.2443 24.5427C20.4278 25.2078 19.4069 25.5709 18.3539 25.5709C17.3008 25.5709 16.28 25.2078 15.4635 24.5427C15.1311 24.2712 14.7044 24.1429 14.2773 24.1859C13.8503 24.2289 13.4578 24.4399 13.1863 24.7723C12.9148 25.1047 12.7864 25.5314 12.8295 25.9584C12.8725 26.3855 13.0834 26.7779 13.4158 27.0495C14.8099 28.1825 16.551 28.8019 18.3474 28.804C20.1466 28.8037 21.8909 28.1846 23.2876 27.0506C23.4523 26.9163 23.589 26.751 23.6897 26.5639C23.7905 26.3768 23.8534 26.1717 23.8748 25.9603C23.8962 25.7489 23.8757 25.5354 23.8146 25.3319C23.7534 25.1284 23.6527 24.939 23.5182 24.7745Z" fill="#F7941D"/>
</g>
<defs>
<clipPath id="clip0_1300_140">
<rect width="50" height="28.8037" fill="white"/>
</clipPath>
</defs>
</svg>
