<svg width="1318" height="1024" viewBox="0 0 1318 1024" fill="none" xmlns="http://www.w3.org/2000/svg">
<g clip-path="url(#clip0_976_12)">
<path d="M1019.24 534.117C1019.8 534.098 1020.34 534 1020.84 533.718C1024.02 532.133 1027.21 530.401 1030.33 528.672C1031.7 527.916 1032.01 526.427 1031.01 525.472C1030.02 524.457 1028.1 524.23 1026.74 524.979C1023.7 526.705 1020.59 528.368 1017.48 529.951C1016.05 530.629 1015.68 532.041 1016.59 533.145C1017.2 533.84 1018.21 534.152 1019.24 534.117Z" fill="#FF8854"/>
<mask id="mask0_976_12" style="mask-type:luminance" maskUnits="userSpaceOnUse" x="57" y="464" width="937" height="130">
<path d="M57.1562 495.873L989.776 464.643L993.053 562.485L60.4327 593.715L57.1562 495.873Z" fill="white"/>
</mask>
<g mask="url(#mask0_976_12)">
<path d="M561.566 484.434C563.168 484.38 564.49 483.348 564.538 482.139C564.601 480.864 563.271 479.84 561.58 479.837C555.138 479.761 548.7 479.837 541.339 479.938C539.65 479.995 538.284 481.042 538.309 482.314C538.308 483.588 539.698 484.609 541.388 484.552C548.687 484.447 555.037 484.381 561.39 484.44C561.461 484.437 561.496 484.436 561.566 484.434ZM491.206 487.36C491.294 487.357 491.4 487.354 491.488 487.351C498.073 486.699 504.769 486.203 511.379 485.763C513.067 485.64 514.342 484.536 514.238 483.266C514.133 481.977 512.684 481.043 510.996 481.16C504.272 481.61 497.499 482.189 490.808 482.837C489.112 482.96 487.927 484.147 488.093 485.415C488.283 486.616 489.649 487.412 491.206 487.36ZM611.649 487.081C613.083 487.033 614.351 486.208 614.586 485.073C614.845 483.857 613.704 482.688 612.043 482.531C605.456 481.83 598.681 481.281 591.919 480.871C590.24 480.721 588.749 481.693 588.554 482.973C588.385 484.245 589.611 485.338 591.305 485.421C597.97 485.835 604.614 486.395 611.092 487.033C611.288 487.093 611.455 487.087 611.649 487.081ZM441.642 494.412C441.827 494.406 442.047 494.399 442.258 494.391C448.736 493.173 455.323 492.031 461.835 491.03C463.485 490.849 464.58 489.605 464.282 488.342C463.995 487.144 462.374 486.336 460.733 486.537C454.133 487.534 447.458 488.679 440.874 489.901C439.238 490.228 438.196 491.47 438.58 492.671C438.908 493.787 440.225 494.46 441.642 494.412ZM660.609 494.872C661.885 494.83 663.045 494.214 663.461 493.218C663.966 491.994 663.061 490.751 661.454 490.374C655.055 488.963 648.476 487.691 641.892 486.559C640.253 486.262 638.58 487.101 638.181 488.321C637.772 489.542 638.792 490.781 640.431 491.078C646.88 492.135 653.363 493.411 659.639 494.839C659.958 494.894 660.292 494.883 660.609 494.872ZM393.289 505.522C393.579 505.512 393.905 505.501 394.193 505.432C400.696 503.636 406.932 502.014 413.26 500.529C414.876 500.123 415.784 498.826 415.304 497.629C414.815 496.438 413.119 495.798 411.5 496.118C405.113 497.685 398.798 499.315 392.224 501.094C390.634 501.492 389.763 502.815 390.313 503.984C390.768 504.97 391.995 505.565 393.289 505.522ZM346.374 519.854C346.778 519.84 347.155 519.761 347.555 519.602C353.327 517.565 359.533 515.593 365.985 513.593C367.555 513.116 368.337 511.75 367.725 510.563C367.115 509.456 365.342 508.859 363.773 509.342C357.233 511.345 350.95 513.4 345.063 515.427C343.54 515.982 342.819 517.346 343.519 518.53C344.032 519.375 345.195 519.893 346.374 519.854ZM706.925 508.702C707.955 508.667 708.982 508.281 709.51 507.481C710.337 506.392 709.805 504.991 708.323 504.404C702.437 501.981 696.438 499.907 690.045 497.859C688.505 497.407 686.701 497.971 686.017 499.128C685.36 500.278 686.058 501.667 687.624 502.126C693.831 504.113 699.633 506.114 705.367 508.462C705.858 508.671 706.389 508.72 706.925 508.702ZM302.168 538.266C302.696 538.248 303.221 538.171 303.716 537.929C309.886 534.89 315.308 532.374 320.822 529.994C322.299 529.374 322.824 527.938 322.003 526.838C321.164 525.738 319.311 525.369 317.825 525.976C312.234 528.438 306.709 531.037 300.433 534.079C299.02 534.763 298.583 536.191 299.51 537.294C300.097 537.99 301.129 538.301 302.168 538.266ZM749.515 528.041C750.536 528.007 751.536 527.629 752.084 526.894C752.937 525.798 752.441 524.401 750.983 523.734C744.541 521.051 739.037 518.47 734.059 516.09C732.645 515.421 730.745 515.777 729.828 516.789C728.896 517.888 729.295 519.287 730.703 520.023C735.76 522.413 741.343 524.979 747.902 527.75C748.412 527.998 748.969 528.059 749.515 528.041ZM259.377 558.707C259.844 558.691 260.298 558.596 260.74 558.376C266.589 555.985 272.18 553.523 278.353 550.551C279.766 549.866 280.229 548.432 279.322 547.401C278.439 546.296 276.571 546.014 275.132 546.699C269.088 549.587 263.603 552.046 257.875 554.353C256.389 554.974 255.829 556.405 256.606 557.513C257.16 558.27 258.251 558.745 259.377 558.707ZM794.808 543.669C796.014 543.628 797.113 543.034 797.568 542.164C798.205 540.935 797.448 539.621 795.865 539.183C789.407 537.33 783.223 535.488 777.505 533.63C775.963 533.105 774.141 533.663 773.457 534.827C772.756 535.978 773.435 537.308 774.958 537.814C780.785 539.754 787.051 541.674 793.613 543.503C793.997 543.636 794.43 543.681 794.808 543.669ZM213.177 574.135C213.476 574.125 213.793 574.115 214.081 574.045C220.506 572.272 226.901 570.419 233.107 568.447C234.675 567.897 235.415 566.586 234.785 565.413C234.147 564.228 232.376 563.716 230.798 564.194C224.706 566.169 218.416 568.017 212.121 569.707C210.523 570.125 209.659 571.421 210.203 572.676C210.639 573.584 211.866 574.179 213.177 574.135ZM842.032 555.909C843.308 555.866 844.495 555.269 844.884 554.255C845.389 553.044 844.484 551.788 842.86 551.431C837.083 550.192 830.911 548.714 823.969 546.877C822.363 546.52 820.613 547.135 820.035 548.296C819.459 549.509 820.27 550.834 821.87 551.272C828.899 553.092 835.169 554.58 841.062 555.882C841.381 555.931 841.715 555.92 842.032 555.909ZM970.472 552.961C970.789 552.95 971.086 552.874 971.4 552.784C977.754 551.013 984.128 549.035 990.342 546.764C991.865 546.216 992.542 544.86 991.853 543.736C991.153 542.565 989.341 542.122 987.791 542.678C981.766 544.79 975.559 546.762 969.388 548.467C967.801 548.945 966.955 550.247 967.497 551.436C967.952 552.409 969.179 553.004 970.472 552.961ZM164.589 584.557C164.756 584.551 164.95 584.545 165.117 584.539C171.794 583.46 178.449 582.249 184.905 580.905C186.541 580.565 187.539 579.325 187.118 578.065C186.717 576.865 185.036 576.145 183.4 576.485C177.048 577.766 170.498 578.967 163.927 580.049C162.262 580.31 161.185 581.554 161.524 582.736C161.818 583.874 163.129 584.606 164.589 584.557ZM891.292 562.417C892.859 562.365 894.165 561.399 894.274 560.188C894.373 558.912 893.096 557.886 891.42 557.803C884.823 557.593 878.411 557.111 871.761 556.346C870.097 556.117 868.524 557.012 868.221 558.229C867.947 559.511 869.069 560.681 870.724 560.911C877.568 561.67 884.218 562.163 891.002 562.427C891.107 562.423 891.187 562.421 891.292 562.417ZM921.423 561.693C921.511 561.69 921.572 561.688 921.634 561.686C928.371 561.096 935.163 560.311 941.867 559.231C943.505 558.971 944.609 557.72 944.267 556.465C943.954 555.262 942.359 554.473 940.694 554.734C934.209 555.734 927.61 556.525 921.084 557.095C919.388 557.232 918.156 558.321 918.305 559.609C918.45 560.791 919.839 561.746 921.423 561.693ZM114.794 590.475C114.855 590.473 114.917 590.471 114.987 590.469C121.744 589.951 128.515 589.313 135.124 588.581C136.791 588.386 137.979 587.298 137.769 586.012C137.559 584.746 136.024 583.875 134.339 584.077C127.835 584.786 121.168 585.374 114.472 585.87C112.776 586.007 111.529 587.176 111.677 588.444C111.797 589.654 113.183 590.529 114.794 590.475ZM84.5705 592.124C86.26 592.068 87.6437 591.033 87.6011 589.761C87.5581 588.476 86.1875 587.534 84.498 587.59L84.4188 587.593C77.8806 587.812 71.1707 587.897 64.4781 587.975C62.7863 587.966 61.4202 589 61.4012 590.274C61.3827 591.561 62.7465 592.563 64.421 592.587C71.1928 592.506 77.9708 592.345 84.5705 592.124Z" fill="#FF8854"/>
</g>
<mask id="mask1_976_12" style="mask-type:luminance" maskUnits="userSpaceOnUse" x="22" y="586" width="21" height="8">
<path d="M22.0977 587.033L42.1432 586.362L42.3704 593.146L22.3248 593.817L22.0977 587.033Z" fill="white"/>
</mask>
<g mask="url(#mask1_976_12)">
<path d="M37.328 592.287C38.8944 592.234 40.2213 591.347 40.285 590.092C40.3832 588.815 39.081 587.811 37.4042 587.721C33.4023 587.649 29.3273 587.501 25.2609 587.345C23.5843 587.262 22.1104 588.233 21.9858 589.511C21.8782 590.768 23.1478 591.853 24.8246 591.943C28.9344 592.077 33.0445 592.224 37.0728 592.295C37.1608 592.292 37.24 592.29 37.328 592.287Z" fill="#FF8854"/>
</g>
<mask id="mask2_976_12" style="mask-type:luminance" maskUnits="userSpaceOnUse" x="925" y="281" width="371" height="167">
<path d="M925.412 293.616L1289.94 281.41L1295.1 435.742L930.58 447.948L925.412 293.616Z" fill="white"/>
</mask>
<g mask="url(#mask2_976_12)">
<path d="M931.192 418.872L1289.33 281.49L1017.51 443.526L931.192 418.872Z" fill="#FF8854"/>
</g>
<mask id="mask3_976_12" style="mask-type:luminance" maskUnits="userSpaceOnUse" x="1033" y="280" width="265" height="250">
<path d="M1033.5 288.724L1289.89 280.138L1297.95 520.539L1041.55 529.125L1033.5 288.724Z" fill="white"/>
</mask>
<g mask="url(#mask3_976_12)">
<path d="M1040.96 459.042L1289.85 281.141L1171.79 523.935L1040.96 459.042Z" fill="#FF8854"/>
</g>
<mask id="mask4_976_12" style="mask-type:luminance" maskUnits="userSpaceOnUse" x="1008" y="281" width="290" height="231">
<path d="M1008.76 290.825L1289.94 281.41L1297.32 501.884L1016.14 511.3L1008.76 290.825Z" fill="white"/>
</mask>
<g mask="url(#mask4_976_12)">
<path d="M1015.69 441.869L1049.02 510.173L1053.24 456.071L1289.33 281.49L1015.69 441.869Z" fill="#F47A45"/>
</g>
<path d="M1053.24 456.024L1049.02 510.139L1083.93 474.654L1053.24 456.024Z" fill="#F17742"/>
</g>
<defs>
<clipPath id="clip0_976_12">
<rect width="1278" height="1203" fill="white" transform="translate(0.226562 -59.2769) rotate(-1.91793)"/>
</clipPath>
</defs>
</svg>
